SplineFontDB: 3.0
FontName: MiriamMonoCLM-BoldOblique
FullName: Miriam Mono CLM Bold Oblique
FamilyName: Miriam Mono CLM
Weight: Bold
Copyright: Copyright 2002-2010 by Maxim Iorsh (iorsh@math.technion.ac.il). Distributed under the terms of GNU General Public License version 2(http://www.gnu.org/licenses/gpl.html).\n\nHebrew vowel marks positioning algorithms implementation by Yoram Gnat 2010. (yoramg@shenkar.ac.il). \n \nLatin glyphs, digits and punctuation Copyright (URW)++,Copyright 1999 by (URW)++ Design & Development.\nAll rights reserved.
Version: 0.120
ItalicAngle: -12
UnderlinePosition: -100
UnderlineWidth: 50
Ascent: 800
Descent: 200
LayerCount: 2
Layer: 0 0 "Back"  1
Layer: 1 0 "Fore"  0
NeedsXUIDChange: 1
UniqueID: 4258297
FSType: 0
OS2Version: 0
OS2_WeightWidthSlopeOnly: 0
OS2_UseTypoMetrics: 0
CreationTime: 1235598109
ModificationTime: 1289934458
PfmFamily: 49
TTFWeight: 700
TTFWidth: 5
LineGap: 90
VLineGap: 0
OS2TypoAscent: 0
OS2TypoAOffset: 1
OS2TypoDescent: 0
OS2TypoDOffset: 1
OS2TypoLinegap: 90
OS2WinAscent: 0
OS2WinAOffset: 1
OS2WinDescent: 0
OS2WinDOffset: 1
HheadAscent: 0
HheadAOffset: 1
HheadDescent: 0
HheadDOffset: 1
OS2Vendor: 'PfEd'
Lookup: 4 1 0 "'ccmp' Yod Hiriq in Hebrew Script"  {"'ccmp' Yod Hiriq in Hebrew Script"  } ['ccmp' ('hebr' <'dflt' > ) ]
Lookup: 4 0 0 "Shin Dots Compositions"  {"Shin Dots Compositions"  } ['ccmp' ('hebr' <'dflt' > ) ]
Lookup: 4 1 0 "'ccmp' Hebrew Standard Substitutions"  {"'ccmp' Rafe above Bet Kaf Pe"  "'ccmp' Dagesh"  "'ccmp' Shin and Sin dots"  "'ccmp' Vav and Holam"  "'ccmp' Alef-a"  } ['ccmp' ('hebr' <'dflt' > ) ]
Lookup: 4 1 0 "'ccmp' Hebrew Additional Substitutions"  {"'ccmp' Dagesh in additional letters"  "'ccmp' Final Kaf"  "'ccmp' Yod Ligatures"  "'ccmp' Alef Lamed"  } ['ccmp' ('hebr' <'dflt' > ) ]
Lookup: 6 1 0 "'ccmp' Hebrew Special Decompositions"  {"'ccmp' Final Kaf Decompositions"  "'ccmp' Alef Decompositions"  "'ccmp' virtual YodHiriq Decomposition"  } ['ccmp' ('hebr' <'dflt' > ) ]

StartChar: .notdef
Encoding: 65536 -1 0
Width: 600
Flags: W
HStem: -60 100<189 429> 123 59<295.711 356.935> 207 54<327 363.881> 350 44<320.182 411.239> 440 100<276 514>
VStem: 276 45<304.734 346.125> 321 44<207.475 239.562> 413 44<288.874 346.613>
LayerCount: 2
Fore
SplineSet
276 333 m 2xfd
 285 368 l 1
 331 388 352 394 381 394 c 0
 428 394 457 369 457 329 c 0
 457 323 456 317 455 310 c 0
 447 275 424 254 365 231 c 1
 361 215 351 207 338 207 c 0
 326 207 321 213 321 224 c 0
 321 228 320 232 321 236 c 2xfb
 327 261 l 1
 389 282 408 294 413 313 c 0
 413 315 413 317 413 319 c 0
 413 338 396 350 371 350 c 0
 354 350 337 346 321 339 c 1
 317 319 311 304 293 304 c 0
 280 304 276 310 276 321 c 0
 276 324 275 328 276 333 c 2xfd
324 123 m 2
 316 123 l 2
 302 123 293 133 293 146 c 0
 293 148 292 151 293 153 c 0
 296 168 313 182 329 182 c 2
 337 182 l 2
 351 182 361 172 361 159 c 0
 361 157 360 155 360 153 c 0
 356 136 340 123 324 123 c 2
189 40 m 1
 429 40 l 1
 514 440 l 1
 276 440 l 1xfd
 189 40 l 1
195 540 m 1
 635 540 l 1
 507 -60 l 1
 67 -60 l 1
 195 540 l 1
EndSplineSet
Validated: 1
EndChar

StartChar: exclam
Encoding: 33 33 2
Width: 600
Flags: W
HStem: -15 132<262.458 358.542> 618 20G<421.5 454.5>
VStem: 234 153<13.9399 88.1026> 298 100<193.491 250.598> 333 168<492.516 595.391>
LayerCount: 2
Fore
SplineSet
490 525 m 2xc8
 398 228 l 2
 388 197 366 179 338 179 c 0
 313 179 298 194 298 219 c 0
 298 221 297 225 298 228 c 2xd0
 333 525 l 2
 338 568 344 585 361 603 c 1
 380 625 408 638 435 638 c 0
 474 638 501 613 501 577 c 0
 501 564 499 553 490 525 c 2xc8
305 -15 m 2
 288 -15 l 2
 256 -15 234 7 234 38 c 0xe0
 234 78 274 117 316 117 c 2
 333 117 l 2xc8
 365 117 387 95 387 65 c 0xe0
 387 24 348 -15 305 -15 c 2
EndSplineSet
Validated: 1
EndChar

StartChar: quotedbl
Encoding: 34 34 3
Width: 600
Flags: W
HStem: 312 290<264 300.257 464 500.733>
VStem: 243 63<316.021 348>
LayerCount: 2
Fore
SplineSet
264 602 m 1
 392 602 l 1
 306 348 l 2
 298 323 287 312 267 312 c 0
 253 312 243 322 243 335 c 0
 243 337 242 342 243 347 c 2
 264 602 l 1
464 602 m 1
 592 602 l 1
 507 348 l 2
 498 322 487 312 467 312 c 0
 453 312 443 322 443 335 c 0
 443 336 443 342 444 347 c 2
 464 602 l 1
EndSplineSet
Validated: 1
EndChar

StartChar: numbersign
Encoding: 35 35 4
Width: 600
Flags: W
HStem: 139 99<124.699 184 312 356 483 536.3> 344 100<188.698 242 370 414 541 599.347>
LayerCount: 2
Fore
SplineSet
566 444 m 2
 602 444 623 437 623 404 c 0
 623 388 614 371 600 359 c 0
 586 347 576 344 545 344 c 2
 513 344 l 1
 483 238 l 1
 502 238 l 2
 521 238 529 237 537 234 c 0
 550 230 560 215 560 199 c 0
 560 183 551 165 537 154 c 0
 522 142 511 139 481 139 c 2
 455 139 l 1
 408 -29 l 1
 397 -64 378 -92 342 -92 c 0
 320 -92 303 -75 303 -54 c 0
 303 -46 303 -46 310 -22 c 2
 356 139 l 1
 284 139 l 1
 236 -29 l 1
 227 -70 205 -92 172 -92 c 0
 150 -92 132 -75 132 -54 c 0
 132 -46 133 -39 138 -22 c 2
 184 139 l 1
 158 139 l 2
 117 139 101 150 101 179 c 0
 101 194 110 212 124 224 c 0
 139 236 148 238 179 238 c 2
 212 238 l 1
 242 344 l 1
 222 344 l 2
 202 344 195 345 187 348 c 0
 174 353 165 368 165 384 c 0
 165 400 174 418 188 430 c 0
 203 442 211 444 243 444 c 2
 270 444 l 1
 317 612 l 2
 328 654 349 675 382 675 c 0
 404 675 422 658 422 638 c 0
 422 630 421 624 416 605 c 2
 370 444 l 1
 442 444 l 1
 489 612 l 2
 497 640 500 646 510 656 c 0
 522 668 538 675 554 675 c 0
 576 675 594 658 594 635 c 0
 594 630 594 630 587 605 c 2
 541 444 l 1
 566 444 l 2
414 344 m 1
 342 344 l 1
 312 238 l 1
 383 238 l 1
 414 344 l 1
EndSplineSet
Validated: 1
EndChar

StartChar: dollar
Encoding: 36 36 5
Width: 600
Flags: W
HStem: -123 247<258.151 363.5> 495 189<403.293 476.179> 495 97<332.262 378> 563 20G<565 581.5>
VStem: 117 105<147.551 209.794> 196 106<393.035 465.739> 458 106<166.357 248.204> 492 107<434.468 483.005>
LayerCount: 2
Fore
SplineSet
483 618 m 2xc6
 477 592 l 1xa6
 488 590 492 590 500 588 c 2
 510 583 l 1
 521 578 529 576 541 574 c 1
 553 579 560 583 570 583 c 0x96
 593 583 610 565 610 544 c 0
 610 537 609 527 606 515 c 2
 599 483 l 2
 593 455 590 447 580 437 c 0
 567 423 551 417 535 417 c 0
 507 417 492 432 492 460 c 0
 492 478 455 495 415 495 c 0
 350 495 302 465 302 424 c 0xc5
 302 402 323 386 366 377 c 2
 428 363 l 2
 525 342 564 306 564 235 c 0
 564 134 481 50 357 27 c 1
 339 -56 l 2
 333 -84 330 -92 320 -102 c 0
 308 -115 291 -123 276 -123 c 0
 253 -123 236 -107 236 -86 c 0
 236 -79 237 -69 240 -56 c 2
 258 27 l 1
 218 36 212 38 184 52 c 1
 165 38 155 34 141 34 c 0
 117 34 100 50 100 72 c 0
 100 78 101 85 104 101 c 2
 117 162 l 2
 123 190 127 198 137 208 c 0
 150 221 166 229 182 229 c 0
 195 229 208 223 215 214 c 0
 221 207 221 207 222 180 c 0xca
 224 149 271 124 328 124 c 0
 399 124 458 164 458 214 c 0
 458 240 437 255 389 265 c 2
 319 280 l 2
 237 297 196 338 196 403 c 0
 196 493 275 575 378 592 c 1xa6
 384 618 l 1
 389 645 393 653 403 664 c 0
 415 676 432 684 448 684 c 0
 470 684 487 668 487 646 c 0
 487 639 487 637 483 618 c 2xc6
EndSplineSet
Validated: 1
EndChar

StartChar: percent
Encoding: 37 37 6
Width: 600
Flags: W
HStem: -15 65<332.403 436.769> 199 65<356.052 458.631> 338 65<267.083 371.673> 552 65<288.567 393.592>
VStem: 188 65<416.879 515.707> 253 67<63.403 162.61> 407 65<439.175 538.516> 472 66<85.867 185.636>
LayerCount: 2
Fore
SplineSet
360 617 m 0xfa
 427 617 472 572 472 506 c 0
 472 419 389 338 299 338 c 0
 235 338 188 385 188 449 c 0
 188 535 272 617 360 617 c 0xfa
346 552 m 0
 299 552 253 508 253 463 c 0
 253 428 279 403 314 403 c 0
 362 403 407 447 407 493 c 0
 407 527 382 552 346 552 c 0
562 331 m 2
 174 213 l 2
 166 210 158 209 153 209 c 0
 140 209 131 220 131 235 c 0
 131 253 142 264 168 272 c 2
 555 390 l 2
 568 394 570 394 576 394 c 0
 590 394 599 383 599 368 c 0
 599 350 588 338 562 331 c 2
425 264 m 0
 492 264 538 219 538 153 c 0
 538 66 454 -15 364 -15 c 0
 300 -15 253 32 253 96 c 0xf5
 253 182 337 264 425 264 c 0
411 199 m 0
 365 199 320 155 320 109 c 0
 320 75 345 50 379 50 c 0
 427 50 472 93 472 139 c 0
 472 175 447 199 411 199 c 0
EndSplineSet
Validated: 1
EndChar

StartChar: ampersand
Encoding: 38 38 7
Width: 600
Flags: W
HStem: -14 100<211.789 332.391> 0 100<455 496.344> 180 96<500.928 542.23> 450 100<338.062 429.38>
VStem: 102 102<95.2484 183.228> 219 102<333.287 431.456>
LayerCount: 2
Fore
SplineSet
463 100 m 2x7c
 500 100 520 93 520 60 c 0
 520 44 511 26 497 15 c 0
 483 3 470 0 442 0 c 2
 381 0 l 1x7c
 373 15 l 1
 339 -6 307 -14 255 -14 c 0xbc
 160 -14 102 32 102 106 c 0
 102 186 152 260 236 303 c 1
 223 336 219 355 219 374 c 0
 219 460 315 550 406 550 c 0
 430 550 449 545 473 533 c 1
 485 538 495 540 503 540 c 0
 523 540 541 521 541 501 c 0
 541 473 528 457 488 437 c 1
 441 416 l 1
 419 442 405 450 385 450 c 0
 353 450 321 421 321 392 c 0
 321 384 328 362 338 343 c 2
 407 198 l 1
 448 280 l 1
 500 280 l 2
 520 280 527 279 535 276 c 0
 548 271 557 256 557 241 c 0
 557 210 531 182 502 180 c 1
 483 140 472 121 455 100 c 1
 463 100 l 2x7c
333 100 m 1
 275 220 l 1
 231 201 204 167 204 129 c 0
 204 100 228 86 275 86 c 0xbc
 300 86 312 89 333 100 c 1
EndSplineSet
Validated: 1
EndChar

StartChar: quotesingle
Encoding: 39 39 8
Width: 600
Flags: W
HStem: 331 293
VStem: 222 261
LayerCount: 2
Fore
SplineSet
350 624 m 1
 483 624 l 1
 285 355 l 2
 273 339 260 331 248 331 c 0
 234 331 222 341 222 353 c 0
 222 360 223 364 230 378 c 2
 350 624 l 1
EndSplineSet
Validated: 1
EndChar

StartChar: parenleft
Encoding: 40 40 9
Width: 600
Flags: W
VStem: 304 112<-2.70938 277.686>
LayerCount: 2
Fore
SplineSet
572 632 m 0
 596 632 613 616 613 593 c 0
 613 578 608 567 593 549 c 0
 470 401 416 276 416 140 c 0
 416 71 429 9 461 -70 c 0
 466 -82 467 -87 467 -92 c 0
 467 -124 437 -153 405 -153 c 0
 389 -153 377 -147 370 -134 c 0
 333 -72 304 44 304 131 c 0
 304 269 356 398 471 547 c 0
 524 615 544 632 572 632 c 0
EndSplineSet
Validated: 1
EndChar

StartChar: parenright
Encoding: 41 41 10
Width: 600
Flags: W
VStem: 291 112<198.807 481.943>
LayerCount: 2
Fore
SplineSet
302 632 m 0
 318 632 330 626 337 613 c 0
 374 551 403 435 403 348 c 0
 403 210 353 84 236 -68 c 0
 184 -135 163 -153 135 -153 c 0
 111 -153 94 -137 94 -114 c 0
 94 -99 99 -88 114 -70 c 0
 239 81 291 202 291 340 c 0
 291 408 277 471 246 549 c 0
 241 560 240 565 240 571 c 0
 240 603 269 632 302 632 c 0
EndSplineSet
Validated: 1
EndChar

StartChar: asterisk
Encoding: 42 42 11
Width: 600
Flags: W
HStem: 400 102<194.335 218 529 595.71> 604 20G<415.5 443.5>
LayerCount: 2
Fore
SplineSet
298 372 m 1
 218 400 l 2
 188 410 178 420 178 441 c 0
 178 472 207 502 238 502 c 0
 246 502 249 501 269 495 c 2
 349 467 l 1
 368 556 l 2
 378 600 399 624 432 624 c 0
 455 624 472 605 472 583 c 0
 472 577 471 569 468 556 c 2
 449 467 l 1
 541 495 l 2
 563 501 566 502 576 502 c 0
 597 502 614 484 614 462 c 0
 614 432 595 413 552 400 c 2
 460 372 l 1
 497 301 l 2
 506 283 508 276 508 267 c 0
 508 238 477 208 446 208 c 0
 426 208 418 214 403 242 c 2
 367 314 l 1
 299 242 l 2
 273 214 263 208 243 208 c 0
 219 208 202 225 202 248 c 0
 202 265 208 276 231 301 c 2
 298 372 l 1
EndSplineSet
Validated: 1
EndChar

StartChar: plus
Encoding: 43 43 12
Width: 600
Flags: W
HStem: 0 21G<289.5 308.5> 230 100<124.699 299 421 595.345>
LayerCount: 2
Fore
SplineSet
399 230 m 1
 365 66 l 2
 359 39 356 31 346 21 c 0
 334 8 316 0 301 0 c 0
 278 0 261 16 261 37 c 0
 261 44 263 57 265 66 c 2
 299 230 l 1
 158 230 l 2
 117 230 101 241 101 270 c 0
 101 286 110 304 124 316 c 0
 139 328 148 330 179 330 c 2
 321 330 l 1
 355 494 l 2
 365 538 386 560 420 560 c 0
 443 560 460 544 460 522 c 0
 460 515 460 513 455 494 c 1
 421 330 l 1
 562 330 l 2
 584 330 588 330 597 326 c 0
 610 321 619 307 619 290 c 0
 619 274 610 257 596 245 c 0
 582 233 570 230 541 230 c 2
 399 230 l 1
EndSplineSet
Validated: 1
EndChar

StartChar: comma
Encoding: 44 44 13
Width: 600
Flags: W
HStem: -158 292
VStem: 118 261
LayerCount: 2
Fore
SplineSet
246 134 m 1
 379 134 l 1
 181 -134 l 2
 169 -150 156 -158 144 -158 c 0
 130 -158 118 -148 118 -136 c 0
 118 -129 119 -125 126 -111 c 2
 246 134 l 1
EndSplineSet
Validated: 1
EndChar

StartChar: hyphen
Encoding: 45 45 14
Width: 600
Flags: W
HStem: 229 100<124.699 595.345>
LayerCount: 2
Fore
SplineSet
541 229 m 2
 158 229 l 2
 117 229 101 240 101 269 c 0
 101 285 110 302 124 314 c 0
 139 327 148 329 179 329 c 2
 562 329 l 2
 581 329 589 328 597 325 c 0
 609 321 619 305 619 290 c 0
 619 273 610 256 596 244 c 0
 582 232 570 229 541 229 c 2
EndSplineSet
Validated: 1
EndChar

StartChar: period
Encoding: 46 46 15
Width: 600
Flags: W
HStem: -15 132<262.458 358.542>
VStem: 234 153<13.9399 88.1026>
LayerCount: 2
Fore
SplineSet
305 -15 m 2
 288 -15 l 2
 256 -15 234 7 234 38 c 0
 234 78 274 117 316 117 c 2
 333 117 l 2
 365 117 387 95 387 65 c 0
 387 24 347 -15 305 -15 c 2
EndSplineSet
Validated: 1
EndChar

StartChar: slash
Encoding: 47 47 16
Width: 600
Flags: W
LayerCount: 2
Fore
SplineSet
636 610 m 2
 171 -69 l 2
 148 -103 134 -113 110 -113 c 0
 87 -113 69 -96 69 -74 c 0
 69 -61 74 -49 90 -27 c 2
 555 651 l 2
 578 685 592 695 616 695 c 0
 639 695 656 678 656 656 c 0
 656 643 652 634 636 610 c 2
EndSplineSet
Validated: 1
EndChar

StartChar: zero
Encoding: 48 48 17
Width: 600
Flags: W
HStem: -15 100<262.117 383.744> 538 100<347.813 469.883>
VStem: 130 101<117.925 324.992> 501 101<298.008 507.708>
LayerCount: 2
Fore
SplineSet
593 359 m 2
 573 264 l 2
 554 174 508 93 447 40 c 0
 405 4 354 -15 296 -15 c 0
 190 -15 130 55 130 179 c 0
 130 207 133 236 139 264 c 2
 159 359 l 2
 178 449 224 530 285 583 c 0
 326 619 378 638 436 638 c 0
 542 638 602 568 602 444 c 0
 602 416 599 387 593 359 c 2
260 366 m 1
 238 257 l 2
 233 237 231 216 231 195 c 0
 231 126 263 85 318 85 c 0
 388 85 449 153 471 257 c 2
 494 366 l 2
 499 386 501 407 501 428 c 0
 501 498 469 538 414 538 c 0
 343 538 283 470 260 366 c 1
EndSplineSet
Validated: 1
EndChar

StartChar: one
Encoding: 49 49 18
Width: 600
Flags: W
HStem: 0 100<109.789 272 371 505.344> 618 20G<404.545 481.725>
LayerCount: 2
Fore
SplineSet
486 638 m 1
 371 100 l 1
 472 100 l 2
 492 100 499 99 507 96 c 0
 519 92 529 76 529 61 c 0
 529 44 520 27 506 15 c 0
 492 4 479 0 451 0 c 2
 150 0 l 2
 109 0 93 12 93 40 c 0
 93 56 102 73 116 85 c 0
 131 98 139 100 171 100 c 2
 272 100 l 1
 358 509 l 1
 267 486 l 2
 246 481 243 480 233 480 c 0
 212 480 197 496 197 520 c 0
 197 554 215 572 262 583 c 2
 486 638 l 1
EndSplineSet
Validated: 1
EndChar

StartChar: two
Encoding: 50 50 19
Width: 600
Flags: W
HStem: 0 154<445.521 508> 0 100<228 438.009> 538 100<323.109 473.175>
VStem: 430 101<100.122 139.643> 500 102<409.05 510.48>
LayerCount: 2
Fore
SplineSet
228 100 m 1x68
 430 100 l 1x70
 440 136 460 154 491 154 c 0
 514 154 531 138 531 116 c 0
 531 109 530 105 527 88 c 2
 508 0 l 1xb0
 54 0 l 1
 76 105 l 1
 258 233 300 263 350 301 c 0
 483 403 500 422 500 465 c 0
 500 507 459 538 403 538 c 0
 363 538 324 523 297 497 c 0
 284 485 283 483 265 451 c 0
 256 434 235 422 214 422 c 0
 192 422 173 439 173 460 c 0
 173 491 212 547 258 583 c 0
 305 619 366 638 426 638 c 0
 530 638 602 575 602 484 c 0
 602 437 584 391 551 352 c 0
 523 320 459 268 352 189 c 1
 228 100 l 1x68
EndSplineSet
Validated: 1
EndChar

StartChar: three
Encoding: 51 51 20
Width: 600
Flags: W
HStem: -15 100<173.926 406.442> 287 96<309.967 426.355> 538 100<316.807 488.421>
VStem: 469 102<141.458 247.848> 507 102<424.165 518.652>
LayerCount: 2
Fore
SplineSet
357 383 m 2xf0
 398 383 l 2
 454 383 507 429 507 477 c 0
 507 515 470 538 410 538 c 0
 354 538 324 527 284 492 c 0
 274 483 259 477 246 477 c 0
 224 477 206 494 206 516 c 0
 206 578 320 638 438 638 c 0
 543 638 609 582 609 495 c 0xe8
 609 430 569 376 494 336 c 0
 493 336 490 335 487 333 c 1
 544 302 571 262 571 211 c 0
 571 163 539 99 494 58 c 0
 438 6 372 -15 268 -15 c 0
 156 -15 80 15 80 58 c 0
 80 91 109 120 142 120 c 0
 153 120 158 118 171 108 c 0
 193 91 222 85 286 85 c 0
 355 85 394 94 426 119 c 0
 452 139 469 171 469 201 c 0
 469 229 445 259 411 275 c 0
 392 283 378 285 337 287 c 0
 308 289 294 301 294 324 c 0
 294 355 324 383 357 383 c 2xf0
EndSplineSet
Validated: 1
EndChar

StartChar: four
Encoding: 52 52 21
Width: 600
Flags: W
HStem: 0 100<275.699 368 468 496.344> 138 100<248 376 497 532.755> 604 20G<431.821 579>
LayerCount: 2
Fore
SplineSet
579 624 m 1
 497 238 l 1
 533 238 549 226 549 198 c 0
 549 182 540 165 526 153 c 0
 512 141 502 138 476 138 c 1
 468 100 l 1
 503 100 520 87 520 60 c 0
 520 44 511 27 497 15 c 0
 483 4 469 0 441 0 c 2
 309 0 l 2
 268 0 252 12 252 40 c 0
 252 56 261 73 275 85 c 0
 290 97 299 100 330 100 c 2
 368 100 l 1
 376 138 l 1
 104 138 l 1
 122 221 l 1
 448 624 l 1
 579 624 l 1
397 238 m 1
 449 480 l 1
 248 238 l 1
 397 238 l 1
EndSplineSet
Validated: 1
EndChar

StartChar: five
Encoding: 53 53 22
Width: 600
Flags: W
HStem: -15 100<192.108 405.316> 324 100<307.019 447.491> 522 102<330 586.391>
VStem: 476 102<155.453 296.589>
LayerCount: 2
Fore
SplineSet
553 624 m 2
 589 624 610 614 610 583 c 0
 610 566 601 549 587 537 c 0
 574 525 561 522 532 522 c 2
 330 522 l 1
 306 407 l 1
 345 418 379 424 410 424 c 0
 511 424 578 357 578 255 c 0
 578 193 554 128 512 79 c 0
 455 13 384 -15 274 -15 c 0
 165 -15 83 22 83 72 c 0
 83 104 113 133 145 133 c 0
 159 133 165 130 177 118 c 0
 202 93 230 85 295 85 c 0
 371 85 416 102 446 142 c 0
 465 167 476 202 476 236 c 0
 476 290 441 324 387 324 c 0
 353 324 305 311 258 290 c 0
 244 284 238 282 229 282 c 0
 207 282 189 299 189 320 c 0
 189 321 189 323 189 324 c 0
 189 329 190 332 191 338 c 2
 252 624 l 1
 553 624 l 2
EndSplineSet
Validated: 1
EndChar

StartChar: six
Encoding: 54 54 23
Width: 600
Flags: W
HStem: -15 100<286.75 423.483> 294 100<344.471 453.286> 535 103<452.214 621.798>
VStem: 154 107<112.271 218.876> 478 103<143.692 270.077>
LayerCount: 2
Fore
SplineSet
276 324 m 1
 335 374 377 394 428 394 c 0
 515 394 581 327 581 238 c 0
 581 180 557 116 518 70 c 0
 470 13 407 -15 328 -15 c 0
 212 -15 154 50 154 180 c 0
 154 276 181 368 231 443 c 1
 272 502 333 558 398 594 c 0
 452 624 502 638 559 638 c 0
 622 638 663 616 663 583 c 0
 663 552 632 522 600 522 c 0
 592 522 581 524 566 530 c 0
 556 534 552 535 543 535 c 0
 453 535 347 464 295 366 c 0
 289 355 286 348 276 324 c 1
262 209 m 1
 261 202 261 197 261 194 c 0
 261 163 271 127 283 110 c 1
 296 95 322 85 352 85 c 0
 395 85 427 101 450 134 c 1
 468 158 478 189 478 214 c 0
 478 260 445 294 401 294 c 0
 357 294 300 259 262 209 c 1
EndSplineSet
Validated: 1
EndChar

StartChar: seven
Encoding: 55 55 24
Width: 600
Flags: W
HStem: 0 21G<284 308.5> 468 156<207 269.479> 522 102<276.991 513>
VStem: 184 101<482.357 521.971>
LayerCount: 2
Fore
SplineSet
513 522 m 1xb0
 285 522 l 1xb0
 275 486 255 468 224 468 c 0
 201 468 184 484 184 506 c 0
 184 512 185 521 188 534 c 2
 207 624 l 1xd0
 640 624 l 1
 619 522 l 1
 359 48 l 2
 339 12 322 0 295 0 c 0
 273 0 254 17 254 37 c 0
 254 48 257 57 270 81 c 2
 513 522 l 1xb0
EndSplineSet
Validated: 1
EndChar

StartChar: eight
Encoding: 56 56 25
Width: 600
Flags: W
HStem: -15 100<244.634 401.586> 263 101<307.173 426.109> 538 100<335.154 481.829>
VStem: 114 104<109.197 212.285> 185 100<385.731 492.296> 456 100<132.469 235.38> 505 103<410.491 516.545>
LayerCount: 2
Fore
SplineSet
487 319 m 1xea
 534 286 556 246 556 198 c 0
 556 154 533 101 499 64 c 0
 454 16 375 -15 295 -15 c 0
 183 -15 114 40 114 129 c 0xf4
 114 205 161 271 248 319 c 1
 204 353 185 386 185 429 c 0
 185 474 214 531 258 570 c 0
 305 613 371 638 435 638 c 0
 537 638 608 576 608 489 c 0
 608 421 569 367 487 319 c 1xea
413 538 m 0
 341 538 285 492 285 433 c 0
 285 392 321 364 376 364 c 0
 447 364 505 410 505 466 c 0xea
 505 511 470 538 413 538 c 0
357 263 m 0
 283 263 218 214 218 158 c 0
 218 113 257 85 318 85 c 0
 394 85 456 131 456 187 c 0xf4
 456 231 414 263 357 263 c 0
EndSplineSet
Validated: 1
EndChar

StartChar: nine
Encoding: 57 57 26
Width: 600
Flags: W
HStem: -15 103<156.371 325.786> 229 100<324.714 433.487> 538 100<354.679 491.259>
VStem: 197 103<352.855 479.307> 517 107<414.281 509.27>
LayerCount: 2
Fore
SplineSet
502 299 m 1
 442 248 401 229 350 229 c 0
 263 229 197 296 197 385 c 0
 197 443 221 507 260 553 c 0
 309 610 371 638 450 638 c 0
 566 638 624 573 624 443 c 0
 624 347 597 255 547 180 c 1
 506 121 445 65 380 29 c 0
 326 -1 276 -15 219 -15 c 0
 157 -15 115 7 115 40 c 0
 115 71 146 101 178 101 c 0
 187 101 197 99 212 93 c 0
 222 89 226 88 235 88 c 0
 325 88 431 160 483 257 c 0
 489 268 492 275 502 299 c 1
517 414 m 1
 518 420 517 426 517 428 c 0
 517 461 508 496 495 513 c 1
 482 528 457 538 426 538 c 0
 383 538 351 522 328 489 c 0
 311 465 300 434 300 408 c 0
 300 363 333 329 377 329 c 0
 421 329 479 364 517 414 c 1
EndSplineSet
Validated: 1
EndChar

StartChar: colon
Encoding: 58 58 27
Width: 600
Flags: W
HStem: -15 132<262.458 358.542> 304 133<330.458 426.542>
VStem: 234 153<13.9399 88.1026> 302 153<332.94 408.06>
LayerCount: 2
Fore
SplineSet
305 -15 m 2xe0
 288 -15 l 2
 256 -15 234 7 234 38 c 0
 234 78 274 117 316 117 c 2
 333 117 l 2
 365 117 387 95 387 65 c 0
 387 24 348 -15 305 -15 c 2xe0
373 304 m 2
 356 304 l 2
 324 304 302 326 302 357 c 0
 302 398 342 437 384 437 c 2
 401 437 l 2
 433 437 455 415 455 384 c 0xd0
 455 343 415 304 373 304 c 2
EndSplineSet
Validated: 1
EndChar

StartChar: semicolon
Encoding: 59 59 28
Width: 600
Flags: W
HStem: 304 133<307.369 402.116>
VStem: 278 153<331.961 409.039>
LayerCount: 2
Fore
SplineSet
247 134 m 1
 379 134 l 1
 181 -134 l 2
 169 -150 156 -158 144 -158 c 0
 130 -158 118 -148 118 -136 c 0
 118 -129 119 -125 126 -111 c 2
 247 134 l 1
368 437 m 0
 409 437 431 418 431 384 c 0
 431 339 391 304 340 304 c 0
 301 304 278 323 278 357 c 0
 278 401 318 437 368 437 c 0
EndSplineSet
Validated: 1
EndChar

StartChar: less
Encoding: 60 60 29
Width: 600
Flags: W
LayerCount: 2
Fore
SplineSet
609 501 m 0
 627 501 642 484 642 463 c 0
 642 442 629 425 600 412 c 2
 311 279 l 1
 543 143 l 2
 561 132 567 124 567 109 c 0
 567 82 537 54 514 54 c 0
 506 54 496 57 486 63 c 2
 102 280 l 1
 577 492 l 2
 590 498 601 501 609 501 c 0
EndSplineSet
Validated: 1
EndChar

StartChar: equal
Encoding: 61 61 30
Width: 600
Flags: W
HStem: 138 100<104.699 575.345> 322 100<143.699 614.345>
LayerCount: 2
Fore
SplineSet
198 422 m 2
 581 422 l 2
 603 422 607 422 616 418 c 0
 629 413 638 399 638 382 c 0
 638 366 629 349 615 337 c 0
 601 325 589 322 560 322 c 2
 177 322 l 2
 136 322 120 333 120 362 c 0
 120 378 129 396 143 408 c 0
 158 420 167 422 198 422 c 2
159 238 m 2
 542 238 l 2
 564 238 568 238 577 234 c 0
 590 229 599 215 599 198 c 0
 599 182 590 164 576 153 c 0
 562 141 550 138 521 138 c 2
 138 138 l 2
 97 138 81 149 81 178 c 0
 81 194 90 212 104 224 c 0
 119 236 128 238 159 238 c 2
EndSplineSet
Validated: 1
EndChar

StartChar: greater
Encoding: 62 62 31
Width: 600
Flags: W
LayerCount: 2
Fore
SplineSet
109 53 m 0
 91 53 76 70 76 91 c 0
 76 113 89 129 118 142 c 2
 407 275 l 1
 175 412 l 2
 157 422 151 430 151 445 c 0
 151 471 180 500 204 500 c 0
 212 500 222 497 232 491 c 2
 616 274 l 1
 141 62 l 2
 128 56 116 53 109 53 c 0
EndSplineSet
Validated: 1
EndChar

StartChar: question
Encoding: 63 63 32
Width: 600
Flags: W
HStem: -15 132<264.458 360.89> 174 122<315 372.315> 498 100<312.418 484.032>
VStem: 236 153<13.9399 88.1026> 299 102<190.504 236.631> 506 102<378.137 476.048>
LayerCount: 2
Fore
SplineSet
201 460 m 2xf4
 218 539 l 1
 327 586 370 598 436 598 c 0
 543 598 608 542 608 450 c 0
 608 395 585 343 547 309 c 0
 512 279 471 256 401 228 c 1
 389 192 368 174 339 174 c 0
 317 174 299 191 299 211 c 0
 299 219 299 221 304 240 c 1
 315 296 l 1
 466 349 506 377 506 428 c 0
 506 472 473 498 415 498 c 0
 377 498 340 490 304 474 c 1
 299 460 l 2xec
 293 432 292 425 282 415 c 0
 270 402 251 394 236 394 c 0
 214 394 197 410 197 431 c 0
 197 437 198 447 201 460 c 2xf4
308 -15 m 2
 290 -15 l 2
 258 -15 236 7 236 38 c 0
 236 78 276 117 318 117 c 2
 336 117 l 2
 367 117 389 95 389 65 c 0xf4
 389 24 350 -15 308 -15 c 2
EndSplineSet
Validated: 1
EndChar

StartChar: at
Encoding: 64 64 33
Width: 600
Flags: W
HStem: -152 78<221.667 384.485> 72 81<357.208 440> 316 82<402.662 474> 541 79<348.317 476.996>
VStem: 98 81<-25.0943 209.445> 262 81<168.864 265.536> 501 81<398.375 516.809>
LayerCount: 2
Fore
SplineSet
492 398 m 1
 498 429 l 2
 500 439 501 447 501 458 c 0
 501 509 469 541 417 541 c 0
 333 541 249 444 222 316 c 2
 189 161 l 2
 182 130 179 103 179 78 c 0
 179 22 194 -27 220 -51 c 0
 237 -67 258 -74 289 -74 c 0
 334 -74 376 -62 399 -42 c 0
 416 -28 422 -25 434 -25 c 0
 453 -25 466 -38 466 -57 c 0
 466 -107 373 -152 269 -152 c 0
 204 -152 161 -131 133 -85 c 0
 110 -47 98 1 98 59 c 0
 98 90 101 122 108 154 c 2
 144 323 l 2
 181 495 302 620 433 620 c 0
 524 620 582 563 582 473 c 0
 582 459 580 444 577 429 c 2
 517 148 l 1
 530 142 534 135 534 122 c 0
 534 108 527 94 515 84 c 0
 503 74 494 72 469 72 c 2
 396 72 l 2
 316 72 262 122 262 196 c 0
 262 299 364 389 492 398 c 1
440 155 m 1
 474 316 l 1
 400 309 343 264 343 211 c 0
 343 177 372 153 413 153 c 0
 419 153 426 153 440 155 c 1
EndSplineSet
Validated: 1
EndChar

StartChar: A
Encoding: 65 65 34
Width: 600
Flags: W
HStem: 0 100<12.6996 68 176 232.345 376.611 461 575 609.344> 158 100<273 430> 483 100<207.698 304>
LayerCount: 2
Fore
SplineSet
450 158 m 1
 212 158 l 1
 176 100 l 1
 199 100 l 2
 220 100 226 99 234 96 c 0
 247 92 256 76 256 60 c 0
 256 44 247 27 233 15 c 0
 219 3 207 0 178 0 c 2
 46 0 l 2
 5 0 -11 11 -11 40 c 0
 -11 56 -2 74 12 85 c 0
 27 97 37 100 68 100 c 1
 304 483 l 1
 241 483 l 2
 200 483 184 494 184 523 c 0
 184 539 193 557 207 569 c 0
 222 581 230 583 262 583 c 2
 478 583 l 1
 575 100 l 1
 595 100 602 99 611 96 c 0
 624 91 633 76 633 60 c 0
 633 44 624 26 610 15 c 0
 596 3 583 0 555 0 c 2
 416 0 l 2
 376 0 360 11 360 40 c 0
 360 56 369 73 383 85 c 0
 398 98 406 100 438 100 c 2
 461 100 l 1
 450 158 l 1
430 258 m 1
 392 450 l 1
 273 258 l 1
 430 258 l 1
EndSplineSet
Validated: 1
EndChar

StartChar: B
Encoding: 66 66 35
Width: 600
Flags: W
HStem: 0 100<45.6534 115 215 480.134> 242 100<266 470.873> 483 100<148.653 196 296 503.671>
VStem: 504 104<122.741 211.813> 518 102<382.928 467.315>
LayerCount: 2
Fore
SplineSet
115 100 m 1xf0
 196 483 l 1
 181 483 l 2
 140 483 125 494 125 523 c 0
 125 539 134 556 148 569 c 1
 162 580 172 583 203 583 c 2
 455 583 l 2
 512 583 552 569 582 539 c 0
 606 515 620 482 620 448 c 0xe8
 620 391 590 345 529 305 c 1
 584 275 608 239 608 189 c 0
 608 147 585 97 549 63 c 0
 505 21 446 0 374 0 c 2
 79 0 l 2
 38 0 22 12 22 40 c 0
 22 56 31 73 45 85 c 0
 59 97 69 100 100 100 c 2
 115 100 l 1xf0
266 342 m 1
 379 342 l 2
 458 342 518 380 518 431 c 0
 518 464 485 483 429 483 c 2
 296 483 l 1
 266 342 l 1
215 100 m 1
 390 100 l 2
 464 100 504 123 504 166 c 0xf0
 504 213 456 242 380 242 c 2
 245 242 l 1
 215 100 l 1
EndSplineSet
Validated: 1
EndChar

StartChar: C
Encoding: 67 67 36
Width: 600
Flags: W
HStem: -14 100<246.638 457.787> 497 100<325.305 501.984> 563 20G<614.5 634.5>
VStem: 80 102<144.222 321.187>
LayerCount: 2
Fore
SplineSet
567 563 m 1xb0
 576 559 l 1
 593 576 606 583 623 583 c 0xb0
 646 583 663 567 663 545 c 0
 663 538 663 534 659 517 c 2
 641 433 l 2
 635 407 632 398 622 388 c 0
 610 375 593 367 577 367 c 0
 554 367 538 382 538 404 c 0
 538 405 538 405 538 406 c 2
 539 425 l 2
 539 426 539 426 539 427 c 0
 539 464 481 497 415 497 c 0
 313 497 222 420 200 315 c 2
 186 251 l 2
 183 238 182 225 182 214 c 0
 182 135 245 86 347 86 c 0
 393 86 436 95 463 109 c 0
 475 116 476 116 508 143 c 0
 522 154 534 159 547 159 c 0
 570 159 588 141 588 118 c 0
 588 99 576 80 550 59 c 0
 493 11 414 -14 324 -14 c 0
 176 -14 80 69 80 195 c 0
 80 213 82 231 86 249 c 2
 100 315 l 2
 134 475 277 597 432 597 c 0xd0
 484 597 517 589 567 563 c 1xb0
EndSplineSet
Validated: 1
EndChar

StartChar: D
Encoding: 68 68 37
Width: 600
Flags: W
HStem: 0 100<46.6541 96 196 407.228> 483 100<149.698 177 277 466.033>
VStem: 520 102<237.96 427.325>
LayerCount: 2
Fore
SplineSet
96 100 m 1
 177 483 l 1
 142 483 126 496 126 523 c 0
 126 539 135 556 149 569 c 1
 164 581 172 583 204 583 c 2
 417 583 l 2
 539 583 622 497 622 369 c 0
 622 348 620 326 615 305 c 2
 605 258 l 2
 590 185 553 123 497 75 c 0
 437 23 371 0 285 0 c 2
 80 0 l 2
 39 0 23 12 23 40 c 0
 23 56 32 73 46 85 c 0
 60 97 71 100 96 100 c 1
196 100 m 1
 306 100 l 2
 366 100 401 112 440 144 c 0
 475 174 495 210 506 261 c 2
 516 307 l 2
 519 321 520 335 520 350 c 0
 520 392 503 434 475 457 c 1
 456 474 424 483 387 483 c 2
 277 483 l 1
 196 100 l 1
EndSplineSet
Validated: 1
EndChar

StartChar: E
Encoding: 69 69 38
Width: 600
Flags: W
HStem: 0 100<39.234 116 216 471> 243 99<267 331> 366 217<531.343 601.917> 483 100<149.653 197 297 531>
VStem: 325 103<190.513 243>
LayerCount: 2
Fore
SplineSet
325 207 m 0xd8
 325 214 328 232 331 243 c 1
 246 243 l 1
 216 100 l 1
 471 100 l 1
 483 152 l 1
 488 180 492 188 502 198 c 1
 514 212 531 219 546 219 c 0
 569 219 587 203 587 182 c 0
 587 174 586 170 583 152 c 2
 550 0 l 1
 80 0 l 2
 40 0 23 12 23 40 c 0
 23 56 32 74 46 85 c 0
 61 98 70 100 101 100 c 2
 116 100 l 1
 197 483 l 1
 182 483 l 2
 141 483 125 494 125 523 c 0
 125 539 134 557 149 569 c 0
 163 581 172 583 204 583 c 2
 652 583 l 1xd8
 620 433 l 2
 614 405 611 397 601 387 c 0
 589 374 572 366 556 366 c 0xe8
 534 366 516 382 516 404 c 0
 516 410 517 420 520 433 c 2
 531 483 l 1
 297 483 l 1
 267 342 l 1
 352 342 l 1
 356 371 362 385 372 395 c 0
 385 408 402 416 417 416 c 0
 440 416 457 400 457 378 c 0
 457 370 457 369 453 349 c 2
 428 236 l 2
 422 208 419 201 409 190 c 0
 397 178 380 170 365 170 c 0
 342 170 325 186 325 207 c 0xd8
EndSplineSet
Validated: 1
EndChar

StartChar: F
Encoding: 70 70 39
Width: 600
Flags: W
HStem: 0 100<46.6988 116 216 348.344> 243 99<267 331> 366 217<553.343 623.917> 483 100<148.699 197 297 553>
LayerCount: 2
Fore
SplineSet
325 206 m 0xd0
 325 214 328 233 331 243 c 1
 246 243 l 1
 216 100 l 1
 315 100 l 2
 335 100 342 99 350 96 c 0
 363 92 372 76 372 61 c 0
 372 44 363 27 349 15 c 0
 335 4 322 0 294 0 c 2
 80 0 l 2
 39 0 23 12 23 40 c 0
 23 56 32 73 46 85 c 0
 61 97 70 100 101 100 c 2
 116 100 l 1
 197 483 l 1
 182 483 l 2
 141 483 125 494 125 523 c 0
 125 539 134 556 148 569 c 1
 163 581 172 583 204 583 c 2
 674 583 l 1xd0
 642 432 l 2
 636 405 633 397 623 387 c 0
 610 374 594 366 578 366 c 0xe0
 556 366 538 382 538 403 c 0
 538 409 540 421 542 432 c 2
 553 483 l 1
 297 483 l 1
 267 342 l 1
 351 342 l 1
 353 349 l 1
 358 375 363 384 372 394 c 0
 384 407 401 415 417 415 c 0
 440 415 457 399 457 377 c 0
 457 369 457 368 452 349 c 2
 428 236 l 2
 423 209 419 200 409 190 c 0
 397 177 380 169 364 169 c 0
 342 169 325 185 325 206 c 0xd0
EndSplineSet
Validated: 1
EndChar

StartChar: G
Encoding: 71 71 40
Width: 600
Flags: W
HStem: -14 100<236.743 463.698> 180 100<355.699 488> 497 100<324.39 521.102>
VStem: 79 102<134.675 316.993> 544 102<405.182 474.528>
LayerCount: 2
Fore
SplineSet
585 280 m 2
 621 280 642 273 642 241 c 0
 642 212 621 189 588 180 c 1
 560 48 l 1
 460 0 407 -14 327 -14 c 0
 257 -14 193 2 149 32 c 0
 103 63 79 115 79 184 c 0
 79 205 81 225 86 246 c 2
 101 317 l 2
 117 393 163 467 228 520 c 0
 292 572 362 597 444 597 c 0
 498 597 544 587 583 565 c 1
 599 589 611 597 630 597 c 0
 652 597 667 582 667 560 c 0
 667 552 667 550 663 531 c 2
 646 453 l 2
 640 426 637 418 627 408 c 0
 615 395 598 387 582 387 c 0
 569 387 556 393 551 402 c 0
 546 409 546 409 544 440 c 0
 542 475 496 497 423 497 c 0
 313 497 223 425 201 317 c 1
 187 253 l 2
 183 234 181 217 181 199 c 0
 181 127 239 86 342 86 c 0
 391 86 431 94 474 111 c 1
 488 180 l 1
 389 180 l 2
 348 180 332 191 332 220 c 0
 332 236 341 254 355 266 c 0
 370 278 379 280 410 280 c 2
 585 280 l 2
EndSplineSet
Validated: 1
EndChar

StartChar: H
Encoding: 72 72 41
Width: 600
Flags: W
HStem: 0 100<55.6534 116 216 263.345 360.699 430 530 568.391> 241 100<267 460> 483 100<297 366.301 463.653 511 611 659.303>
VStem: 155 235<499.137 567.717>
LayerCount: 2
Fore
SplineSet
496 483 m 2
 461 483 440 491 440 523 c 0
 440 539 449 556 463 569 c 0
 477 581 487 583 518 583 c 2
 618 583 l 2
 638 583 645 582 653 579 c 0
 666 575 675 560 675 544 c 0
 675 511 649 486 611 483 c 1
 530 100 l 1
 536 100 l 2
 556 100 562 99 570 96 c 0
 583 92 592 76 592 60 c 0
 592 44 583 27 569 15 c 0
 556 3 543 0 515 0 c 2
 394 0 l 2
 353 0 337 11 337 40 c 0
 337 56 346 73 360 85 c 0
 375 97 384 100 415 100 c 2
 430 100 l 1
 460 241 l 1
 246 241 l 1
 216 100 l 1
 230 100 l 2
 266 100 287 93 287 60 c 0
 287 44 278 27 264 15 c 0
 250 3 238 0 209 0 c 2
 88 0 l 2
 48 0 32 11 32 40 c 0
 32 56 41 73 55 85 c 0
 69 97 79 100 110 100 c 2
 116 100 l 1
 197 483 l 1
 169 485 155 498 155 523 c 0
 155 539 164 556 178 569 c 1
 193 581 202 583 233 583 c 2
 333 583 l 2
 353 583 360 582 368 579 c 0
 381 575 390 560 390 544 c 0
 390 527 381 509 367 498 c 0
 352 486 343 483 312 483 c 2
 297 483 l 1
 267 341 l 1
 481 341 l 1
 511 483 l 1
 496 483 l 2
EndSplineSet
Validated: 1
EndChar

StartChar: I
Encoding: 73 73 42
Width: 600
Flags: W
HStem: 0 100<109.789 272 372 505.345> 483 100<212.196 353 453 608.3>
LayerCount: 2
Fore
SplineSet
453 483 m 1
 372 100 l 1
 472 100 l 2
 492 100 499 99 507 96 c 0
 520 92 529 77 529 61 c 0
 529 44 520 27 506 15 c 0
 492 3 480 0 451 0 c 2
 150 0 l 2
 109 0 93 11 93 40 c 0
 93 56 102 73 116 85 c 0
 131 98 139 100 171 100 c 2
 272 100 l 1
 353 483 l 1
 252 483 l 2
 211 483 196 494 196 523 c 0
 196 539 205 557 219 568 c 0
 234 581 242 583 274 583 c 2
 575 583 l 2
 595 583 602 582 610 579 c 0
 622 575 632 559 632 544 c 0
 632 527 623 509 609 498 c 0
 594 486 584 483 554 483 c 2
 453 483 l 1
EndSplineSet
Validated: 1
EndChar

StartChar: J
Encoding: 74 74 43
Width: 600
Flags: W
HStem: -14 100<198.207 369.298> 483 100<339.699 492 592 703.346>
LayerCount: 2
Fore
SplineSet
670 583 m 2
 707 583 727 576 727 543 c 0
 727 527 718 509 704 498 c 0
 690 486 679 483 649 483 c 2
 592 483 l 1
 529 187 l 2
 515 121 490 83 434 43 c 1
 384 6 324 -14 266 -14 c 0
 208 -14 146 6 64 51 c 1
 98 213 l 2
 104 240 108 249 118 259 c 0
 130 272 147 280 163 280 c 0
 186 280 203 264 203 243 c 0
 203 235 202 232 199 213 c 1
 178 117 l 1
 223 95 255 86 288 86 c 0
 324 86 363 100 391 122 c 0
 417 143 422 152 431 198 c 2
 492 483 l 1
 373 483 l 2
 332 483 316 494 316 523 c 0
 316 539 325 556 339 569 c 1
 354 581 363 583 394 583 c 2
 670 583 l 2
EndSplineSet
Validated: 1
EndChar

StartChar: K
Encoding: 75 75 44
Width: 600
Flags: W
HStem: 0 100<38.7893 115 215 282.39 520.62 590.344> 483 100<148.698 196 296 385.346 613 663.347>
VStem: 426 188<16.0544 92.5543>
LayerCount: 2
Fore
SplineSet
631 583 m 2
 666 583 687 576 687 544 c 0
 687 527 678 510 664 498 c 0
 650 486 640 483 613 483 c 1
 404 330 l 1
 459 298 503 215 525 100 c 1
 557 100 l 2
 577 100 583 99 592 96 c 0
 604 92 614 76 614 61 c 0
 614 45 605 26 591 15 c 0
 577 4 563 0 535 0 c 2
 426 0 l 1
 409 143 365 240 308 259 c 1
 238 208 l 1
 215 100 l 1
 250 100 l 2
 270 100 276 99 284 96 c 0
 297 92 306 76 306 60 c 0
 306 44 297 27 283 15 c 0
 270 4 256 0 228 0 c 2
 79 0 l 2
 38 0 22 12 22 40 c 0
 22 56 31 73 45 85 c 0
 60 98 68 100 100 100 c 2
 115 100 l 1
 196 483 l 1
 181 483 l 2
 140 483 125 494 125 523 c 0
 125 539 134 556 148 569 c 1
 163 581 171 583 203 583 c 2
 352 583 l 2
 389 583 409 576 409 543 c 0
 409 527 400 509 386 498 c 0
 372 486 361 483 331 483 c 2
 296 483 l 1
 265 334 l 1
 475 487 l 1
 459 493 452 503 452 520 c 0
 452 538 461 556 476 568 c 1
 490 581 499 583 530 583 c 2
 631 583 l 2
EndSplineSet
Validated: 1
EndChar

StartChar: L
Encoding: 76 76 45
Width: 600
Flags: W
HStem: 0 100<57.8275 177 277 492> 483 100<168.698 258 358 469.3>
LayerCount: 2
Fore
SplineSet
436 583 m 2
 473 583 493 576 493 543 c 0
 493 527 484 509 470 498 c 0
 455 486 445 483 415 483 c 2
 358 483 l 1
 277 100 l 1
 492 100 l 1
 512 192 l 2
 517 219 521 228 531 238 c 0
 544 252 560 259 576 259 c 0
 599 259 616 243 616 221 c 0
 616 215 615 207 612 192 c 2
 571 0 l 1
 99 0 l 2
 58 0 42 12 42 40 c 0
 42 56 51 74 65 85 c 0
 80 98 88 100 120 100 c 2
 177 100 l 1
 258 483 l 1
 202 483 l 2
 161 483 145 494 145 523 c 0
 145 539 154 557 168 569 c 0
 183 581 191 583 223 583 c 2
 436 583 l 2
EndSplineSet
Validated: 1
EndChar

StartChar: M
Encoding: 77 77 46
Width: 600
Flags: W
HStem: 0 100<5.82747 63 163 230.344 386.789 483 583 610.344> 483 100<671.928 711.512>
LayerCount: 2
Fore
SplineSet
224 389 m 1
 163 100 l 1
 198 100 l 2
 218 100 224 99 232 96 c 0
 245 92 254 76 254 61 c 0
 254 44 245 27 231 15 c 0
 217 4 204 0 176 0 c 2
 47 0 l 2
 6 0 -10 11 -10 40 c 0
 -10 56 -1 74 13 85 c 0
 27 97 38 100 63 100 c 1
 144 483 l 1
 115 486 102 498 102 523 c 0
 102 539 111 557 125 569 c 0
 139 580 149 583 180 583 c 2
 288 583 l 1
 363 286 l 1
 562 583 l 1
 671 583 l 2
 691 583 698 582 706 579 c 0
 719 575 728 560 728 544 c 0
 728 530 722 515 711 504 c 0
 698 490 688 485 664 483 c 1
 583 100 l 1
 618 100 634 88 634 61 c 0
 634 44 625 26 611 15 c 0
 597 4 584 0 556 0 c 2
 427 0 l 2
 386 0 370 11 370 40 c 0
 370 56 379 73 393 85 c 0
 408 98 416 100 448 100 c 2
 483 100 l 1
 544 389 l 1
 380 138 l 1
 289 138 l 1
 224 389 l 1
EndSplineSet
Validated: 1
EndChar

StartChar: N
Encoding: 78 78 47
Width: 600
Flags: W
HStem: 0 100<37.7893 94 194 261.39> 483 100<127.653 175 465.698 533 633 682.346>
LayerCount: 2
Fore
SplineSet
649 583 m 2
 686 583 706 576 706 543 c 0
 706 527 697 510 683 498 c 0
 669 486 658 483 633 483 c 1
 530 0 l 1
 432 0 l 1
 256 394 l 1
 194 100 l 1
 229 100 l 2
 249 100 255 99 263 96 c 0
 276 92 285 77 285 61 c 0
 285 44 276 27 262 15 c 0
 249 4 235 0 207 0 c 2
 78 0 l 2
 37 0 21 11 21 40 c 0
 21 56 30 73 44 85 c 0
 58 97 68 100 94 100 c 1
 175 483 l 1
 160 483 l 2
 119 483 104 494 104 523 c 0
 104 539 113 556 127 568 c 0
 141 580 151 583 182 583 c 2
 296 583 l 1
 471 191 l 1
 533 483 l 1
 498 483 l 2
 457 483 442 494 442 523 c 0
 442 539 451 556 465 569 c 1
 480 581 488 583 519 583 c 2
 649 583 l 2
EndSplineSet
Validated: 1
EndChar

StartChar: O
Encoding: 79 79 48
Width: 600
Flags: W
HStem: -14 100<244.492 401.304> 497 100<322.057 478.686>
VStem: 75 103<158.426 337.08> 546 103<241.56 426.126>
LayerCount: 2
Fore
SplineSet
426 597 m 0
 554 597 649 498 649 366 c 0
 649 270 610 174 541 102 c 0
 472 30 380 -14 297 -14 c 0
 170 -14 75 86 75 220 c 0
 75 312 116 411 182 481 c 0
 250 552 345 597 426 597 c 0
405 497 m 0
 290 497 178 371 178 243 c 0
 178 153 237 86 317 86 c 0
 434 86 546 211 546 342 c 0
 546 431 486 497 405 497 c 0
EndSplineSet
Validated: 1
EndChar

StartChar: P
Encoding: 80 80 49
Width: 600
Flags: W
HStem: 0 100<46.6534 116 216 347.39> 200 100<258 457.529> 483 100<148.699 197 297 485.251>
VStem: 509 108<348.752 460.834>
LayerCount: 2
Fore
SplineSet
237 200 m 1
 216 100 l 1
 314 100 l 2
 334 100 341 99 349 96 c 0
 361 92 371 76 371 61 c 0
 371 45 362 26 348 15 c 0
 335 4 321 0 293 0 c 2
 80 0 l 2
 39 0 23 12 23 40 c 0
 23 56 32 73 46 85 c 0
 60 97 70 100 101 100 c 2
 116 100 l 1
 197 483 l 1
 182 483 l 2
 140 483 125 494 125 523 c 0
 125 539 134 556 148 569 c 1
 163 581 172 583 203 583 c 2
 436 583 l 2
 548 583 617 525 617 431 c 0
 617 384 596 331 558 289 c 0
 502 225 440 200 335 200 c 2
 237 200 l 1
297 483 m 1
 258 300 l 1
 376 300 l 2
 454 300 509 347 509 414 c 0
 509 457 473 483 415 483 c 2
 297 483 l 1
EndSplineSet
Validated: 1
EndChar

StartChar: Q
Encoding: 81 81 50
Width: 600
Flags: W
HStem: -145 100<334.403 491.506> -117 92<210.92 373.567> -33 20G<518 536> -7 92<269 400.546> 497 100<324.081 479.159>
VStem: 75 102<155.582 335.647> 546 103<244.533 425.058>
LayerCount: 2
Fore
SplineSet
269 -7 m 1x9e
 261 -30 l 1
 286 -26 298 -25 312 -25 c 0x5e
 339 -25 363 -29 394 -38 c 0
 416 -44 422 -45 434 -45 c 0
 449 -45 458 -42 480 -30 c 0
 506 -15 512 -13 524 -13 c 0
 548 -13 565 -29 565 -52 c 0
 565 -71 554 -90 536 -102 c 0
 496 -129 450 -145 413 -145 c 0xbe
 389 -145 384 -144 340 -125 c 0
 330 -121 308 -117 295 -117 c 0x5e
 273 -117 206 -128 163 -138 c 0
 151 -141 141 -145 134 -145 c 0
 113 -145 96 -125 96 -104 c 0
 96 -83 103 -71 125 -53 c 2
 200 7 l 1
 145 43 119 67 102 101 c 0
 85 135 75 177 75 220 c 0
 75 413 246 597 427 597 c 0
 555 597 649 497 649 363 c 0
 649 243 586 130 476 53 c 0
 416 10 360 -7 286 -7 c 0
 284 -7 277 -8 269 -7 c 1x9e
405 497 m 0
 290 497 177 371 177 242 c 0
 177 152 237 85 317 85 c 0
 434 85 546 210 546 342 c 0
 546 431 486 497 405 497 c 0
EndSplineSet
Validated: 1
EndChar

StartChar: R
Encoding: 82 82 51
Width: 600
Flags: W
HStem: 0 100<46.6988 116 216 283.39 552.094 607.39> 222 100<263 364.099> 483 100<149.698 197 297 482.182>
VStem: 504 108<372.37 461.965>
LayerCount: 2
Fore
SplineSet
251 100 m 2
 287 100 307 92 307 60 c 0
 307 44 298 27 284 15 c 0
 271 4 257 0 229 0 c 2
 80 0 l 2
 39 0 23 11 23 40 c 0
 23 56 32 73 46 85 c 0
 61 97 70 100 101 100 c 2
 116 100 l 1
 197 483 l 1
 182 483 l 2
 141 483 126 494 126 523 c 0
 126 539 135 556 149 569 c 1
 164 581 172 583 204 583 c 2
 427 583 l 2
 542 583 612 527 612 437 c 0
 612 361 564 301 469 254 c 1
 506 214 534 166 561 100 c 1
 574 100 l 2
 616 100 631 90 631 60 c 0
 631 44 622 27 608 15 c 0
 595 4 581 0 553 0 c 2
 475 0 l 1
 444 98 377 207 338 222 c 1
 242 222 l 1
 216 100 l 1
 251 100 l 2
263 322 m 1
 339 322 l 2
 430 322 504 366 504 420 c 0
 504 458 466 483 409 483 c 2
 297 483 l 1
 263 322 l 1
EndSplineSet
Validated: 1
EndChar

StartChar: S
Encoding: 83 83 52
Width: 600
Flags: W
HStem: -14 100<228.663 415.618> 0 21G<100.5 120> 497 100<319.345 483.338>
VStem: 90 104<117.25 180.77> 167 106<370.088 457.075> 470 106<128.453 209.822>
LayerCount: 2
Fore
SplineSet
630 531 m 2xac
 611 443 l 2
 605 415 601 407 592 397 c 0
 579 384 562 376 547 376 c 0
 534 376 521 382 514 391 c 0
 509 398 509 398 508 430 c 1
 508 470 466 497 404 497 c 0
 334 497 273 457 273 411 c 0
 273 396 281 380 293 370 c 0
 307 358 318 355 394 340 c 0
 450 329 478 321 504 309 c 0
 549 288 576 247 576 199 c 0
 576 77 461 -14 306 -14 c 0xac
 252 -14 202 -1 158 25 c 1
 137 6 128 0 112 0 c 0
 89 0 72 17 72 38 c 0
 72 44 74 55 76 67 c 2
 90 133 l 2
 100 178 120 199 155 199 c 0
 168 199 180 194 187 185 c 0
 192 178 192 178 194 151 c 0x74
 197 115 254 86 319 86 c 0
 402 86 470 125 470 173 c 0
 470 187 463 200 450 210 c 0
 434 223 414 229 345 242 c 1
 281 253 251 263 223 281 c 0
 189 304 167 344 167 385 c 0
 167 501 284 597 425 597 c 0
 476 597 518 586 548 564 c 1
 564 589 575 597 594 597 c 0
 618 597 634 582 634 561 c 0
 634 554 633 549 630 531 c 2xac
EndSplineSet
Validated: 1
EndChar

StartChar: T
Encoding: 84 84 53
Width: 600
Flags: W
HStem: 0 100<144.611 270 370 469.344> 483 100<245 352 452 561>
LayerCount: 2
Fore
SplineSet
436 100 m 2
 472 100 493 93 493 61 c 0
 493 44 484 27 470 15 c 0
 456 4 442 0 415 0 c 2
 184 0 l 2
 144 0 128 12 128 40 c 0
 128 56 137 73 151 85 c 0
 166 98 174 100 206 100 c 2
 270 100 l 1
 352 483 l 1
 245 483 l 1
 225 390 l 2
 219 363 216 355 206 345 c 0
 193 332 176 324 161 324 c 0
 139 324 121 341 121 361 c 0
 121 368 122 378 125 390 c 2
 166 583 l 1
 682 583 l 1
 641 390 l 2
 635 362 632 355 622 345 c 0
 610 332 593 324 577 324 c 0
 554 324 537 340 537 361 c 0
 537 368 538 377 541 390 c 2
 561 483 l 1
 452 483 l 1
 370 100 l 1
 436 100 l 2
EndSplineSet
Validated: 1
EndChar

StartChar: U
Encoding: 85 85 54
Width: 600
Flags: W
HStem: -14 100<248.328 398.929> 483 100<146.699 174 274 363.346 464.698 532 632 689.858>
VStem: 110 101<122.186 227.889>
LayerCount: 2
Fore
SplineSet
705 544 m 0
 705 507 674 483 632 483 c 1
 573 205 l 2
 547 81 427 -14 298 -14 c 0
 189 -14 110 59 110 158 c 0
 110 173 112 188 115 205 c 2
 174 483 l 1
 138 483 123 495 123 523 c 0
 123 539 132 557 146 569 c 0
 161 581 170 583 201 583 c 2
 331 583 l 2
 353 583 357 583 365 579 c 1
 378 575 387 559 387 544 c 0
 387 527 378 509 364 498 c 0
 350 486 339 483 309 483 c 2
 274 483 l 1
 213 196 l 2
 212 189 211 182 211 176 c 0
 211 124 257 86 319 86 c 0
 390 86 458 135 471 196 c 2
 532 483 l 1
 497 483 l 2
 456 483 441 494 441 523 c 0
 441 539 450 556 464 569 c 1
 479 581 487 583 519 583 c 2
 648 583 l 2
 668 583 675 582 683 579 c 0
 696 575 705 560 705 544 c 0
EndSplineSet
Validated: 1
EndChar

StartChar: V
Encoding: 86 86 55
Width: 600
Flags: W
HStem: 0 21G<244.859 359.754> 483 100<114.699 149 261 334.347 492.698 550 655 700.487>
LayerCount: 2
Fore
SplineSet
302 583 m 2
 338 583 358 576 358 543 c 0
 358 527 349 510 335 498 c 0
 321 486 311 483 280 483 c 2
 261 483 l 1
 333 144 l 1
 550 483 l 1
 525 483 l 2
 505 483 499 484 491 487 c 0
 478 492 469 507 469 523 c 0
 469 539 478 557 492 569 c 0
 507 581 515 583 547 583 c 2
 678 583 l 2
 714 583 735 576 735 543 c 0
 735 523 721 501 701 490 c 0
 690 484 682 483 655 483 c 1
 347 0 l 1
 249 0 l 1
 149 483 l 1
 137 483 l 1
 106 485 91 497 91 523 c 0
 91 539 100 557 114 569 c 0
 129 581 138 583 169 583 c 2
 302 583 l 2
EndSplineSet
Validated: 1
EndChar

StartChar: W
Encoding: 87 87 56
Width: 600
Flags: W
HStem: 0 21G<98 219.83 391.473 510.749> 417 20G<334.027 450.478> 483 100<242 345.3 483.653 570 667 709.125>
LayerCount: 2
Fore
SplineSet
312 583 m 2
 348 583 369 576 369 543 c 0
 369 527 360 509 346 498 c 0
 331 486 320 483 290 483 c 2
 242 483 l 1
 221 211 l 1
 345 437 l 1
 448 437 l 1
 476 211 l 1
 570 483 l 1
 516 483 l 2
 475 483 460 494 460 523 c 0
 460 539 469 556 483 569 c 0
 497 581 506 583 538 583 c 2
 668 583 l 2
 688 583 695 582 703 579 c 0
 716 575 725 560 725 544 c 0
 725 513 702 489 667 483 c 1
 504 0 l 1
 394 0 l 1
 359 277 l 1
 209 0 l 1
 98 0 l 1
 139 483 l 1
 114 486 102 498 102 519 c 0
 102 537 111 556 126 569 c 0
 141 581 149 583 180 583 c 2
 312 583 l 2
EndSplineSet
Validated: 1
EndChar

StartChar: X
Encoding: 88 88 57
Width: 600
Flags: W
HStem: 0 100<34.2288 89 219 240.345 372.789 423 552 577.345> 483 100<154.653 179 623 676.855>
VStem: 131 226<499.959 567.717> 467 225<499.081 567.717>
LayerCount: 2
Fore
SplineSet
427 297 m 1
 552 100 l 1
 585 100 601 87 601 60 c 0
 601 44 592 27 578 15 c 0
 564 3 552 0 523 0 c 2
 413 0 l 2
 372 0 356 11 356 40 c 0
 356 53 362 68 373 79 c 1
 386 94 398 98 423 100 c 1
 347 220 l 1
 219 100 l 1
 249 99 264 86 264 60 c 0
 264 44 255 26 241 15 c 0
 227 3 215 0 186 0 c 2
 76 0 l 2
 35 0 19 11 19 40 c 0
 19 75 48 100 89 100 c 1
 298 298 l 1
 179 483 l 1
 146 484 131 497 131 523 c 0
 131 539 140 557 154 569 c 0
 168 580 178 583 209 583 c 2
 300 583 l 2
 320 583 326 582 335 579 c 0
 347 575 357 560 357 544 c 0
 357 517 342 499 308 483 c 1
 379 375 l 1
 495 483 l 1
 472 496 467 504 467 523 c 0
 467 539 476 556 490 569 c 1
 505 580 514 583 545 583 c 2
 635 583 l 2
 655 583 662 582 670 579 c 0
 683 575 692 560 692 544 c 0
 692 509 663 484 623 483 c 1
 427 297 l 1
EndSplineSet
Validated: 1
EndChar

StartChar: Y
Encoding: 89 89 58
Width: 600
Flags: W
HStem: 0 100<143.827 272 372 470.344> 483 100<149.679 188 617 670.345>
VStem: 134 224<499.161 566.948> 467 227<499.139 567.77>
LayerCount: 2
Fore
SplineSet
402 245 m 1
 372 100 l 1
 437 100 l 2
 457 100 464 99 472 96 c 0
 485 92 494 76 494 61 c 0
 494 45 485 26 471 15 c 0
 457 4 444 0 416 0 c 2
 185 0 l 2
 144 0 128 12 128 40 c 0
 128 56 137 74 151 85 c 0
 166 98 175 100 206 100 c 2
 272 100 l 1
 302 245 l 1
 188 483 l 1
 182 483 l 2
 151 483 134 497 134 523 c 0
 134 539 143 557 157 568 c 0
 172 581 181 583 212 583 c 2
 302 583 l 2
 322 583 328 582 336 579 c 0
 349 575 358 560 358 544 c 0
 358 517 341 496 308 483 c 1
 374 348 l 1
 497 483 l 1
 475 492 467 503 467 523 c 0
 467 539 476 556 490 569 c 1
 504 580 514 583 545 583 c 2
 638 583 l 2
 658 583 664 582 672 579 c 0
 685 575 694 559 694 544 c 0
 694 527 685 510 671 498 c 0
 657 486 645 483 620 483 c 2
 617 483 l 1
 402 245 l 1
EndSplineSet
Validated: 1
EndChar

StartChar: Z
Encoding: 90 90 59
Width: 600
Flags: W
HStem: 0 100<222 448> 483 100<299 477>
LayerCount: 2
Fore
SplineSet
222 100 m 1
 448 100 l 1
 464 172 l 2
 469 198 474 208 483 218 c 0
 495 230 512 238 528 238 c 0
 551 238 568 222 568 200 c 0
 568 192 568 191 564 172 c 2
 527 0 l 1
 73 0 l 1
 94 100 l 1
 477 483 l 1
 299 483 l 1
 284 413 l 2
 278 387 274 377 265 368 c 0
 252 355 235 347 219 347 c 0
 197 347 179 364 179 384 c 0
 179 392 179 394 184 413 c 2
 220 583 l 1
 628 583 l 1
 607 486 l 1
 222 100 l 1
EndSplineSet
Validated: 1
EndChar

StartChar: bracketleft
Encoding: 91 91 60
Width: 600
Flags: W
HStem: -148 100<340 432.345> 527 100<462 574.346>
LayerCount: 2
Fore
SplineSet
399 -48 m 2
 435 -48 456 -55 456 -87 c 0
 456 -104 447 -121 433 -133 c 0
 419 -145 407 -148 378 -148 c 2
 219 -148 l 1
 384 627 l 1
 542 627 l 2
 562 627 568 627 576 624 c 0
 589 619 598 604 598 588 c 0
 598 572 589 554 575 542 c 0
 561 530 550 527 520 527 c 2
 462 527 l 1
 340 -48 l 1
 399 -48 l 2
EndSplineSet
Validated: 1
EndChar

StartChar: backslash
Encoding: 92 92 61
Width: 600
Flags: W
VStem: 219 285
LayerCount: 2
Fore
SplineSet
322 651 m 2
 499 -27 l 2
 502 -38 504 -48 504 -54 c 0
 504 -84 474 -113 443 -113 c 0
 418 -113 408 -103 400 -69 c 2
 224 610 l 2
 220 623 219 630 219 636 c 0
 219 666 249 695 280 695 c 0
 304 695 314 685 322 651 c 2
EndSplineSet
Validated: 1
EndChar

StartChar: bracketright
Encoding: 93 93 62
Width: 600
Flags: W
HStem: -148 100<127.654 240> 527 100<269.655 362>
LayerCount: 2
Fore
SplineSet
303 527 m 2
 267 527 246 534 246 566 c 0
 246 583 255 600 269 612 c 0
 283 624 295 627 324 627 c 2
 483 627 l 1
 318 -148 l 1
 160 -148 l 2
 140 -148 134 -147 126 -144 c 0
 113 -139 104 -125 104 -109 c 0
 104 -93 113 -75 127 -63 c 0
 141 -51 152 -48 182 -48 c 2
 240 -48 l 1
 362 527 l 1
 303 527 l 2
EndSplineSet
Validated: 1
EndChar

StartChar: asciicircum
Encoding: 94 94 63
Width: 600
Flags: W
HStem: 325 327
LayerCount: 2
Fore
SplineSet
404 494 m 1
 257 356 l 2
 229 330 221 325 202 325 c 0
 178 325 161 342 161 365 c 0
 161 384 168 395 193 419 c 2
 438 652 l 1
 584 419 l 2
 595 402 598 395 598 384 c 0
 598 355 567 325 536 325 c 0
 517 325 510 330 494 355 c 2
 404 494 l 1
EndSplineSet
Validated: 1
EndChar

StartChar: underscore
Encoding: 95 95 64
Width: 600
Flags: W
HStem: -125 50<-61 564>
LayerCount: 2
Fore
SplineSet
564 -75 m 1
 564 -125 l 1
 -61 -125 l 1
 -61 -75 l 1
 564 -75 l 1
EndSplineSet
Validated: 1
EndChar

StartChar: grave
Encoding: 96 96 65
Width: 600
Flags: W
HStem: 348 254<470.113 509>
VStem: 469 65<351.767 372>
LayerCount: 2
Fore
SplineSet
509 602 m 1
 534 395 l 1
 534 387 l 2
 534 365 517 348 496 348 c 0
 483 348 477 354 469 372 c 2
 377 602 l 1
 509 602 l 1
EndSplineSet
Validated: 1
EndChar

StartChar: a
Encoding: 97 97 66
Width: 600
Flags: W
HStem: -16 100<178.859 348.949> 0 100<510 559.391> 196 92<226.056 426.926> 350 100<234.864 447.557>
VStem: 65 109<93.8371 153.748> 453 104<279.906 340.261>
LayerCount: 2
Fore
SplineSet
388 0 m 1x7c
 393 23 l 1
 340 -2 278 -16 219 -16 c 0xbc
 130 -16 65 32 65 98 c 0
 65 127 79 159 105 190 c 0
 158 253 244 288 346 288 c 0
 378 288 408 285 447 278 c 1
 453 301 l 2
 454 305 453 305 453 311 c 0
 453 338 426 350 369 350 c 0
 337 350 295 344 249 333 c 0
 232 329 218 327 207 327 c 0
 185 327 169 343 169 366 c 0
 169 388 182 408 202 417 c 0
 236 433 334 450 389 450 c 0
 493 450 557 407 557 337 c 0
 557 324 556 314 553 302 c 2
 510 100 l 1
 527 100 l 2
 547 100 553 99 561 96 c 0
 574 92 583 77 583 61 c 0
 583 44 574 27 560 15 c 0
 547 3 534 0 505 0 c 2
 388 0 l 1x7c
418 135 m 1
 428 185 l 1
 390 192 354 196 320 196 c 0
 271 196 230 182 198 156 c 0
 182 142 174 130 174 118 c 0
 174 99 203 84 241 84 c 0
 296 84 355 101 418 135 c 1
EndSplineSet
Validated: 1
EndChar

StartChar: b
Encoding: 98 98 67
Width: 600
Flags: W
HStem: -14 100<260.163 431.602> 0 100<18.0877 96> 351 100<310.722 479.07> 524 100<136.653 186>
VStem: 520 103<173.097 309.45>
LayerCount: 2
Fore
SplineSet
307 624 m 1x78
 259 401 l 1
 309 435 360 451 418 451 c 0
 479 451 528 437 560 409 c 1
 600 376 623 324 623 269 c 0
 623 201 592 129 541 77 c 0
 481 16 409 -14 321 -14 c 0xb8
 263 -14 226 -1 182 35 c 1
 174 0 l 1
 58 0 l 2
 18 0 0 11 0 40 c 0
 0 56 11 73 25 85 c 0
 39 97 49 100 80 100 c 2
 96 100 l 1
 186 524 l 1
 170 524 l 2
 128 524 113 535 113 564 c 0
 113 580 122 598 136 610 c 0
 150 621 160 624 191 624 c 2
 307 624 l 1x78
395 351 m 0
 337 351 291 329 255 286 c 0
 231 258 218 224 218 193 c 0
 218 126 264 86 343 86 c 0
 400 86 448 108 483 151 c 0
 506 179 520 213 520 244 c 0
 520 279 505 310 478 330 c 0
 460 344 431 351 395 351 c 0
EndSplineSet
Validated: 1
EndChar

StartChar: c
Encoding: 99 99 68
Width: 600
Flags: W
HStem: -16 100<236.185 475.246> 350 100<291.55 480.816>
VStem: 93 102<120.425 255.587> 501 105<261.47 324.577>
LayerCount: 2
Fore
SplineSet
622 384 m 2
 606 307 l 2
 600 282 596 271 586 261 c 0
 574 249 557 241 541 241 c 0
 529 241 515 247 508 255 c 0
 502 262 501 268 501 289 c 0
 501 306 497 316 486 325 c 1
 463 341 429 350 385 350 c 0
 321 350 271 327 234 282 c 0
 210 252 195 213 195 178 c 0
 195 115 245 84 348 84 c 0
 428 84 464 94 512 128 c 0
 523 136 533 140 545 140 c 0
 568 140 585 123 585 99 c 0
 585 79 570 57 544 39 c 0
 491 2 417 -16 317 -16 c 0
 244 -16 189 -2 154 26 c 0
 115 56 93 104 93 156 c 0
 93 223 124 296 174 350 c 0
 234 415 314 450 407 450 c 0
 463 450 509 440 544 420 c 1
 554 441 567 450 588 450 c 0
 612 450 626 436 626 412 c 0
 626 405 625 400 622 384 c 2
EndSplineSet
Validated: 1
EndChar

StartChar: d
Encoding: 100 100 69
Width: 600
Flags: W
HStem: -14 100<219.633 386.387> 0 100<553 601.346> 351 100<265.941 439.336> 525 99<493.699 543>
VStem: 74 103<127.591 263.903>
LayerCount: 2
Fore
SplineSet
527 525 m 2xb8
 491 525 470 532 470 565 c 0
 470 580 479 598 493 610 c 0
 508 622 517 624 548 624 c 2
 664 624 l 1
 553 100 l 1
 569 100 l 2
 605 100 625 93 625 60 c 0
 625 44 616 26 602 15 c 0
 588 3 577 0 547 0 c 2
 431 0 l 1x78
 439 35 l 1
 379 -1 336 -14 278 -14 c 0
 218 -14 170 0 137 28 c 0
 97 61 74 113 74 168 c 0
 74 236 105 308 156 360 c 0
 217 422 288 451 378 451 c 0
 437 451 481 435 517 401 c 1
 543 525 l 1
 527 525 l 2xb8
354 351 m 0
 297 351 250 329 214 286 c 0
 191 258 177 224 177 193 c 0
 177 126 224 86 302 86 c 0xb8
 361 86 408 108 444 151 c 0
 467 179 481 213 481 244 c 0
 481 279 466 310 439 330 c 0
 421 344 392 351 354 351 c 0
EndSplineSet
Validated: 1
EndChar

StartChar: e
Encoding: 101 101 70
Width: 600
Flags: W
HStem: -16 100<222.91 467.58> 172 88<200 495> 350 100<273.407 450.758>
VStem: 74 104<128.32 172>
LayerCount: 2
Fore
SplineSet
587 172 m 1
 178 172 l 1
 189 112 237 84 325 84 c 0
 369 84 398 89 493 112 c 0
 506 115 519 117 528 117 c 0
 551 117 566 101 566 79 c 0
 566 57 554 39 533 28 c 0
 490 5 374 -16 294 -16 c 0
 158 -16 74 55 74 169 c 0
 74 318 221 450 387 450 c 0
 517 450 600 375 600 259 c 0
 600 243 598 227 595 211 c 2
 587 172 l 1
200 260 m 1
 495 260 l 1
 490 314 439 350 367 350 c 0
 293 350 228 315 200 260 c 1
EndSplineSet
Validated: 1
EndChar

StartChar: f
Encoding: 102 102 71
Width: 600
Flags: W
HStem: 0 100<100.611 220 320 492.344> 337 100<189.699 270 392 575.345> 509 98<526.937 674.768> 523 101<414.38 651.287>
LayerCount: 2
Fore
SplineSet
370 337 m 1xd0
 320 100 l 1
 459 100 l 2
 479 100 486 99 494 96 c 0
 507 92 516 76 516 61 c 0
 516 44 507 27 493 15 c 0
 479 4 466 0 438 0 c 2
 140 0 l 2
 100 0 84 12 84 40 c 0
 84 56 93 73 107 85 c 0
 122 98 130 100 162 100 c 2
 220 100 l 1
 270 337 l 1
 224 337 l 2
 182 337 166 348 166 377 c 0
 166 393 175 411 189 423 c 0
 204 435 213 437 245 437 c 2
 291 437 l 1
 299 474 l 2
 319 566 405 624 525 624 c 0xd0
 566 624 628 616 658 607 c 0
 680 601 691 589 691 570 c 0
 691 539 662 509 632 509 c 0xe0
 626 509 617 510 605 512 c 0
 570 519 525 523 494 523 c 0
 437 523 407 507 399 474 c 1
 392 437 l 1
 542 437 l 2
 563 437 569 436 577 433 c 0
 590 429 599 414 599 397 c 0
 599 381 590 364 576 352 c 0
 562 340 550 337 521 337 c 2
 370 337 l 1xd0
EndSplineSet
Validated: 1
EndChar

StartChar: g
Encoding: 103 103 72
Width: 600
Flags: W
HStem: -205 100<121.827 362.734> -14 100<218.437 364.867> 337 100<581 651.346> 351 100<267.603 416.854>
VStem: 73 103<128.237 264.16>
LayerCount: 2
Fore
SplineSet
619 437 m 2xe8
 655 437 675 430 675 397 c 0
 675 381 666 363 652 351 c 0xd8
 638 339 627 337 597 337 c 2
 581 337 l 1xe8
 505 -20 l 2
 483 -126 384 -205 274 -205 c 2
 163 -205 l 2
 122 -205 106 -194 106 -165 c 0
 106 -149 115 -131 129 -120 c 0
 144 -107 153 -105 184 -105 c 2
 293 -105 l 2
 350 -105 394 -72 405 -20 c 2
 417 35 l 1
 363 1 317 -14 265 -14 c 0
 151 -14 73 60 73 168 c 0
 73 318 211 451 365 451 c 0xd8
 418 451 463 434 495 401 c 1
 502 437 l 1
 619 437 l 2xe8
345 351 m 0
 259 351 176 274 176 193 c 0
 176 130 223 86 289 86 c 0
 377 86 459 163 459 244 c 0
 459 307 412 351 345 351 c 0
EndSplineSet
Validated: 1
EndChar

StartChar: h
Encoding: 104 104 73
Width: 600
Flags: W
HStem: 0 100<56.6988 117 217 256.344 369.7 431 530 569.345> 350 100<337.618 459.93> 524 100<157.653 207>
VStem: 471 103<254.727 335.507>
LayerCount: 2
Fore
SplineSet
328 624 m 1
 278 389 l 1
 327 430 376 450 428 450 c 0
 516 450 574 401 574 325 c 0
 574 312 573 298 570 284 c 2
 530 100 l 1
 536 100 l 2
 557 100 563 99 571 96 c 0
 584 91 593 76 593 60 c 0
 593 44 584 27 570 15 c 0
 556 3 544 0 515 0 c 2
 403 0 l 2
 362 0 346 11 346 40 c 0
 346 56 355 73 369 85 c 0
 384 97 394 100 425 100 c 2
 431 100 l 1
 467 271 l 2
 470 283 471 294 471 302 c 0
 471 331 442 350 396 350 c 0
 348 350 324 339 256 283 c 1
 217 100 l 1
 223 100 l 2
 243 100 249 99 258 96 c 0
 270 91 280 76 280 60 c 0
 280 44 271 26 257 15 c 0
 243 3 230 0 201 0 c 2
 89 0 l 2
 49 0 33 11 33 40 c 0
 33 56 42 73 56 85 c 0
 71 97 80 100 111 100 c 2
 117 100 l 1
 207 524 l 1
 191 524 l 2
 149 524 134 535 134 564 c 0
 134 580 143 598 157 610 c 0
 171 621 181 624 212 624 c 2
 328 624 l 1
EndSplineSet
Validated: 1
EndChar

StartChar: i
Encoding: 105 105 74
Width: 600
Flags: W
HStem: 0 100<88.7893 272 372 526.344> 337 100<201.991 322> 518 106<351 446>
LayerCount: 2
Fore
SplineSet
443 437 m 1
 372 100 l 1
 493 100 l 2
 513 100 520 99 528 96 c 0
 541 92 550 76 550 60 c 0
 550 44 541 27 527 15 c 0
 513 4 500 0 472 0 c 2
 129 0 l 2
 88 0 72 11 72 40 c 0
 72 56 81 73 95 85 c 0
 110 98 118 100 150 100 c 2
 272 100 l 1
 322 337 l 1
 244 337 l 2
 202 337 186 348 186 377 c 0
 186 393 195 411 209 422 c 0
 224 435 233 437 265 437 c 2
 443 437 l 1
469 624 m 1
 446 518 l 1
 328 518 l 1
 351 624 l 1
 469 624 l 1
EndSplineSet
Validated: 1
EndChar

StartChar: j
Encoding: 106 106 75
Width: 600
Flags: W
HStem: -205 100<106.699 341.298> 337 100<224.699 460> 518 106<443 540>
LayerCount: 2
Fore
SplineSet
460 337 m 1
 258 337 l 2
 217 337 201 348 201 377 c 0
 201 393 210 410 224 422 c 0
 239 435 248 437 279 437 c 2
 581 437 l 1
 484 -20 l 2
 462 -125 362 -205 253 -205 c 2
 140 -205 l 2
 99 -205 83 -194 83 -165 c 0
 83 -149 92 -132 106 -120 c 0
 121 -107 130 -105 161 -105 c 2
 271 -105 l 2
 329 -105 373 -72 384 -20 c 2
 460 337 l 1
563 624 m 1
 540 518 l 1
 421 518 l 1
 443 624 l 1
 563 624 l 1
EndSplineSet
Validated: 1
EndChar

StartChar: k
Encoding: 107 107 76
Width: 600
Flags: W
HStem: 0 100<65.6534 136 492 558.344> 337 100<501 582.3> 524 100<176.654 226>
LayerCount: 2
Fore
SplineSet
525 100 m 2
 561 100 582 93 582 60 c 0
 582 44 573 27 559 15 c 0
 545 3 532 0 504 0 c 2
 386 0 l 2
 345 0 329 11 329 40 c 0
 329 57 336 71 354 87 c 1
 270 178 l 1
 249 164 l 1
 215 0 l 1
 98 0 l 2
 58 0 42 11 42 40 c 0
 42 56 51 73 65 85 c 0
 79 97 89 100 120 100 c 2
 136 100 l 1
 226 524 l 1
 210 524 l 2
 175 524 153 531 153 563 c 0
 153 580 162 598 176 610 c 0
 190 621 201 624 231 624 c 2
 347 624 l 1
 275 287 l 1
 367 350 l 1
 361 361 359 366 359 376 c 0
 359 393 367 410 382 422 c 0
 396 434 407 437 437 437 c 2
 549 437 l 2
 590 437 606 426 606 398 c 0
 606 381 597 364 583 352 c 0
 568 340 558 337 528 337 c 2
 501 337 l 1
 362 241 l 1
 492 100 l 1
 525 100 l 2
EndSplineSet
Validated: 1
EndChar

StartChar: l
Encoding: 108 108 77
Width: 600
Flags: W
HStem: 0 100<88.7893 272 372 526.344> 524 100<250.653 362>
LayerCount: 2
Fore
SplineSet
483 624 m 1
 372 100 l 1
 493 100 l 2
 513 100 520 99 528 96 c 0
 541 92 550 76 550 60 c 0
 550 44 541 27 527 15 c 0
 513 4 500 0 472 0 c 2
 129 0 l 2
 88 0 72 11 72 40 c 0
 72 56 81 73 95 85 c 0
 110 98 118 100 150 100 c 2
 272 100 l 1
 362 524 l 1
 283 524 l 2
 267 524 256 525 249 528 c 0
 236 532 226 548 226 564 c 0
 226 580 235 598 250 610 c 0
 264 621 274 624 305 624 c 2
 483 624 l 1
EndSplineSet
Validated: 1
EndChar

StartChar: m
Encoding: 109 109 78
Width: 600
Flags: W
HStem: 0 100<6.71924 63 163 190.344 374 400.344 584 611.344> 350 100<253.168 341.5 450.268 530.443> 417 20G<125.5 234>
VStem: -9 223<16.1903 84.1082> 531 104<238.109 349.674>
LayerCount: 2
Fore
SplineSet
234 437 m 1xb8
 229 413 l 1
 270 441 292 450 322 450 c 0
 361 450 391 434 413 401 c 1
 452 435 487 450 527 450 c 0
 590 450 634 409 634 350 c 0
 634 337 633 330 631 319 c 2
 584 100 l 1
 618 100 635 87 635 60 c 0
 635 44 626 27 612 15 c 0
 598 3 585 0 557 0 c 2
 463 0 l 1
 531 311 l 2
 533 318 531 324 531 330 c 0
 530 343 521 350 503 350 c 0
 476 350 459 341 417 305 c 1
 374 100 l 1
 407 100 424 87 424 60 c 0
 424 44 415 27 401 15 c 0
 387 3 374 0 346 0 c 2
 252 0 l 1
 318 311 l 2
 320 318 321 326 321 329 c 0
 321 343 311 350 293 350 c 0xd8
 265 350 243 339 206 305 c 1
 163 100 l 1
 197 100 214 87 214 60 c 0
 214 44 205 27 191 15 c 0
 177 3 164 0 136 0 c 2
 48 0 l 2
 7 0 -9 11 -9 40 c 0
 -9 75 21 100 63 100 c 1
 113 337 l 1
 79 337 62 350 62 377 c 0
 62 393 71 410 86 422 c 0
 100 434 110 437 141 437 c 2
 234 437 l 1xb8
EndSplineSet
Validated: 1
EndChar

StartChar: n
Encoding: 110 110 79
Width: 600
Flags: W
HStem: 0 100<56.6534 117 217 255.345 382.654 432 531 559.344> 350 100<336.771 460.95> 417 20G<178.5 288>
VStem: 359 224<16.1903 83.7315> 472 103<253.045 338.105>
LayerCount: 2
Fore
SplineSet
288 437 m 1xa8
 278 389 l 1
 336 435 373 450 428 450 c 0
 516 450 575 401 575 328 c 0xc8
 575 312 573 298 570 282 c 2
 531 100 l 1
 566 100 583 87 583 60 c 0
 583 44 574 27 560 15 c 0
 546 3 533 0 505 0 c 2
 416 0 l 2
 375 0 359 11 359 40 c 0xd0
 359 56 368 73 382 85 c 0
 396 97 407 100 432 100 c 1
 469 278 l 2
 471 287 472 294 472 301 c 0
 472 333 444 350 394 350 c 0xc8
 348 350 313 333 255 282 c 1
 217 100 l 1
 223 100 l 2
 243 100 249 99 257 96 c 0
 270 91 279 76 279 60 c 0
 279 44 270 27 256 15 c 0
 242 3 230 0 201 0 c 2
 89 0 l 2
 49 0 33 11 33 40 c 0
 33 56 42 73 56 85 c 0
 70 97 80 100 111 100 c 2
 117 100 l 1
 167 337 l 1
 132 337 115 350 115 377 c 0
 115 393 124 411 138 422 c 0
 153 434 163 437 194 437 c 2
 288 437 l 1xa8
EndSplineSet
Validated: 1
EndChar

StartChar: o
Encoding: 111 111 80
Width: 600
Flags: W
HStem: -16 100<234.898 409.069> 350 100<282.325 456.29>
VStem: 84 102<131.624 262.592> 507 102<172.93 302.089>
LayerCount: 2
Fore
SplineSet
399 450 m 0
 523 450 609 372 609 260 c 0
 609 115 460 -16 297 -16 c 0
 169 -16 84 60 84 174 c 0
 84 231 111 295 158 346 c 0
 216 410 308 450 399 450 c 0
376 350 m 0
 274 350 186 277 186 192 c 0
 186 129 241 84 318 84 c 0
 419 84 507 158 507 242 c 0
 507 305 452 350 376 350 c 0
EndSplineSet
Validated: 1
EndChar

StartChar: p
Encoding: 112 112 81
Width: 600
Flags: W
HStem: -205 100<-18.3466 52 152 242.346> 10 100<261.344 438.114> 337 100<96.6534 146> 350 100<318.58 481.816>
VStem: 522 101<186.451 309.824>
LayerCount: 2
Fore
SplineSet
210 -105 m 2xd8
 245 -105 266 -112 266 -144 c 0
 266 -161 257 -178 243 -190 c 0
 229 -202 218 -205 188 -205 c 2
 14 -205 l 2
 -26 -205 -42 -194 -42 -165 c 0
 -42 -149 -33 -132 -19 -120 c 0
 -5 -108 5 -105 36 -105 c 2
 52 -105 l 1
 146 337 l 1
 129 337 l 2
 88 337 73 348 73 377 c 0
 73 393 82 410 96 422 c 0
 110 434 120 437 151 437 c 2
 267 437 l 1xe8
 257 392 l 1
 315 434 361 450 423 450 c 0
 545 450 623 379 623 269 c 0
 623 127 490 10 329 10 c 0
 272 10 231 27 188 66 c 1
 152 -105 l 1
 210 -105 l 2xd8
398 350 m 0xd8
 301 350 225 290 221 211 c 0
 221 210 221 209 221 208 c 0
 221 184 233 156 251 139 c 1
 273 120 304 110 346 110 c 0
 387 110 423 120 453 139 c 0
 494 166 522 211 522 252 c 0
 522 312 473 350 398 350 c 0xd8
EndSplineSet
Validated: 1
EndChar

StartChar: q
Encoding: 113 113 82
Width: 600
Flags: W
HStem: -205 100<295.654 408 508 557.345> 10 100<221.782 383.006> 337 100<602 672.346> 350 100<261.508 441.637>
VStem: 75 104<149.358 273.302>
LayerCount: 2
Fore
SplineSet
524 -105 m 2xe8
 560 -105 581 -113 581 -145 c 0
 581 -161 572 -178 558 -190 c 0
 544 -202 532 -205 503 -205 c 2
 329 -205 l 2
 312 -205 301 -204 294 -201 c 0
 282 -197 272 -181 272 -166 c 0
 272 -150 281 -131 295 -120 c 0
 309 -108 320 -105 350 -105 c 2
 408 -105 l 1
 444 66 l 1
 384 26 336 10 277 10 c 0
 158 10 75 78 75 177 c 0
 75 250 114 328 177 381 c 0
 231 426 300 450 373 450 c 0xd8
 435 450 474 434 514 392 c 1
 523 437 l 1
 640 437 l 2xe8
 660 437 666 436 674 433 c 0
 687 428 696 414 696 397 c 0
 696 381 687 362 673 350 c 0xd8
 659 338 648 337 618 337 c 2
 602 337 l 1
 508 -105 l 1
 524 -105 l 2xe8
356 350 m 0
 314 350 279 340 248 321 c 1
 207 294 179 249 179 208 c 0
 179 148 228 110 305 110 c 0
 347 110 383 120 413 139 c 0
 453 165 482 211 482 249 c 0
 482 313 435 350 356 350 c 0
EndSplineSet
Validated: 1
EndChar

StartChar: r
Encoding: 114 114 83
Width: 600
Flags: W
HStem: 0 100<80.6113 200 300 472.344> 338 99<182.612 250> 350 99<454.675 556.389>
LayerCount: 2
Fore
SplineSet
371 437 m 1xc0
 358 373 l 1
 455 434 492 449 541 449 c 0
 594 449 650 410 650 375 c 0
 650 345 619 314 588 314 c 0
 574 314 565 319 553 332 c 0
 541 345 532 350 517 350 c 0xa0
 486 350 438 323 331 248 c 1
 300 100 l 1
 439 100 l 2
 459 100 466 99 474 96 c 0
 487 92 496 76 496 60 c 0
 496 44 487 27 473 15 c 0
 459 4 446 0 418 0 c 2
 120 0 l 2
 80 0 64 11 64 40 c 0
 64 56 73 73 87 85 c 0
 101 98 110 100 141 100 c 2
 200 100 l 1
 250 338 l 1
 215 338 l 2
 175 338 159 349 159 377 c 0
 159 393 168 410 182 422 c 0
 195 433 211 437 236 437 c 2
 371 437 l 1xc0
EndSplineSet
Validated: 1
EndChar

StartChar: s
Encoding: 115 115 84
Width: 600
Flags: W
HStem: -16 100<221.57 420.273> 0 21G<112 130.5> 350 100<282.996 462.047>
VStem: 156 113<256.5 333.296> 444 112<106.608 159.054>
LayerCount: 2
Fore
SplineSet
516 281 m 0xb8
 490 281 480 296 472 321 c 1
 449 341 418 350 376 350 c 0
 321 350 269 331 269 312 c 0
 269 305 278 296 291 291 c 0
 303 286 309 285 371 276 c 0
 444 266 481 255 507 239 c 0
 538 219 556 187 556 150 c 0
 556 57 445 -16 301 -16 c 0xb8
 243 -16 195 -6 159 13 c 1
 145 4 137 0 124 0 c 0x78
 100 0 83 16 83 39 c 0
 83 45 84 52 87 67 c 2
 94 100 l 2
 104 146 124 167 159 167 c 0
 185 167 198 153 201 123 c 1
 224 97 264 84 318 84 c 0
 386 84 444 106 444 131 c 0
 444 143 434 155 417 162 c 0
 402 169 381 173 328 179 c 0
 206 192 156 224 156 289 c 0
 156 379 260 450 394 450 c 0
 442 450 482 442 517 424 c 1
 530 444 539 450 555 450 c 0
 577 450 592 436 592 414 c 0
 592 407 591 398 588 384 c 2
 580 347 l 2
 574 320 571 311 561 301 c 0
 548 289 531 281 516 281 c 0xb8
EndSplineSet
Validated: 1
EndChar

StartChar: t
Encoding: 116 116 85
Width: 600
Flags: W
HStem: -16 100<244.23 430.543> 337 100<117.698 186 307 521.345> 571 20G<282 301.5>
VStem: 137 104<52.6255 208.859>
LayerCount: 2
Fore
SplineSet
488 437 m 2
 524 437 545 430 545 397 c 0
 545 381 536 364 522 352 c 0
 508 340 496 337 467 337 c 2
 286 337 l 1
 244 141 l 2
 242 132 241 123 241 117 c 0
 241 95 267 84 318 84 c 0
 371 84 422 95 472 118 c 0
 490 127 497 129 508 129 c 0
 531 129 547 113 547 89 c 0
 547 67 536 50 512 37 c 0
 457 7 361 -16 291 -16 c 0
 214 -16 137 14 137 92 c 0
 137 104 138 112 140 122 c 2
 186 337 l 1
 151 337 l 2
 110 337 94 348 94 377 c 0
 94 393 103 411 117 423 c 0
 132 435 140 437 172 437 c 2
 207 437 l 1
 226 525 l 2
 231 551 235 561 245 571 c 0
 257 583 274 591 290 591 c 0
 313 591 330 575 330 553 c 0
 330 545 330 544 326 525 c 2
 307 437 l 1
 488 437 l 2
EndSplineSet
Validated: 1
EndChar

StartChar: u
Encoding: 117 117 86
Width: 600
Flags: W
HStem: -13 100<236.873 361.044> 0 21G<410 518.5> 338 99<117.653 166 413.699 482>
VStem: 123 103<99.761 185.628>
LayerCount: 2
Fore
SplineSet
603 437 m 1xb0
 531 100 l 1
 566 100 583 87 583 61 c 0
 583 44 574 26 559 15 c 1
 546 3 533 0 504 0 c 2
 410 0 l 1x70
 420 48 l 1
 360 1 326 -13 270 -13 c 0
 182 -13 123 36 123 110 c 0
 123 127 124 140 128 156 c 2
 166 338 l 1
 150 338 l 2
 110 338 94 349 94 378 c 0
 94 393 103 411 117 423 c 0
 131 434 141 437 172 437 c 2
 288 437 l 1
 229 159 l 2
 227 151 226 144 226 136 c 0
 226 105 253 87 301 87 c 0
 351 87 380 101 443 155 c 1
 482 338 l 1
 447 338 l 2
 406 338 390 349 390 377 c 0
 390 393 399 411 413 423 c 1
 428 434 437 437 468 437 c 2
 603 437 l 1xb0
EndSplineSet
Validated: 1
EndChar

StartChar: v
Encoding: 118 118 87
Width: 600
Flags: W
HStem: 0 21G<241.303 364.184> 337 100<104.654 151 264 323.346 437.653 481 589 659.346>
LayerCount: 2
Fore
SplineSet
291 437 m 2
 327 437 347 429 347 397 c 0
 347 381 338 364 324 352 c 0
 310 340 299 337 270 337 c 2
 264 337 l 1
 327 122 l 1
 481 337 l 1
 471 337 l 2
 430 337 414 348 414 377 c 0
 414 393 423 410 437 422 c 0
 451 434 461 437 492 437 c 2
 626 437 l 2
 662 437 683 430 683 398 c 0
 683 381 674 364 660 352 c 0
 646 340 635 337 605 337 c 2
 589 337 l 1
 350 0 l 1
 247 0 l 1
 151 337 l 1
 138 337 l 2
 97 337 81 348 81 377 c 0
 81 393 90 410 104 422 c 0
 118 434 129 437 159 437 c 2
 291 437 l 2
EndSplineSet
Validated: 1
EndChar

StartChar: w
Encoding: 119 119 88
Width: 600
Flags: W
HStem: 0 21G<139.231 245.713 369.354 474.172> 338 99<97.8643 127 233 285.347 472.927 521 620 668.459>
VStem: 82 226<352.567 420.949> 127 112<185 338>
LayerCount: 2
Fore
SplineSet
627 437 m 2xd0
 664 437 684 430 684 397 c 0
 684 384 678 369 667 358 c 0
 654 344 643 340 620 338 c 1
 465 0 l 1
 373 0 l 1
 340 181 l 1
 234 0 l 1
 140 0 l 1
 127 338 l 1xd0
 97 339 82 352 82 377 c 0
 82 393 91 411 105 422 c 0
 120 435 129 437 160 437 c 2
 252 437 l 2
 272 437 278 436 286 433 c 0
 299 429 308 414 308 398 c 0xe0
 308 382 299 364 286 352 c 1
 272 341 263 338 233 338 c 1
 239 185 l 1
 332 343 l 1
 421 343 l 1
 448 185 l 1
 521 338 l 1
 514 338 l 2
 478 338 457 345 457 377 c 0
 457 393 466 411 480 422 c 0
 494 434 504 437 535 437 c 2
 627 437 l 2xd0
EndSplineSet
Validated: 1
EndChar

StartChar: x
Encoding: 120 120 89
Width: 600
Flags: W
HStem: 0 100<46.7893 96 545 566.345> 337 100<576 625.073>
VStem: 120 227<353.266 420.654>
LayerCount: 2
Fore
SplineSet
584 437 m 2
 620 437 641 430 641 398 c 0
 641 365 615 341 576 337 c 1
 421 227 l 1
 545 100 l 1
 575 99 590 86 590 60 c 0
 590 44 581 27 567 15 c 0
 553 3 541 0 512 0 c 2
 400 0 l 2
 359 0 343 11 343 40 c 0
 343 67 364 92 395 100 c 1
 333 161 l 1
 246 100 l 1
 269 89 276 81 276 62 c 0
 276 45 267 27 253 15 c 0
 239 3 226 0 197 0 c 2
 87 0 l 2
 46 0 30 11 30 40 c 0
 30 53 36 68 47 79 c 1
 60 94 72 98 96 100 c 1
 268 228 l 1
 163 337 l 1
 134 340 120 353 120 377 c 0
 120 393 129 411 143 422 c 0
 158 434 168 437 198 437 c 2
 291 437 l 2
 311 437 317 436 325 433 c 0
 338 428 347 414 347 397 c 0
 347 377 333 355 310 342 c 1
 361 293 l 1
 432 343 l 1
 419 354 414 363 414 376 c 0
 414 392 423 410 437 422 c 0
 452 434 462 437 492 437 c 2
 584 437 l 2
EndSplineSet
Validated: 1
EndChar

StartChar: y
Encoding: 121 121 90
Width: 600
Flags: W
HStem: -205 100<10.6988 165 274 312.345> 337 100<125.699 142 255 310.688 450.781 489 599 646.406>
VStem: 102 224<353.392 420.949> 435 227<353.64 420.9>
LayerCount: 2
Fore
SplineSet
279 -105 m 2
 315 -105 336 -112 336 -144 c 0
 336 -161 327 -178 313 -190 c 0
 299 -202 287 -205 258 -205 c 2
 44 -205 l 2
 3 -205 -13 -194 -13 -165 c 0
 -13 -149 -4 -132 10 -120 c 0
 25 -108 34 -105 65 -105 c 2
 165 -105 l 1
 243 3 l 1
 142 337 l 1
 115 341 102 353 102 377 c 0
 102 393 111 411 125 422 c 0
 140 434 149 437 180 437 c 2
 270 437 l 2
 290 437 296 436 304 433 c 0
 317 429 326 414 326 398 c 0
 326 362 297 338 255 337 c 1
 323 114 l 1
 489 337 l 1
 484 337 l 2
 452 337 435 351 435 377 c 0
 435 393 444 411 458 422 c 0
 472 434 482 437 513 437 c 2
 605 437 l 2
 642 437 662 430 662 397 c 0
 662 365 636 341 599 337 c 1
 274 -105 l 1
 279 -105 l 2
EndSplineSet
Validated: 1
EndChar

StartChar: z
Encoding: 122 122 91
Width: 600
Flags: W
HStem: 0 154<456.785 519> 0 100<265 449.818> 337 100<263.764 417>
LayerCount: 2
Fore
SplineSet
265 100 m 1x60
 441 100 l 1x60
 451 135 472 154 502 154 c 0
 525 154 542 138 542 117 c 0
 542 110 541 103 538 88 c 2
 519 0 l 1xa0
 85 0 l 1
 103 83 l 1
 417 337 l 1
 269 337 l 1
 263 310 258 293 248 283 c 0
 235 270 219 262 203 262 c 0
 180 262 163 278 163 299 c 0
 163 305 165 319 167 328 c 2
 190 437 l 1
 599 437 l 1
 582 356 l 1
 265 100 l 1x60
EndSplineSet
Validated: 1
EndChar

StartChar: braceleft
Encoding: 123 123 92
Width: 600
Flags: W
HStem: -153 101<343.004 396.568> 189 101<231.795 282.668> 522 102<458.469 539.269>
VStem: 241 102<-51.1126 67.8047> 283 103<76.8906 201.5>
LayerCount: 2
Fore
SplineSet
451 485 m 1xe8
 418 328 l 2
 408 284 398 266 370 240 c 1
 381 222 386 209 386 194 c 0xe8
 386 184 383 164 378 142 c 2
 345 -15 l 2
 344 -21 343 -27 343 -30 c 0
 343 -46 349 -51 373 -52 c 0
 398 -54 413 -69 413 -91 c 0
 413 -126 383 -153 345 -153 c 0
 286 -153 241 -108 241 -48 c 0xf0
 241 -39 242 -31 244 -22 c 2
 280 151 l 2
 282 158 283 165 283 169 c 0
 283 181 276 187 256 189 c 0
 229 192 217 204 217 227 c 0
 217 262 240 286 278 290 c 0
 304 293 312 300 318 328 c 2
 353 492 l 2
 368 563 440 624 511 624 c 0
 539 624 556 608 556 583 c 0
 556 552 529 525 495 522 c 1
 468 522 458 513 451 485 c 1xe8
EndSplineSet
Validated: 1
EndChar

StartChar: bar
Encoding: 124 124 93
Width: 600
Flags: W
HStem: 604 20G<424 443.5>
VStem: 227 245
LayerCount: 2
Fore
SplineSet
468 556 m 2
 331 -87 l 2
 326 -113 322 -122 312 -132 c 0
 299 -145 283 -153 267 -153 c 0
 244 -153 227 -137 227 -116 c 0
 227 -109 228 -100 231 -87 c 2
 368 556 l 2
 373 581 378 592 387 601 c 0
 399 614 416 624 432 624 c 0
 455 624 472 605 472 583 c 0
 472 577 471 570 468 556 c 2
EndSplineSet
Validated: 1
EndChar

StartChar: braceright
Encoding: 125 125 94
Width: 600
Flags: W
HStem: -153 101<160.731 241.531> 180 101<417.332 468.205> 522 102<304.292 356.996>
VStem: 314 103<268.5 389.305> 357 102<402.797 520.802>
LayerCount: 2
Fore
SplineSet
249 -15 m 1xf0
 282 142 l 2
 292 186 302 204 330 230 c 1
 319 248 314 261 314 276 c 0xf0
 314 286 317 306 322 328 c 2
 357 485 l 2
 358 491 357 497 357 500 c 0
 357 516 351 521 327 522 c 0
 302 524 287 539 287 562 c 0
 287 596 319 624 357 624 c 0
 416 624 459 578 459 518 c 0xe8
 459 509 458 501 456 492 c 2
 420 319 l 2
 418 312 417 305 417 301 c 0
 417 289 424 283 444 281 c 0
 471 278 483 266 483 243 c 0
 483 208 460 184 422 180 c 0
 396 177 388 169 382 142 c 2
 347 -22 l 2
 332 -93 260 -153 189 -153 c 0
 161 -153 144 -138 144 -113 c 0
 144 -82 171 -55 205 -52 c 1
 232 -52 242 -43 249 -15 c 1xf0
EndSplineSet
Validated: 1
EndChar

StartChar: asciitilde
Encoding: 126 126 95
Width: 600
Flags: W
HStem: 179 105<417.353 483.078> 281 104<238.03 302.638>
LayerCount: 2
Fore
SplineSet
565 364 m 0x80
 588 364 606 347 606 324 c 0
 606 305 596 288 571 262 c 0
 506 197 474 179 428 179 c 0x80
 390 179 356 200 308 254 c 0
 291 272 279 281 271 281 c 0
 262 281 250 272 216 239 c 0
 183 207 174 201 156 201 c 0
 133 201 114 219 114 240 c 0
 114 264 128 284 169 322 c 0
 218 367 253 385 295 385 c 0x40
 337 385 361 370 416 307 c 0
 430 292 441 284 449 284 c 0
 460 284 477 297 508 330 c 0
 534 357 546 364 565 364 c 0x80
EndSplineSet
Validated: 1
EndChar

StartChar: sterling
Encoding: 163 163 96
Width: 600
Flags: W
HStem: 0 100<79.6562 169.969 268 481.495> 243 100<128.514 218 317.697 409.531> 444 21G<492.5 515.5> 498 100<344.26 456.937>
VStem: 213 102<344.189 468.72> 218 101<224.144 243 343 385.39 386.749 408.432 409.557 471.147>
LayerCount: 2
Fore
SplineSet
366 243 m 2xf4
 321 243 l 1
 313 183 299 150 268 100 c 1
 471 100 l 1
 482 130 502 146 530 146 c 0
 556 146 571 131 571 106 c 0
 571 101 570 96 569 90 c 0
 557 32 512 0 442 0 c 2
 121 0 l 2
 98 0 86 3 78 10 c 0
 70 17 65 28 65 40 c 0
 65 44 65 47 66 51 c 0
 72 78 90 93 126 100 c 0
 152 105 165 113 178 132 c 0
 196 157 210 188 218 224 c 0
 218 227 220 235 221 243 c 1
 151 243 l 2
 126 243 115 245 108 252 c 0
 98 261 94 272 94 283 c 0
 94 305 110 327 128 336 c 0
 139 342 147 343 172 343 c 2
 218 343 l 1xf4
 216 359 213 373 213 386 c 0xf8
 213 402 215 416 218 432 c 0
 238 529 325 598 426 598 c 0
 498 598 563 553 563 506 c 0
 563 502 563 499 562 495 c 0
 556 467 529 444 502 444 c 0
 483 444 479 447 461 472 c 0
 449 490 431 498 404 498 c 0
 363 498 326 472 319 437 c 0xf4
 316 426 315 421 315 409 c 0xf8
 315 397 316 378 319 343 c 1
 387 343 l 2
 414 343 422 341 431 334 c 0
 441 325 444 315 444 304 c 0
 444 283 428 261 410 250 c 0
 400 245 390 243 366 243 c 2xf4
EndSplineSet
Validated: 1
EndChar

StartChar: uni0591
Encoding: 1425 1425 97
Width: 0
Flags: W
HStem: -251 120<-111.617 -84.3976 12.3061 46.6519>
VStem: -15 82<-241.604 -205.48>
LayerCount: 2
Fore
SplineSet
-68 -131 m 1
 -61 -100 l 2
 -57 -78 -37 -60 -15 -60 c 0
 4 -60 20 -74 20 -93 c 0
 20 -95 19 -97 19 -100 c 2
 12 -131 l 1
 42 -141 65 -165 67 -199 c 0
 67 -200 67 -200 67 -201 c 0
 67 -228 44 -251 17 -251 c 0
 -0 -251 -14 -238 -15 -220 c 0
 -15 -216 -23 -205 -44 -205 c 0
 -66 -205 -77 -217 -79 -221 c 0
 -88 -239 -106 -251 -125 -251 c 0
 -145 -251 -157 -236 -157 -219 c 0
 -157 -213 -156 -207 -153 -202 c 1
 -136 -166 -103 -141 -68 -131 c 1
EndSplineSet
Validated: 1
EndChar

StartChar: uni0592
Encoding: 1426 1426 98
Width: 0
Flags: W
HStem: 540 84<32.4116 96.7474 150.412 213.728> 634 82<110.412 175.454>
VStem: 23 85<551.433 614.122> 101 84<643.875 706.043> 141 84<551.051 614.043>
LayerCount: 2
Fore
SplineSet
135 634 m 0xd0
 115 634 101 649 101 668 c 0
 101 670 101 672 101 675 c 0
 106 698 129 716 152 716 c 0
 172 716 185 703 185 684 c 0
 185 681 185 678 184 675 c 0
 180 653 158 634 135 634 c 0xd0
56 540 m 0
 36 540 23 555 23 574 c 0
 23 577 22 580 23 583 c 0
 28 606 51 624 74 624 c 0
 94 624 108 610 108 592 c 0xe0
 108 589 108 586 107 583 c 0
 102 560 79 540 56 540 c 0
174 540 m 0
 154 540 141 555 141 574 c 0
 141 577 140 580 141 583 c 0
 146 606 169 624 192 624 c 0
 212 624 225 611 225 592 c 0xc8
 225 589 225 586 224 583 c 0
 219 560 197 540 174 540 c 0
EndSplineSet
Validated: 1
EndChar

StartChar: uni0593
Encoding: 1427 1427 99
Width: 0
Flags: W
HStem: 541 269
VStem: 15 256
LayerCount: 2
Fore
SplineSet
259 775 m 2
 268 771 271 765 271 758 c 0
 271 746 260 731 248 728 c 2
 149 699 l 1
 235 669 l 2
 246 666 251 657 248 646 c 0
 246 634 237 627 226 624 c 2
 126 593 l 1
 137 588 148 582 148 570 c 0
 148 567 146 563 144 558 c 0
 138 547 126 541 115 541 c 0
 113 541 111 540 109 541 c 2
 28 569 l 2
 18 572 12 581 15 593 c 0
 17 604 26 613 38 617 c 2
 137 646 l 1
 50 675 l 2
 40 678 35 687 38 699 c 0
 40 710 49 719 60 722 c 2
 168 754 l 1
 143 763 l 2
 136 766 133 774 133 782 c 0
 133 786 134 791 136 795 c 0
 142 805 152 810 163 810 c 0
 166 810 169 809 172 808 c 2
 259 775 l 2
EndSplineSet
Validated: 1
EndChar

StartChar: uni0594
Encoding: 1428 1428 100
Width: 0
Flags: W
HStem: 540 84<91.4116 154.728> 634 83<111.1 176.263>
VStem: 82 84<551.051 614.043> 101 85<643.933 706.692>
LayerCount: 2
Fore
SplineSet
133 624 m 0xe0
 153 624 166 611 166 592 c 0
 166 589 166 586 165 583 c 0
 160 560 138 540 115 540 c 0
 95 540 82 555 82 574 c 0
 82 577 81 580 82 583 c 0
 87 606 110 624 133 624 c 0xe0
152 717 m 0
 172 717 186 703 186 684 c 0
 186 681 186 678 185 675 c 0
 181 652 158 634 135 634 c 0
 115 634 101 648 101 667 c 0
 101 670 101 672 101 675 c 0xd0
 106 698 129 717 152 717 c 0
EndSplineSet
Validated: 1
EndChar

StartChar: uni0595
Encoding: 1429 1429 101
Width: 0
Flags: W
HStem: 540 84<144.644 208.911> 634 83<164.352 229.294>
VStem: 135 85<551.433 613.646> 154 85<643.878 706.496>
LayerCount: 2
Fore
SplineSet
129 677 m 2xc0
 108 580 l 2
 104 558 82 540 60 540 c 0
 41 540 27 554 27 573 c 0
 27 575 27 577 27 580 c 2
 49 677 l 2
 54 699 75 717 97 717 c 0
 116 717 130 703 130 685 c 0
 130 683 130 680 129 677 c 2xc0
187 624 m 0
 206 624 220 610 220 592 c 0
 220 589 220 586 219 583 c 0
 214 560 191 540 169 540 c 0
 149 540 135 555 135 574 c 0
 135 577 134 580 135 583 c 0xe0
 140 606 164 624 187 624 c 0
206 717 m 0
 225 717 239 703 239 684 c 0
 239 681 239 678 238 675 c 0
 234 652 211 634 189 634 c 0
 168 634 154 648 154 668 c 0
 154 670 154 673 154 675 c 0xd0
 159 698 183 717 206 717 c 0
EndSplineSet
Validated: 1
EndChar

StartChar: uni0596
Encoding: 1430 1430 102
Width: 0
Flags: W
HStem: -259 199<-62.4707 -12.0169>
VStem: -93 82<-185.436 -72.4377>
LayerCount: 2
Fore
SplineSet
13 -189 m 0
 19 -196 22 -203 22 -211 c 0
 22 -235 -5 -259 -29 -259 c 0
 -38 -259 -47 -256 -53 -249 c 0
 -80 -220 -93 -184 -93 -144 c 0
 -93 -130 -91 -115 -88 -100 c 0
 -84 -78 -62 -60 -40 -60 c 0
 -21 -60 -7 -74 -7 -93 c 0
 -7 -95 -8 -97 -8 -100 c 0
 -10 -110 -11 -119 -11 -128 c 0
 -11 -152 -3 -171 13 -189 c 0
EndSplineSet
Validated: 1
EndChar

StartChar: uni0597
Encoding: 1431 1431 103
Width: 0
Flags: W
HStem: 540 212
VStem: 31 212
LayerCount: 2
Fore
SplineSet
115 540 m 1
 31 646 l 1
 160 752 l 1
 243 646 l 1
 115 540 l 1
EndSplineSet
Validated: 1
EndChar

StartChar: uni0598
Encoding: 1432 1432 104
Width: 0
Flags: W
HStem: 542 164<19.8342 44.9713 220.055 244.398>
VStem: -27 79<549.642 633.852> 213 80<636.094 698.358>
LayerCount: 2
Fore
SplineSet
79 706 m 0
 108 706 128 693 140 680 c 2
 198 613 l 1
 198 613 213 621 216 636 c 0
 217 638 216 640 216 642 c 0
 216 650 213 656 213 664 c 0
 213 665 213 667 213 669 c 0
 217 686 235 706 259 706 c 0
 283 706 293 684 293 659 c 0
 293 652 292 644 290 636 c 0
 280 589 237 542 186 542 c 0
 157 542 137 554 126 568 c 2
 67 635 l 1
 67 635 53 627 50 612 c 0
 50 610 49 608 49 606 c 0
 49 598 53 591 53 583 c 0
 53 582 52 581 52 579 c 0
 48 562 30 542 7 542 c 0
 -18 542 -27 564 -27 589 c 0
 -27 596 -29 604 -27 612 c 0
 -17 659 28 706 79 706 c 0
EndSplineSet
Validated: 1
EndChar

StartChar: uni0599
Encoding: 1433 1433 105
Width: 0
Flags: W
HStem: 540 199<113.125 163.93>
VStem: 113 82<553.141 664.154>
LayerCount: 2
Fore
SplineSet
88 669 m 0
 83 675 80 682 80 689 c 0
 80 703 88 717 97 726 c 0
 107 735 119 739 130 739 c 0
 140 739 148 736 155 729 c 0
 181 700 195 665 195 624 c 0
 195 610 193 595 190 580 c 0
 185 558 163 540 141 540 c 0
 121 540 109 554 109 572 c 0
 109 574 109 577 110 580 c 0
 112 590 113 599 113 608 c 0
 113 632 105 651 88 669 c 0
EndSplineSet
Validated: 1
EndChar

StartChar: uni059A
Encoding: 1434 1434 106
Width: 0
Flags: W
HStem: -130 71<51 74.3809>
VStem: -134 213
LayerCount: 2
Fore
SplineSet
-12 -158 m 1
 39 -186 l 2
 49 -191 53 -201 53 -211 c 0
 53 -220 50 -230 45 -237 c 0
 36 -250 21 -257 7 -257 c 0
 2 -257 -3 -256 -9 -253 c 2
 -120 -192 l 2
 -129 -186 -134 -177 -134 -166 c 0
 -134 -164 -135 -161 -134 -158 c 0
 -130 -143 -120 -131 -105 -124 c 2
 32 -63 l 2
 38 -60 44 -59 49 -59 c 0
 66 -59 79 -70 79 -88 c 0
 79 -91 79 -94 78 -97 c 0
 76 -110 66 -124 51 -130 c 2
 -12 -158 l 1
EndSplineSet
Validated: 1
EndChar

StartChar: uni059B
Encoding: 1435 1435 107
Width: 0
Flags: W
HStem: -143 83<-110.431 -44.9783>
VStem: -121 86<-133.067 -71.089> -3 80<-99.9531 -67.1844>
LayerCount: 2
Fore
SplineSet
-69 -60 m 0
 -48 -60 -35 -74 -35 -93 c 0
 -35 -96 -35 -99 -36 -102 c 0
 -41 -125 -62 -143 -86 -143 c 0
 -105 -143 -121 -129 -121 -110 c 0
 -121 -107 -122 -105 -121 -102 c 0
 -116 -79 -91 -60 -69 -60 c 0
-64 -189 m 0
 -31 -165 -11 -137 -3 -100 c 1
 -5 -99 -3 -98 -3 -97 c 0
 2 -76 22 -60 43 -60 c 0
 64 -60 77 -76 77 -96 c 0
 77 -97 77 -99 77 -100 c 1
 62 -158 29 -210 -23 -249 c 0
 -31 -256 -42 -259 -51 -259 c 0
 -70 -259 -85 -245 -85 -226 c 0
 -85 -224 -84 -221 -84 -219 c 0
 -81 -208 -74 -197 -64 -189 c 0
EndSplineSet
Validated: 1
EndChar

StartChar: uni059C
Encoding: 1436 1436 108
Width: 0
Flags: W
HStem: 540 199
LayerCount: 2
Fore
SplineSet
195 669 m 0
 163 645 144 617 136 580 c 0
 132 558 110 540 88 540 c 0
 69 540 55 554 55 573 c 0
 55 575 56 577 56 580 c 0
 69 638 103 690 155 729 c 0
 164 736 174 739 184 739 c 0
 202 739 217 725 217 706 c 0
 217 704 216 701 216 699 c 0
 213 688 206 677 195 669 c 0
EndSplineSet
Validated: 1
EndChar

StartChar: uni059D
Encoding: 1437 1437 109
Width: 0
Flags: W
HStem: 540 199
LayerCount: 2
Fore
SplineSet
195 669 m 0
 163 645 144 617 136 580 c 0
 132 558 110 540 88 540 c 0
 69 540 55 554 55 573 c 0
 55 575 56 577 56 580 c 0
 69 638 103 690 155 729 c 0
 164 736 174 739 184 739 c 0
 202 739 217 725 217 706 c 0
 217 704 216 701 216 699 c 0
 213 688 206 677 195 669 c 0
EndSplineSet
Validated: 1
EndChar

StartChar: uni059E
Encoding: 1438 1438 110
Width: 0
Flags: W
HStem: 540 199
VStem: -12 81<548.56 629.887>
LayerCount: 2
Fore
SplineSet
263 669 m 0
 231 645 212 617 204 580 c 0
 200 558 178 540 156 540 c 0
 136 540 122 554 122 573 c 0
 122 575 123 578 123 580 c 0
 136 638 171 690 223 729 c 0
 231 736 242 739 251 739 c 0
 269 739 284 726 284 707 c 0
 284 705 284 702 283 699 c 0
 280 688 274 677 263 669 c 0
128 669 m 0
 95 645 77 617 69 580 c 0
 65 558 43 540 21 540 c 0
 2 540 -12 554 -12 573 c 0
 -12 575 -12 577 -12 580 c 0
 1 638 36 690 88 729 c 0
 96 736 107 739 116 739 c 0
 135 739 150 725 150 706 c 0
 150 704 149 701 149 699 c 0
 146 688 139 677 128 669 c 0
EndSplineSet
Validated: 1
EndChar

StartChar: uni059F
Encoding: 1439 1439 111
Width: 0
Flags: W
HStem: 560 64<-44.6826 20.5988 248.971 320.288> 707 66<-37.0708 34.0957 257.045 328.112>
VStem: -115 68<625.657 695.259> 37 66<634.308 703.321> 180 67<625.688 695.259> 331 67<634.309 704.764>
LayerCount: 2
Fore
SplineSet
84 624 m 1
 101 602 l 2
 106 595 108 590 108 583 c 0
 108 559 81 533 57 533 c 0
 47 533 38 537 32 545 c 2
 15 568 l 1
 0 562 -14 560 -28 560 c 0
 -79 560 -115 595 -115 643 c 0
 -115 651 -114 658 -112 666 c 0
 -100 725 -42 773 17 773 c 0
 69 773 103 736 103 688 c 0
 103 681 103 673 101 666 c 0
 97 651 91 637 84 624 c 1
3 707 m 0
 -20 707 -42 688 -46 666 c 0
 -47 663 -47 660 -47 657 c 0
 -47 638 -34 624 -14 624 c 0
 9 624 32 643 37 666 c 0
 37 669 37 671 37 673 c 0
 37 692 23 707 3 707 c 0
180 624 m 1
 179 630 180 636 180 643 c 0
 180 650 181 658 183 666 c 0
 195 725 252 773 311 773 c 0
 363 773 398 736 398 687 c 0
 398 681 397 673 396 666 c 0
 383 607 325 560 266 560 c 0
 252 560 238 562 227 568 c 1
 200 545 l 2
 190 537 179 533 169 533 c 0
 151 533 136 547 136 565 c 0
 136 568 136 570 137 573 c 0
 139 583 145 594 155 602 c 2
 180 624 l 1
297 707 m 0
 274 707 252 688 248 666 c 0
 247 663 247 660 247 657 c 0
 247 638 260 624 280 624 c 0
 303 624 326 643 331 666 c 0
 331 669 331 671 331 673 c 0
 331 692 317 707 297 707 c 0
EndSplineSet
Validated: 1
EndChar

StartChar: uni05A0
Encoding: 1440 1440 112
Width: 0
Flags: W
HStem: 560 64<113.971 185.288> 707 66<122.045 193.112>
VStem: 45 67<625.688 695.259> 196 67<634.309 704.764>
LayerCount: 2
Fore
SplineSet
45 624 m 1
 44 630 45 636 45 643 c 0
 45 650 46 658 48 666 c 0
 60 725 117 773 176 773 c 0
 228 773 263 736 263 687 c 0
 263 681 262 673 261 666 c 0
 248 607 190 560 131 560 c 0
 117 560 103 562 92 568 c 1
 65 545 l 2
 55 537 44 533 33 533 c 0
 15 533 0 547 0 566 c 0
 0 568 -1 570 0 573 c 0
 2 583 10 594 20 602 c 2
 45 624 l 1
162 707 m 0
 139 707 117 688 113 666 c 0
 112 663 112 660 112 657 c 0
 112 638 125 624 145 624 c 0
 168 624 191 643 196 666 c 0
 196 669 196 671 196 673 c 0
 196 692 182 707 162 707 c 0
EndSplineSet
Validated: 1
EndChar

StartChar: uni05A1
Encoding: 1441 1441 113
Width: 0
Flags: W
HStem: 583 78<98 179.643>
LayerCount: 2
Fore
SplineSet
98 661 m 1
 102 661 l 2
 144 661 175 666 187 692 c 1
 199 720 215 735 238 735 c 0
 257 735 271 721 271 702 c 0
 271 700 270 698 270 695 c 0
 260 651 225 613 175 595 c 0
 148 585 120 583 82 583 c 1
 77 560 56 540 33 540 c 0
 14 540 0 556 0 575 c 0
 0 578 -1 580 0 583 c 2
 26 695 l 2
 30 717 52 735 74 735 c 0
 94 735 106 721 106 703 c 0
 106 700 106 698 106 695 c 2
 98 661 l 1
EndSplineSet
Validated: 1
EndChar

StartChar: uni05A3
Encoding: 1443 1443 114
Width: 0
Flags: W
HStem: -234 80<-153.125 7>
LayerCount: 2
Fore
SplineSet
7 -154 m 1
 19 -100 l 2
 23 -78 45 -60 67 -60 c 0
 86 -60 100 -74 100 -93 c 0
 100 -95 99 -97 99 -100 c 2
 79 -194 l 2
 74 -217 53 -234 30 -234 c 2
 -130 -234 l 2
 -149 -234 -162 -223 -162 -205 c 0
 -162 -202 -162 -197 -161 -194 c 0
 -157 -172 -135 -154 -113 -154 c 2
 7 -154 l 1
EndSplineSet
Validated: 1
EndChar

StartChar: uni05A4
Encoding: 1444 1444 115
Width: 0
Flags: W
HStem: -130 71<51 74.3809>
VStem: -134 213
LayerCount: 2
Fore
SplineSet
-12 -158 m 1
 39 -186 l 2
 49 -191 53 -201 53 -211 c 0
 53 -220 50 -230 45 -237 c 0
 36 -250 21 -257 7 -257 c 0
 2 -257 -3 -256 -9 -253 c 2
 -120 -192 l 2
 -129 -186 -134 -177 -134 -166 c 0
 -134 -164 -135 -161 -134 -158 c 0
 -130 -143 -120 -131 -105 -124 c 2
 32 -63 l 2
 38 -60 44 -59 49 -59 c 0
 66 -59 79 -70 79 -88 c 0
 79 -91 79 -94 78 -97 c 0
 76 -110 66 -124 51 -130 c 2
 -12 -158 l 1
EndSplineSet
Validated: 1
EndChar

StartChar: uni05A5
Encoding: 1445 1445 116
Width: 0
Flags: W
HStem: -259 199
VStem: -114 161
LayerCount: 2
Fore
SplineSet
-93 -189 m 0
 -61 -165 -42 -137 -34 -100 c 0
 -30 -78 -9 -60 14 -60 c 0
 33 -60 47 -74 47 -93 c 0
 47 -95 46 -97 46 -100 c 0
 33 -158 -2 -210 -53 -249 c 0
 -62 -256 -72 -259 -82 -259 c 0
 -93 -259 -103 -255 -109 -246 c 1
 -113 -240 -114 -233 -114 -227 c 0
 -114 -212 -105 -198 -93 -189 c 0
EndSplineSet
Validated: 1
EndChar

StartChar: uni05A6
Encoding: 1446 1446 117
Width: 0
Flags: W
HStem: -259 199
LayerCount: 2
Fore
SplineSet
-161 -189 m 0
 -129 -165 -110 -137 -102 -100 c 0
 -98 -78 -76 -60 -54 -60 c 0
 -34 -60 -20 -74 -20 -93 c 0
 -20 -95 -21 -98 -21 -100 c 0
 -34 -158 -69 -210 -121 -249 c 0
 -129 -256 -140 -259 -149 -259 c 0
 -167 -259 -182 -246 -182 -227 c 0
 -182 -225 -183 -222 -182 -219 c 0
 -179 -208 -172 -197 -161 -189 c 0
-26 -189 m 0
 7 -165 25 -137 33 -100 c 0
 37 -78 59 -60 81 -60 c 0
 100 -60 114 -74 114 -93 c 0
 114 -95 113 -97 113 -100 c 0
 100 -158 66 -210 14 -249 c 0
 6 -256 -5 -259 -14 -259 c 0
 -33 -259 -48 -245 -48 -226 c 0
 -48 -224 -47 -221 -47 -219 c 0
 -44 -208 -37 -197 -26 -189 c 0
EndSplineSet
Validated: 1
EndChar

StartChar: uni05A7
Encoding: 1447 1447 118
Width: 0
Flags: W
HStem: -259 75<-161.01 -68> -135 75<0 92.2546>
VStem: -168 268
LayerCount: 2
Fore
SplineSet
0 -135 m 1
 29 -200 l 1
 31 -205 32 -210 32 -215 c 0
 32 -239 8 -259 -14 -259 c 2
 -135 -259 l 2
 -154 -259 -168 -246 -168 -228 c 0
 -168 -226 -168 -223 -168 -221 c 0
 -164 -200 -140 -184 -119 -184 c 2
 -68 -184 l 1
 -99 -118 l 2
 -101 -114 -102 -109 -102 -105 c 0
 -102 -81 -74 -60 -54 -60 c 2
 69 -60 l 2
 87 -60 100 -73 100 -90 c 0
 100 -92 100 -95 99 -98 c 0
 95 -118 74 -135 53 -135 c 2
 0 -135 l 1
EndSplineSet
Validated: 1
EndChar

StartChar: uni05A8
Encoding: 1448 1448 119
Width: 0
Flags: W
HStem: 540 199<113.125 163.93>
VStem: 113 82<553.141 664.154>
LayerCount: 2
Fore
SplineSet
88 669 m 0
 83 675 80 682 80 689 c 0
 80 703 88 717 97 726 c 0
 107 735 119 739 130 739 c 0
 140 739 148 736 155 729 c 0
 181 700 195 665 195 624 c 0
 195 610 193 595 190 580 c 0
 185 558 163 540 141 540 c 0
 121 540 109 554 109 572 c 0
 109 574 109 577 110 580 c 0
 112 590 113 599 113 608 c 0
 113 632 105 651 88 669 c 0
EndSplineSet
Validated: 1
EndChar

StartChar: uni05A9
Encoding: 1449 1449 120
Width: 0
Flags: W
HStem: 560 64<90.3174 155.599> 707 66<97.9292 169.096>
VStem: 20 68<625.657 695.259> 172 66<634.308 703.321>
LayerCount: 2
Fore
SplineSet
219 624 m 1
 236 602 l 2
 241 595 243 590 243 583 c 0
 243 559 217 533 193 533 c 0
 182 533 173 537 167 545 c 2
 150 568 l 1
 135 562 121 560 107 560 c 0
 56 560 20 595 20 643 c 0
 20 651 21 658 23 666 c 0
 35 725 93 773 152 773 c 0
 204 773 238 736 238 688 c 0
 238 681 238 673 236 666 c 0
 232 651 226 637 219 624 c 1
138 707 m 0
 115 707 93 688 89 666 c 0
 88 663 88 660 88 657 c 0
 88 638 101 624 121 624 c 0
 144 624 167 643 172 666 c 0
 172 669 172 671 172 673 c 0
 172 692 158 707 138 707 c 0
EndSplineSet
Validated: 1
EndChar

StartChar: uni05AA
Encoding: 1450 1450 121
Width: 0
Flags: W
HStem: -250 191
VStem: -133 82<-105.562 -67.8191>
LayerCount: 2
Fore
SplineSet
-78 -179 m 1
 -109 -168 -132 -144 -133 -108 c 1
 -133 -107 -133 -105 -133 -104 c 0
 -133 -81 -108 -59 -85 -59 c 0
 -66 -59 -52 -71 -51 -89 c 0
 -51 -93 -45 -106 -23 -106 c 0
 -2 -106 11 -94 13 -89 c 0
 22 -72 40 -60 57 -60 c 0
 61 -60 64 -61 68 -62 c 0
 83 -65 90 -77 90 -90 c 0
 90 -97 88 -104 85 -111 c 0
 69 -145 34 -169 0 -179 c 1
 -5 -210 l 2
 -9 -232 -31 -250 -53 -250 c 0
 -72 -250 -86 -236 -86 -217 c 0
 -86 -215 -85 -213 -85 -210 c 2
 -78 -179 l 1
EndSplineSet
Validated: 1
EndChar

StartChar: uni05AB
Encoding: 1451 1451 122
Width: 0
Flags: W
HStem: 666 71<221 243.874>
VStem: 35 214
LayerCount: 2
Fore
SplineSet
157 637 m 1
 208 609 l 2
 218 604 222 593 222 583 c 0
 222 574 219 566 214 559 c 1
 205 546 190 538 176 538 c 0
 170 538 166 539 160 542 c 2
 49 604 l 2
 40 609 35 618 35 629 c 0
 35 631 34 634 35 637 c 0
 39 652 49 664 64 671 c 2
 201 733 l 2
 206 736 213 737 218 737 c 0
 235 737 249 725 249 706 c 0
 249 704 248 702 248 699 c 0
 245 685 235 672 221 666 c 2
 157 637 l 1
EndSplineSet
Validated: 1
EndChar

StartChar: uni05AC
Encoding: 1452 1452 123
Width: 0
Flags: W
HStem: 540 80<11.5977 172>
LayerCount: 2
Fore
SplineSet
172 620 m 1
 183 674 l 2
 188 696 210 714 232 714 c 0
 251 714 264 701 264 683 c 0
 264 680 264 677 263 674 c 2
 243 580 l 2
 238 557 218 540 195 540 c 2
 35 540 l 2
 16 540 0 554 0 573 c 0
 0 575 3 577 3 580 c 0
 8 602 30 620 52 620 c 2
 172 620 l 1
EndSplineSet
Validated: 1
EndChar

StartChar: uni05AD
Encoding: 1453 1453 124
Width: 0
Flags: W
HStem: -259 199<-62.4707 -12.0169>
VStem: -93 82<-185.436 -72.4377>
LayerCount: 2
Fore
SplineSet
13 -189 m 0
 19 -196 22 -203 22 -211 c 0
 22 -235 -5 -259 -29 -259 c 0
 -38 -259 -47 -256 -53 -249 c 0
 -80 -220 -93 -184 -93 -144 c 0
 -93 -130 -91 -115 -88 -100 c 0
 -84 -78 -62 -60 -40 -60 c 0
 -21 -60 -7 -74 -7 -93 c 0
 -7 -95 -8 -97 -8 -100 c 0
 -10 -110 -11 -119 -11 -128 c 0
 -11 -152 -3 -171 13 -189 c 0
EndSplineSet
Validated: 1
EndChar

StartChar: uni05AE
Encoding: 1454 1454 125
Width: 0
Flags: W
HStem: 542 164<19.8342 44.9713 220.055 244.398>
VStem: -27 79<549.642 633.852> 213 80<636.094 698.358>
LayerCount: 2
Fore
SplineSet
79 706 m 0
 108 706 128 693 140 680 c 2
 198 613 l 1
 198 613 213 621 216 636 c 0
 217 638 216 640 216 642 c 0
 216 650 213 656 213 664 c 0
 213 665 213 667 213 669 c 0
 217 686 235 706 259 706 c 0
 283 706 293 684 293 659 c 0
 293 652 292 644 290 636 c 0
 280 589 237 542 186 542 c 0
 157 542 137 554 126 568 c 2
 67 635 l 1
 67 635 53 627 50 612 c 0
 50 610 49 608 49 606 c 0
 49 598 53 591 53 583 c 0
 53 582 52 581 52 579 c 0
 48 562 30 542 7 542 c 0
 -18 542 -27 564 -27 589 c 0
 -27 596 -29 604 -27 612 c 0
 -17 659 28 706 79 706 c 0
EndSplineSet
Validated: 1
EndChar

StartChar: uni05AF
Encoding: 1455 1455 126
Width: 600
Flags: W
HStem: 540 60<93.8429 170.617> 692 60<103.463 180.757>
VStem: 29 61<604.529 677.32> 184 62<613.601 688.329>
LayerCount: 2
Fore
SplineSet
246 668 m 0
 246 596 177 540 115 540 c 0
 64 540 29 576 29 624 c 0
 29 631 28 639 29 646 c 0
 42 704 102 752 160 752 c 0
 210 752 246 716 246 668 c 0
128 600 m 0
 156 600 184 624 184 656 c 0
 184 676 169 692 147 692 c 0
 121 692 90 668 90 637 c 0
 90 616 106 600 128 600 c 0
EndSplineSet
EndChar

StartChar: afii57799
Encoding: 1456 1456 127
Width: 0
Flags: W
HStem: -237 82<-74.5884 -9> -143 83<-53.9001 10.8203>
VStem: -84 84<-227.43 -164.878> -64 85<-133.122 -70.3078>
AnchorPoint: "M2V" -90 0 basemark 0
AnchorPoint: "N" 0 0 mark 0
LayerCount: 2
Fore
SplineSet
-33 -155 m 0xe0
 -13 -155 0 -169 0 -187 c 0
 0 -190 1 -193 0 -196 c 0
 -4 -218 -27 -237 -50 -237 c 0
 -70 -237 -84 -224 -84 -205 c 0
 -84 -203 -84 -199 -84 -196 c 0
 -79 -173 -56 -155 -33 -155 c 0xe0
-13 -60 m 0
 7 -60 21 -74 21 -93 c 0
 21 -96 21 -99 20 -102 c 0
 15 -125 -7 -143 -30 -143 c 0
 -50 -143 -64 -129 -64 -111 c 0
 -64 -108 -65 -105 -64 -102 c 0xd0
 -59 -79 -36 -60 -13 -60 c 0
EndSplineSet
Validated: 1
EndChar

StartChar: afii57801
Encoding: 1457 1457 128
Width: 0
Flags: W
HStem: -236 82<-133 -68.1797 42.9685 108.619> -143 83<-172.062 -107.1 -55.0315 10.9001 62.9685 128.152>
VStem: -181 85<-131.911 -69.5> -142 84<-226.051 -163.57> -64 86<-131.911 -69.5> 34 85<-225.474 -163.875> 54 85<-132.496 -69.375>
AnchorPoint: "VR" -39.8936 0.5 mark 0
AnchorPoint: "M2V" -187 0 basemark 0
AnchorPoint: "H" 0 0 mark 0
LayerCount: 2
Fore
SplineSet
-92 -154 m 0xd0
 -72 -154 -58 -169 -58 -188 c 0
 -58 -190 -59 -192 -59 -195 c 0
 -64 -218 -86 -236 -109 -236 c 0
 -129 -236 -142 -224 -142 -205 c 0
 -142 -202 -143 -198 -142 -195 c 0
 -138 -173 -115 -154 -92 -154 c 0xd0
85 -154 m 0
 105 -154 119 -169 119 -188 c 0
 119 -190 118 -193 118 -195 c 0
 113 -218 90 -236 68 -236 c 0
 48 -236 34 -223 34 -205 c 0
 34 -202 33 -198 34 -195 c 0xc4
 38 -173 62 -154 85 -154 c 0
105 -60 m 0
 125 -60 139 -74 139 -93 c 0
 139 -96 138 -98 138 -101 c 0
 133 -124 111 -143 88 -143 c 0
 68 -143 54 -129 54 -110 c 0
 54 -107 53 -104 54 -101 c 0xc2
 58 -78 82 -60 105 -60 c 0
-13 -60 m 0
 8 -60 22 -74 22 -94 c 0
 22 -96 21 -99 21 -101 c 0
 16 -124 -7 -143 -30 -143 c 0
 -50 -143 -64 -129 -64 -110 c 0
 -64 -107 -65 -104 -64 -101 c 0xc8
 -60 -78 -36 -60 -13 -60 c 0
-131 -60 m 0
 -110 -60 -96 -74 -96 -94 c 0
 -96 -96 -97 -99 -97 -101 c 0
 -102 -124 -125 -143 -148 -143 c 0
 -167 -143 -181 -129 -181 -110 c 0
 -181 -107 -182 -104 -181 -101 c 0xe0
 -177 -78 -153 -60 -131 -60 c 0
EndSplineSet
Validated: 1
EndChar

StartChar: afii57800
Encoding: 1458 1458 129
Width: 0
Flags: W
HStem: -235 82<66.4116 131.619> -140 80<-195.125 33.0673 85.4045 152.454>
VStem: 57 85<-224.474 -162.933> 77 85<-130.193 -68.5041>
AnchorPoint: "VR" -40 0 mark 0
AnchorPoint: "M2V" -207 0 basemark 0
AnchorPoint: "H" 0 0 mark 0
LayerCount: 2
Fore
SplineSet
-7 -140 m 2xc0
 -172 -140 l 2
 -191 -140 -204 -127 -204 -109 c 0
 -204 -106 -204 -103 -203 -100 c 0
 -199 -78 -177 -60 -155 -60 c 2
 10 -60 l 2
 29 -60 43 -74 43 -93 c 0
 43 -95 42 -97 42 -100 c 0
 37 -122 15 -140 -7 -140 c 2xc0
108 -153 m 0
 127 -153 142 -167 142 -186 c 0
 142 -188 142 -191 141 -194 c 0
 136 -217 113 -235 91 -235 c 0
 71 -235 57 -223 57 -205 c 0
 57 -202 56 -197 57 -194 c 0xe0
 62 -171 85 -153 108 -153 c 0
129 -58 m 0
 149 -58 162 -72 162 -91 c 0
 162 -94 162 -97 161 -100 c 0
 156 -123 134 -140 111 -140 c 0
 91 -140 77 -127 77 -109 c 0
 77 -106 76 -103 77 -100 c 0xd0
 82 -77 106 -58 129 -58 c 0
EndSplineSet
Validated: 1
EndChar

StartChar: afii57802
Encoding: 1459 1459 130
Width: 0
Flags: W
HStem: -235 82<66.1797 130.82> -140 82<-193.225 -130 -50 32.0673 87.0999 152.259>
VStem: 57 84<-225.093 -162.25> 77 85<-129.927 -68.3078>
AnchorPoint: "VR" -40 0 mark 0
AnchorPoint: "M2V" -207.106 -0.5 basemark 0
AnchorPoint: "H" 0 0 mark 0
LayerCount: 2
Fore
SplineSet
107 -153 m 0xe0
 127 -153 141 -167 141 -185 c 0
 141 -188 141 -191 140 -194 c 0
 135 -217 113 -235 90 -235 c 0
 70 -235 57 -224 57 -205 c 0
 57 -202 56 -197 57 -194 c 0
 62 -171 84 -153 107 -153 c 0xe0
128 -58 m 0
 148 -58 162 -72 162 -91 c 0
 162 -94 162 -97 161 -100 c 0
 156 -123 133 -140 110 -140 c 0
 90 -140 77 -127 77 -109 c 0
 77 -106 76 -103 77 -100 c 0xd0
 82 -77 105 -58 128 -58 c 0
-130 -140 m 1
 -172 -140 l 2
 -191 -140 -204 -127 -204 -109 c 0
 -204 -106 -204 -103 -203 -100 c 0
 -199 -78 -177 -60 -155 -60 c 2
 9 -60 l 2
 28 -60 42 -74 42 -93 c 0
 42 -95 41 -97 41 -100 c 0
 36 -122 14 -140 -8 -140 c 2
 -50 -140 l 1
 -61 -194 l 2
 -66 -216 -88 -235 -110 -235 c 0
 -129 -235 -142 -223 -142 -205 c 0
 -142 -202 -142 -197 -141 -194 c 2
 -130 -140 l 1
EndSplineSet
Validated: 1
EndChar

StartChar: afii57793
Encoding: 1460 1460 131
Width: 0
Flags: W
HStem: -143 83<-54.6477 10.8203>
VStem: -65 86<-133.067 -70.5041>
AnchorPoint: "J1" 150 0 mark 0
AnchorPoint: "M2V" -90 0 basemark 0
AnchorPoint: "N" 0 0 mark 0
LayerCount: 2
Fore
SplineSet
-13 -60 m 0
 7 -60 21 -74 21 -93 c 0
 21 -96 21 -99 20 -102 c 0
 15 -125 -7 -143 -30 -143 c 0
 -50 -143 -65 -129 -65 -110 c 0
 -65 -108 -66 -105 -65 -102 c 0
 -60 -79 -36 -60 -13 -60 c 0
EndSplineSet
Validated: 1
EndChar

StartChar: afii57794
Encoding: 1461 1461 132
Width: 0
Flags: W
HStem: -142 82<-113.263 -48.1797 3.96851 69.8203>
VStem: -122 84<-132.043 -69.375> -5 85<-132.122 -69.375>
AnchorPoint: "VR" -40 0 mark 0
AnchorPoint: "M2V" -150 0 basemark 0
AnchorPoint: "W" 0 0 mark 0
LayerCount: 2
Fore
SplineSet
46 -60 m 0
 66 -60 80 -74 80 -93 c 0
 80 -96 79 -98 79 -101 c 0
 74 -124 52 -142 29 -142 c 0
 9 -142 -5 -128 -5 -110 c 0
 -5 -107 -6 -104 -5 -101 c 0
 -1 -78 23 -60 46 -60 c 0
-72 -60 m 0
 -52 -60 -38 -74 -38 -93 c 0
 -38 -96 -39 -98 -39 -101 c 0
 -44 -124 -66 -142 -89 -142 c 0
 -109 -142 -122 -129 -122 -110 c 0
 -122 -107 -123 -104 -122 -101 c 0
 -118 -78 -95 -60 -72 -60 c 0
EndSplineSet
Validated: 1
EndChar

StartChar: afii57795
Encoding: 1462 1462 133
Width: 0
Flags: W
HStem: -236 82<-74 -9.17969> -142 82<-113.263 -48.1797 3.96851 69.8203>
VStem: -122 84<-132.043 -69.375> -83 83<-226.59 -163.57> -5 85<-132.122 -69.375>
AnchorPoint: "VR" -40 0 mark 0
AnchorPoint: "M2V" -150.318 -1.5 basemark 0
AnchorPoint: "W" 0 0 mark 0
LayerCount: 2
Fore
SplineSet
-33 -154 m 0xd0
 -13 -154 0 -169 0 -188 c 0
 0 -190 0 -192 -0 -195 c 0
 -5 -218 -27 -236 -50 -236 c 0
 -70 -236 -83 -224 -83 -205 c 0
 -83 -202 -84 -198 -83 -195 c 0
 -79 -173 -56 -154 -33 -154 c 0xd0
46 -60 m 0
 66 -60 80 -74 80 -93 c 0
 80 -96 79 -98 79 -101 c 0
 74 -124 52 -142 29 -142 c 0
 9 -142 -5 -128 -5 -110 c 0
 -5 -107 -6 -104 -5 -101 c 0xc8
 -1 -78 23 -60 46 -60 c 0
-72 -60 m 0
 -52 -60 -38 -74 -38 -93 c 0
 -38 -96 -39 -98 -39 -101 c 0
 -44 -124 -66 -142 -89 -142 c 0
 -109 -142 -122 -129 -122 -110 c 0
 -122 -107 -123 -104 -122 -101 c 0xe0
 -118 -78 -95 -60 -72 -60 c 0
EndSplineSet
Validated: 1
EndChar

StartChar: afii57798
Encoding: 1463 1463 134
Width: 0
Flags: W
HStem: -140 80<-135.645 92.0673>
VStem: -144 246
AnchorPoint: "VR" -40 0 mark 0
AnchorPoint: "M2V" -170 0 basemark 0
AnchorPoint: "W" 0 0 mark 0
LayerCount: 2
Fore
SplineSet
52 -140 m 2
 -112 -140 l 2
 -131 -140 -144 -127 -144 -109 c 0
 -144 -106 -145 -103 -144 -100 c 0
 -140 -78 -117 -60 -95 -60 c 2
 69 -60 l 2
 88 -60 102 -74 102 -93 c 0
 102 -95 101 -97 101 -100 c 0
 96 -122 74 -140 52 -140 c 2
EndSplineSet
Validated: 1
EndChar

StartChar: afii57797
Encoding: 1464 1464 135
Width: 0
Flags: W
HStem: -140 80<-135.125 -70 10 92.0673>
AnchorPoint: "VR" -40 0 mark 0
AnchorPoint: "M2V" -170 0 basemark 0
AnchorPoint: "W" 0 0 mark 0
LayerCount: 2
Fore
SplineSet
-70 -140 m 1
 -112 -140 l 2
 -131 -140 -144 -127 -144 -109 c 0
 -144 -106 -144 -103 -143 -100 c 0
 -139 -78 -117 -60 -95 -60 c 2
 69 -60 l 2
 88 -60 102 -74 102 -93 c 0
 102 -95 101 -97 101 -100 c 0
 96 -122 74 -140 52 -140 c 2
 10 -140 l 1
 0 -194 l 2
 -5 -216 -28 -234 -50 -234 c 0
 -69 -234 -82 -223 -82 -205 c 0
 -82 -202 -82 -197 -81 -194 c 2
 -70 -140 l 1
EndSplineSet
Validated: 1
EndChar

StartChar: afii57806
Encoding: 1465 1465 136
Width: 0
Flags: W
HStem: 540 84<90.6436 155.747>
VStem: 81 86<551.433 613.646>
AnchorPoint: "Holam" 0 0 mark 0
LayerCount: 2
Fore
SplineSet
133 624 m 0
 153 624 167 610 167 592 c 0
 167 589 167 586 166 583 c 0
 161 560 138 540 115 540 c 0
 95 540 81 555 81 574 c 0
 81 577 80 580 81 583 c 0
 86 606 110 624 133 624 c 0
EndSplineSet
Validated: 1
EndChar

StartChar: afii57796
Encoding: 1467 1467 137
Width: 0
Flags: W
HStem: -236 82<42.9685 108.619> -189 82<-64 0.820312> -142 82<-172.062 -106.412>
VStem: -181 85<-131.474 -69.5> -73 84<-179.043 -116.57> 34 85<-225.474 -163.784>
CounterMasks: 1 1c
AnchorPoint: "VR" -40 0 mark 0
AnchorPoint: "M2V" -200 0 basemark 0
AnchorPoint: "Q" 0 0 mark 0
LayerCount: 2
Fore
SplineSet
-23 -107 m 0x5c
 -3 -107 11 -123 11 -142 c 0x3c
 11 -144 10 -145 10 -148 c 0
 5 -171 -17 -189 -40 -189 c 0
 -60 -189 -73 -176 -73 -157 c 0
 -73 -154 -74 -151 -73 -148 c 0
 -69 -126 -46 -107 -23 -107 c 0x5c
85 -154 m 0x9c
 105 -154 119 -170 119 -189 c 0x5c
 119 -191 118 -193 118 -195 c 0
 113 -218 90 -236 68 -236 c 0
 48 -236 34 -223 34 -205 c 0
 34 -202 33 -198 34 -195 c 0
 38 -173 62 -154 85 -154 c 0x9c
-131 -60 m 0x3c
 -110 -60 -96 -74 -96 -94 c 0
 -96 -96 -97 -99 -97 -101 c 0
 -102 -124 -125 -142 -148 -142 c 0
 -167 -142 -181 -128 -181 -110 c 0
 -181 -107 -182 -104 -181 -101 c 0
 -177 -78 -153 -60 -131 -60 c 0x3c
EndSplineSet
Validated: 1
EndChar

StartChar: afii57807
Encoding: 1468 1468 138
Width: 0
Flags: W
HStem: 199 83<18.3523 83.5884>
VStem: 8 86<209.526 271.496>
AnchorPoint: "D" 0 0 mark 0
LayerCount: 2
Fore
SplineSet
60 282 m 0
 80 282 94 268 94 249 c 0
 94 246 94 243 93 240 c 0
 88 217 65 199 42 199 c 0
 22 199 8 213 8 231 c 0
 8 234 7 237 8 240 c 0
 13 263 37 282 60 282 c 0
EndSplineSet
Validated: 1
EndChar

StartChar: afii57839
Encoding: 1469 1469 139
Width: 0
Flags: W
HStem: -234 174<-42.3927 -20.2597>
VStem: -70 78<-197.066 -95.9253>
AnchorPoint: "M1" 44.7998 0 mark 0
AnchorPoint: "M2V" 12.7998 0 mark 0
AnchorPoint: "N" -0.320312 0 mark 0
LayerCount: 2
Fore
SplineSet
7 -100 m 2
 -13 -194 l 2
 -18 -216 -35 -234 -50 -234 c 0
 -62 -234 -70 -221 -70 -205 c 0
 -70 -201 -71 -198 -70 -194 c 2
 -49 -100 l 2
 -45 -78 -28 -60 -13 -60 c 0
 -0 -60 8 -73 8 -90 c 0
 8 -93 8 -96 7 -100 c 2
EndSplineSet
Validated: 1
EndChar

StartChar: afii57645
Encoding: 1470 1470 140
Width: 600
Flags: W
HStem: 380 100<165.886 616.753>
LayerCount: 2
Fore
SplineSet
212 480 m 2
 592 480 l 2
 616 480 632 464 632 441 c 0
 632 437 632 434 631 430 c 0
 625 402 599 380 571 380 c 2
 191 380 l 2
 167 380 150 397 150 419 c 0
 150 423 150 426 151 430 c 0
 157 458 184 480 212 480 c 2
EndSplineSet
Validated: 1
EndChar

StartChar: afii57841
Encoding: 1471 1471 141
Width: 0
Flags: W
HStem: 540 80<9 237.125>
VStem: 0 246<549.375 610.215>
LayerCount: 2
Fore
SplineSet
197 540 m 2
 33 540 l 2
 13 540 0 554 0 573 c 1
 0 575 0 578 0 580 c 1
 5 602 28 620 50 620 c 2
 214 620 l 2
 233 620 246 607 246 589 c 0
 246 586 246 583 245 580 c 0
 241 558 219 540 197 540 c 2
EndSplineSet
Validated: 1
Substitution2: "'salt' Stylistic Alternatives lookup-1" uniFB1E
EndChar

StartChar: afii57842
Encoding: 1472 1472 142
Width: 600
Flags: W
HStem: 604 20G<425 441.5>
VStem: 228 242
LayerCount: 2
Fore
SplineSet
468 556 m 2
 332 -87 l 2
 326 -112 322 -122 313 -132 c 0
 300 -145 283 -153 267 -153 c 0
 250 -153 234 -144 228 -129 c 0
 226 -126 228 -122 228 -117 c 0
 228 -110 229 -100 232 -87 c 2
 368 556 l 2
 374 582 378 594 387 604 c 0
 400 616 417 624 433 624 c 0
 450 624 464 613 470 598 c 0
 471 594 472 588 472 583 c 0
 472 576 471 570 468 556 c 2
EndSplineSet
Validated: 1
EndChar

StartChar: afii57804
Encoding: 1473 1473 143
Width: 0
Flags: W
HStem: 540 84<90.4421 155.341>
VStem: 81 86<551.659 614.067>
LayerCount: 2
Fore
SplineSet
133 624 m 0
 152 624 167 610 167 591 c 0
 167 589 167 586 166 583 c 0
 161 560 137 540 115 540 c 0
 94 540 81 555 81 574 c 0
 81 577 80 580 81 583 c 0
 86 606 109 624 133 624 c 0
EndSplineSet
Validated: 1
EndChar

StartChar: afii57803
Encoding: 1474 1474 144
Width: 0
Flags: W
HStem: 540 84<90.4421 155.341>
VStem: 81 86<551.659 614.067>
LayerCount: 2
Fore
SplineSet
133 624 m 0
 152 624 167 610 167 591 c 0
 167 589 167 586 166 583 c 0
 161 560 137 540 115 540 c 0
 94 540 81 555 81 574 c 0
 81 577 80 580 81 583 c 0
 86 606 109 624 133 624 c 0
EndSplineSet
Validated: 1
EndChar

StartChar: afii57658
Encoding: 1475 1475 145
Width: 600
Flags: W
HStem: -15 132<261.739 359.527> 304 133<329.739 427.527>
VStem: 234 154<13.8574 89.0104> 302 154<332.857 408.784>
LayerCount: 2
Fore
SplineSet
306 -15 m 2xe0
 288 -15 l 2
 257 -15 234 8 234 37 c 0
 234 42 233 46 234 51 c 0
 241 87 280 117 316 117 c 2
 334 117 l 2
 366 117 388 95 388 65 c 0
 388 61 387 56 386 51 c 0
 378 14 343 -15 306 -15 c 2xe0
374 304 m 2
 356 304 l 2
 325 304 302 327 302 356 c 0
 302 361 301 365 302 370 c 0
 310 407 348 437 384 437 c 2
 402 437 l 2
 434 437 456 415 456 385 c 0xd0
 456 380 455 375 454 370 c 0
 446 333 411 304 374 304 c 2
EndSplineSet
Validated: 1
EndChar

StartChar: uni05C4
Encoding: 1476 1476 146
Width: 0
Flags: W
HStem: 540 84<90.6436 155.747>
VStem: 81 86<551.433 613.646>
LayerCount: 2
Fore
SplineSet
133 624 m 0
 153 624 167 610 167 592 c 0
 167 589 167 586 166 583 c 0
 161 560 138 540 115 540 c 0
 95 540 81 555 81 574 c 0
 81 577 80 580 81 583 c 0
 86 606 110 624 133 624 c 0
EndSplineSet
Validated: 1
EndChar

StartChar: afii57664
Encoding: 1488 1488 147
Width: 600
Flags: W
HStem: 0 100<181 219.114> 380 100<482.886 521>
AnchorPoint: "VR" 300 0 basechar 0
AnchorPoint: "H" 300 0 basechar 0
AnchorPoint: "W" 300 0 basechar 0
AnchorPoint: "Q" 300 0 basechar 0
AnchorPoint: "N" 300 0 basechar 0
AnchorPoint: "Holam" 45 0 basechar 0
LayerCount: 2
Fore
SplineSet
70 50 m 2
 98 177 l 2
 114 250 166 292 218 319 c 1
 159 395 l 1
 153 402 150 410 150 419 c 0
 150 437 162 455 174 465 c 1
 185 475 199 480 212 480 c 0
 225 480 237 475 244 465 c 2
 424 237 l 1
 476 259 499 276 504 303 c 2
 521 380 l 1
 508 380 l 2
 484 380 467 397 467 419 c 0
 467 423 467 426 468 430 c 0
 474 458 501 480 529 480 c 2
 592 480 l 2
 616 480 632 464 632 441 c 0
 632 437 632 434 631 430 c 2
 604 303 l 1
 587 230 535 190 482 162 c 1
 543 85 l 1
 549 78 552 70 552 61 c 0
 552 43 540 25 528 15 c 1
 517 5 503 0 490 0 c 0
 477 0 465 5 458 15 c 2
 277 244 l 1
 225 223 204 208 198 177 c 2
 181 100 l 1
 194 100 l 2
 218 100 235 83 235 61 c 0
 235 57 235 54 234 50 c 0
 228 22 201 0 173 0 c 2
 110 0 l 2
 86 0 70 16 70 39 c 0
 70 43 69 46 70 50 c 2
EndSplineSet
Validated: 1
Substitution2: "'jalt' Justification Alternatives lookup -1" uniFB21
EndChar

StartChar: afii57665
Encoding: 1489 1489 148
Width: 600
Flags: W
HStem: 0 100<85.2473 386 486 536.114> 380 100<165.886 418.817>
VStem: 432 102<221.719 366.447>
AnchorPoint: "VR" 280 0 basechar 0
AnchorPoint: "H" 280 0 basechar 0
AnchorPoint: "W" 280 0 basechar 0
AnchorPoint: "Q" 300 0 basechar 0
AnchorPoint: "N" 300 0 basechar 0
AnchorPoint: "Holam" 50 0 basechar 0
LayerCount: 2
Fore
SplineSet
371 380 m 2
 191 380 l 2
 167 380 150 397 150 419 c 0
 150 423 150 426 151 430 c 0
 157 458 184 480 212 480 c 2
 392 480 l 2
 477 480 534 421 534 341 c 0
 534 330 533 317 530 305 c 2
 486 100 l 1
 511 100 l 2
 535 100 552 83 552 61 c 0
 552 57 552 54 551 50 c 0
 545 22 518 0 490 0 c 2
 110 0 l 2
 86 0 70 16 70 39 c 0
 70 43 70 46 71 50 c 0
 77 78 103 100 131 100 c 2
 386 100 l 1
 432 305 l 2
 433 310 432 316 432 321 c 0
 432 354 407 380 371 380 c 2
EndSplineSet
Validated: 1
EndChar

StartChar: afii57666
Encoding: 1490 1490 149
Width: 600
Flags: W
HStem: 0 21G<151.5 164.5 378 404> 380 100<267.886 421>
AnchorPoint: "VR" 290 0 basechar 0
AnchorPoint: "H" 280 0 basechar 0
AnchorPoint: "W" 280 0 basechar 0
AnchorPoint: "Q" 270 0 basechar 0
AnchorPoint: "N" 280 0 basechar 0
AnchorPoint: "Holam" 130 0 basechar 0
LayerCount: 2
Fore
SplineSet
421 380 m 1
 293 380 l 2
 269 380 252 397 252 419 c 0
 252 423 252 426 253 430 c 0
 259 458 286 480 314 480 c 2
 492 480 l 2
 516 480 532 464 532 441 c 0
 532 437 532 434 531 430 c 2
 451 50 l 2
 445 22 418 0 390 0 c 0
 366 0 350 16 350 39 c 0
 350 43 350 46 351 50 c 2
 362 102 l 1
 306 59 244 26 178 3 c 0
 172 1 167 0 162 0 c 0
 141 0 121 15 121 39 c 0
 121 43 121 46 122 50 c 0
 126 71 143 90 165 98 c 0
 252 128 333 184 394 256 c 1
 421 380 l 1
EndSplineSet
Validated: 1
EndChar

StartChar: afii57667
Encoding: 1491 1491 150
Width: 600
Flags: W
HStem: 0 21G<378 404> 380 100<165.886 421 521 616.753>
AnchorPoint: "VR" 360 0 basechar 0
AnchorPoint: "H" 380 0 basechar 0
AnchorPoint: "W" 400 0 basechar 0
AnchorPoint: "Q" 380 0 basechar 0
AnchorPoint: "N" 400 0 basechar 0
AnchorPoint: "Holam" 50 0 basechar 0
LayerCount: 2
Fore
SplineSet
421 380 m 1
 191 380 l 2
 167 380 150 397 150 419 c 0
 150 423 150 426 151 430 c 0
 157 458 184 480 212 480 c 2
 592 480 l 2
 616 480 632 464 632 441 c 0
 632 437 632 434 631 430 c 0
 625 402 599 380 571 380 c 2
 521 380 l 1
 451 50 l 2
 445 22 418 0 390 0 c 0
 366 0 350 16 350 39 c 0
 350 43 350 46 351 50 c 2
 421 380 l 1
EndSplineSet
Validated: 1
Substitution2: "'jalt' Justification Alternatives lookup -1" uniFB22
EndChar

StartChar: afii57668
Encoding: 1492 1492 151
Width: 600
Flags: W
HStem: 0 21G<140 166 453 479> 380 100<190.886 468.817>
VStem: 482 102<221.328 366.447>
AnchorPoint: "VR" 300 0 basechar 0
AnchorPoint: "H" 300 0 basechar 0
AnchorPoint: "W" 300 0 basechar 0
AnchorPoint: "Q" 300 0 basechar 0
AnchorPoint: "N" 300 0 basechar 0
AnchorPoint: "Holam" 50 0 basechar 0
LayerCount: 2
Fore
SplineSet
482 305 m 2
 483 310 482 316 482 321 c 0
 482 354 457 380 421 380 c 2
 216 380 l 2
 192 380 175 397 175 419 c 0
 175 423 175 426 176 430 c 0
 182 458 209 480 237 480 c 2
 442 480 l 2
 527 480 584 421 584 341 c 0
 584 330 583 317 580 305 c 2
 526 50 l 2
 520 22 493 0 465 0 c 0
 441 0 425 16 425 39 c 0
 425 43 425 46 426 50 c 2
 482 305 l 2
113 50 m 2
 149 222 l 2
 155 250 182 272 210 272 c 0
 234 272 250 256 250 233 c 0
 250 229 250 226 249 222 c 2
 213 50 l 2
 207 22 180 0 152 0 c 0
 128 0 112 16 112 39 c 0
 112 43 112 46 113 50 c 2
EndSplineSet
Validated: 1
Substitution2: "'jalt' Justification Alternatives lookup -1" uniFB23
EndChar

StartChar: afii57669
Encoding: 1493 1493 152
Width: 600
Flags: W
HStem: 0 21G<318 344> 380 100<257.113 361>
VStem: 242 230
AnchorPoint: "D" 185 0 basechar 0
AnchorPoint: "VR" 329.894 -0.5 basechar 0
AnchorPoint: "H" 319.894 -0.5 basechar 0
AnchorPoint: "W" 319.894 -0.5 basechar 0
AnchorPoint: "Q" 299.894 -0.5 basechar 0
AnchorPoint: "N" 314.894 -0.5 basechar 0
AnchorPoint: "Holam_Haser_on Vav" 132 0 basechar 0
LayerCount: 2
Fore
SplineSet
432 480 m 2
 456 480 472 464 472 441 c 0
 472 437 472 434 471 430 c 2
 391 50 l 2
 385 22 358 0 330 0 c 0
 306 0 290 16 290 39 c 0
 290 43 290 46 291 50 c 2
 361 380 l 1
 283 380 l 2
 259 380 242 397 242 419 c 0
 242 423 241 426 242 430 c 0
 248 458 276 480 304 480 c 2
 432 480 l 2
EndSplineSet
Validated: 1
EndChar

StartChar: afii57670
Encoding: 1494 1494 153
Width: 600
Flags: W
HStem: 0 21G<288 314> 380 100<228.886 331 431 553.323>
AnchorPoint: "VR" 300 0 basechar 0
AnchorPoint: "H" 295 0 basechar 0
AnchorPoint: "W" 290 0 basechar 0
AnchorPoint: "Q" 290 0 basechar 0
AnchorPoint: "N" 295 0 basechar 0
AnchorPoint: "Holam" 100 0 basechar 0
LayerCount: 2
Fore
SplineSet
331 380 m 1
 254 380 l 2
 230 380 213 397 213 420 c 0
 213 423 213 426 214 430 c 0
 220 458 248 480 275 480 c 2
 529 480 l 2
 552 480 569 463 569 441 c 0
 569 437 569 434 568 430 c 0
 562 402 535 380 508 380 c 2
 431 380 l 1
 361 50 l 2
 355 22 328 0 300 0 c 0
 276 0 260 16 260 39 c 0
 260 43 260 46 261 50 c 2
 331 380 l 1
EndSplineSet
Validated: 1
EndChar

StartChar: afii57671
Encoding: 1495 1495 154
Width: 600
Flags: W
HStem: 0 21G<148 174 428 454> 380 100<165.886 191 291 471 571 616.753>
AnchorPoint: "VR" 300 0 basechar 0
AnchorPoint: "H" 300 0 basechar 0
AnchorPoint: "W" 300 0 basechar 0
AnchorPoint: "Q" 300 0 basechar 0
AnchorPoint: "N" 300 0 basechar 0
AnchorPoint: "Holam" 50 0 basechar 0
LayerCount: 2
Fore
SplineSet
571 380 m 1
 501 50 l 2
 495 22 468 0 440 0 c 0
 416 0 400 16 400 39 c 0
 400 43 400 46 401 50 c 2
 471 380 l 1
 291 380 l 1
 221 50 l 2
 215 22 188 0 160 0 c 0
 136 0 120 16 120 39 c 0
 120 43 120 46 121 50 c 2
 191 380 l 1
 167 380 150 397 150 419 c 0
 150 423 150 426 151 430 c 0
 157 458 184 480 212 480 c 2
 592 480 l 2
 616 480 632 464 632 441 c 0
 632 437 632 434 631 430 c 0
 625 402 599 380 571 380 c 1
EndSplineSet
Validated: 1
EndChar

StartChar: afii57672
Encoding: 1496 1496 155
Width: 600
Flags: W
HStem: -10 100<281.607 410.439> 380 100<164.73 191 419.038 506.314>
VStem: 149 102<123.889 234.167> 511 104<250.156 374.077>
AnchorPoint: "VR" 320 0 basechar 0
AnchorPoint: "H" 310 0 basechar 0
AnchorPoint: "W" 320 0 basechar 0
AnchorPoint: "Q" 300 0 basechar 0
AnchorPoint: "N" 320 0 basechar 0
AnchorPoint: "Holam" 50 0 basechar 0
LayerCount: 2
Fore
SplineSet
379 437 m 0
 410 463 450 480 492 480 c 0
 564 480 615 437 615 371 c 0
 615 361 614 351 612 340 c 2
 586 215 l 2
 560 96 442 -10 323 -10 c 0
 220 -10 149 62 149 159 c 0
 149 174 151 189 154 205 c 2
 191 380 l 1
 167 380 149 397 149 419 c 0
 149 423 148 426 149 430 c 0
 155 458 184 480 212 480 c 2
 262 480 l 2
 286 480 302 464 302 441 c 0
 302 437 302 434 301 430 c 2
 254 205 l 2
 252 197 251 188 251 181 c 0
 251 129 289 90 344 90 c 0
 407 90 472 152 486 215 c 2
 511 330 l 2
 512 334 511 337 511 341 c 0
 511 364 495 380 471 380 c 0
 459 380 444 375 435 368 c 0
 423 358 409 353 397 353 c 0
 374 353 356 370 356 393 c 0
 356 396 356 399 357 402 c 0
 360 415 367 428 379 437 c 0
EndSplineSet
Validated: 1
EndChar

StartChar: afii57673
Encoding: 1497 1497 156
Width: 600
Flags: W
HStem: 380 100<257.113 361>
VStem: 242 230
AnchorPoint: "VR" 320 0 basechar 0
AnchorPoint: "H" 300 0 basechar 0
AnchorPoint: "W" 300 0 basechar 0
AnchorPoint: "Q" 300 0 basechar 0
AnchorPoint: "N" 320 0 basechar 0
AnchorPoint: "Holam" 120 0 basechar 0
LayerCount: 2
Fore
SplineSet
432 480 m 2
 456 480 472 464 472 441 c 0
 472 437 472 434 471 430 c 2
 433 250 l 2
 427 222 401 200 373 200 c 0
 349 200 332 217 332 239 c 0
 332 243 332 246 333 250 c 2
 361 380 l 1
 283 380 l 2
 259 380 242 397 242 419 c 0
 242 423 241 426 242 430 c 0
 248 458 276 480 304 480 c 2
 432 480 l 2
EndSplineSet
Validated: 1
EndChar

StartChar: afii57674
Encoding: 1498 1498 157
Width: 600
Flags: W
HStem: -200 100<389 462.986> 380 100<135.886 391 491 586.753>
AnchorPoint: "VR" 70 0 basechar 0
AnchorPoint: "H" 110 0 basechar 0
AnchorPoint: "W" 160 0 basechar 0
AnchorPoint: "Q" 130 0 basechar 0
AnchorPoint: "N" 230 0 basechar 0
AnchorPoint: "Holam" 20 0 basechar 0
LayerCount: 2
Fore
SplineSet
277 -150 m 2
 391 380 l 1
 161 380 l 2
 137 380 120 397 120 419 c 0
 120 423 120 426 121 430 c 0
 127 458 154 480 182 480 c 2
 562 480 l 2
 586 480 602 464 602 441 c 0
 602 437 602 434 601 430 c 0
 595 402 569 380 541 380 c 2
 491 380 l 1
 389 -100 l 1
 439 -100 l 2
 463 -100 479 -116 479 -139 c 0
 479 -143 479 -146 478 -150 c 0
 472 -178 445 -200 417 -200 c 2
 317 -200 l 2
 293 -200 277 -184 277 -161 c 0
 277 -157 276 -154 277 -150 c 2
EndSplineSet
Validated: 1
EndChar

StartChar: afii57675
Encoding: 1499 1499 158
Width: 600
Flags: W
HStem: 0 100<105.247 385.87> 380 100<185.886 436.523>
VStem: 462 102<200.008 353.672>
AnchorPoint: "VR" 290 0 basechar 0
AnchorPoint: "H" 250 0 basechar 0
AnchorPoint: "W" 250 0 basechar 0
AnchorPoint: "Q" 250 0 basechar 0
AnchorPoint: "N" 250 0 basechar 0
AnchorPoint: "Holam" 50 0 basechar 0
LayerCount: 2
Fore
SplineSet
300 0 m 2
 130 0 l 2
 106 0 90 16 90 39 c 0
 90 43 90 46 91 50 c 0
 97 78 123 100 151 100 c 2
 321 100 l 2
 376 100 431 145 443 200 c 2
 462 280 l 2
 463 287 462 293 462 300 c 0
 462 345 429 380 381 380 c 2
 211 380 l 2
 187 380 170 397 170 419 c 0
 170 423 170 426 171 430 c 0
 177 458 204 480 232 480 c 2
 402 480 l 2
 498 480 564 411 564 321 c 0
 564 308 563 294 560 280 c 2
 543 200 l 2
 519 90 410 0 300 0 c 2
EndSplineSet
Validated: 1
Substitution2: "'jalt' Justification Alternatives lookup -1" uniFB24
EndChar

StartChar: afii57676
Encoding: 1500 1500 159
Width: 600
Flags: W
HStem: 0 100<371 415.114> 380 100<312 521>
AnchorPoint: "J1" 25 0 basechar 0
AnchorPoint: "VR" 350 0 basechar 0
AnchorPoint: "H" 350 0 basechar 0
AnchorPoint: "W" 330 0 basechar 0
AnchorPoint: "Q" 350 0 basechar 0
AnchorPoint: "N" 330 0 basechar 0
AnchorPoint: "Holam" 45 0 basechar 0
LayerCount: 2
Fore
SplineSet
374 114 m 1
 371 100 l 1
 390 100 l 2
 414 100 431 83 431 61 c 0
 431 57 431 54 430 50 c 0
 424 22 397 0 369 0 c 2
 300 0 l 2
 276 0 260 16 260 39 c 0
 260 43 260 46 261 50 c 2
 279 135 l 2
 282 149 290 162 301 171 c 2
 513 345 l 1
 521 380 l 1
 241 380 l 2
 217 380 200 397 200 419 c 0
 200 423 200 426 201 430 c 2
 233 580 l 2
 239 608 266 630 294 630 c 0
 318 630 334 614 334 591 c 0
 334 587 334 584 333 580 c 2
 312 480 l 1
 592 480 l 2
 616 480 632 464 632 441 c 0
 632 437 632 434 631 430 c 2
 609 325 l 2
 606 312 600 301 590 292 c 2
 374 114 l 1
EndSplineSet
Validated: 1
Substitution2: "'jalt' Justification Alternatives lookup -1" uniFB25
EndChar

StartChar: afii57677
Encoding: 1501 1501 160
Width: 600
Flags: W
HStem: 0 100<231 461> 380 100<165.886 191 291 493.817>
VStem: 507 102<221.719 366.447>
AnchorPoint: "VR" 320 0 basechar 0
AnchorPoint: "H" 330 0 basechar 0
AnchorPoint: "W" 320 0 basechar 0
AnchorPoint: "Q" 320 0 basechar 0
AnchorPoint: "N" 314 0 basechar 0
AnchorPoint: "Holam" 50 0 basechar 0
LayerCount: 2
Fore
SplineSet
191 380 m 1
 167 380 150 397 150 419 c 0
 150 423 150 426 151 430 c 0
 157 458 184 480 212 480 c 2
 467 480 l 2
 552 480 609 421 609 341 c 0
 609 330 608 317 605 305 c 2
 551 50 l 2
 545 22 518 0 490 0 c 2
 160 0 l 2
 136 0 120 16 120 39 c 0
 120 43 120 46 121 50 c 2
 191 380 l 1
291 380 m 1
 231 100 l 1
 461 100 l 1
 507 305 l 2
 508 310 507 316 507 321 c 0
 507 354 482 380 446 380 c 2
 291 380 l 1
EndSplineSet
Validated: 1
Substitution2: "'jalt' Justification Alternatives lookup -1" uniFB26
EndChar

StartChar: afii57678
Encoding: 1502 1502 161
Width: 600
Flags: W
HStem: 0 100<295.247 461> 380 100<165.886 191 335.397 468.393>
VStem: 499 102<234.9 346.111>
AnchorPoint: "VR" 320 0 basechar 0
AnchorPoint: "H" 320 0 basechar 0
AnchorPoint: "W" 310 0 basechar 0
AnchorPoint: "Q" 320 0 basechar 0
AnchorPoint: "N" 300.425 2 basechar 0
AnchorPoint: "Holam" 50 0 basechar 0
LayerCount: 2
Fore
SplineSet
303 445 m 1
 340 467 384 480 427 480 c 0
 530 480 601 408 601 311 c 0
 601 296 599 281 596 265 c 2
 551 50 l 2
 545 22 518 0 490 0 c 2
 320 0 l 2
 296 0 280 16 280 39 c 0
 280 43 280 46 281 50 c 0
 287 78 313 100 341 100 c 2
 461 100 l 1
 496 265 l 2
 498 273 499 282 499 289 c 0
 499 341 461 380 406 380 c 0
 343 380 280 328 266 265 c 2
 221 50 l 2
 215 22 188 0 160 0 c 0
 136 0 120 16 120 39 c 0
 120 43 120 46 121 50 c 2
 191 380 l 1
 167 380 150 397 150 419 c 0
 150 423 150 426 151 430 c 0
 157 458 184 480 212 480 c 2
 262 480 l 2
 284 480 300 465 303 445 c 1
EndSplineSet
Validated: 1
EndChar

StartChar: afii57679
Encoding: 1503 1503 162
Width: 600
Flags: W
HStem: -201 100<412 485.986> 379 100<338.113 414>
VStem: 323 202<387.594 463.212>
AnchorPoint: "VR" 100 0 basechar 0
AnchorPoint: "H" 120 0 basechar 0
AnchorPoint: "W" 190 0 basechar 0
AnchorPoint: "Q" 170 0 basechar 0
AnchorPoint: "N" 220 0 basechar 0
AnchorPoint: "Holam" 200 0 basechar 0
LayerCount: 2
Fore
SplineSet
524 429 m 2
 412 -101 l 1
 462 -101 l 2
 486 -101 502 -117 502 -140 c 0
 502 -144 502 -147 501 -151 c 0
 495 -179 468 -201 440 -201 c 2
 340 -201 l 2
 316 -201 300 -185 300 -162 c 0
 300 -158 300 -155 301 -151 c 2
 414 379 l 1
 364 379 l 2
 340 379 323 396 323 418 c 0
 323 422 322 425 323 429 c 0
 329 457 357 479 385 479 c 2
 485 479 l 2
 509 479 525 463 525 440 c 0
 525 436 525 433 524 429 c 2
EndSplineSet
Validated: 1
EndChar

StartChar: afii57680
Encoding: 1504 1504 163
Width: 600
Flags: W
HStem: 0 100<205.247 341> 380 100<285.886 373.817>
VStem: 387 102<221.719 366.447>
AnchorPoint: "VR" 300 0 basechar 0
AnchorPoint: "H" 300 0 basechar 0
AnchorPoint: "W" 300 0 basechar 0
AnchorPoint: "Q" 303 0 basechar 0
AnchorPoint: "N" 300 0 basechar 0
AnchorPoint: "Holam" 150 0 basechar 0
LayerCount: 2
Fore
SplineSet
251 100 m 2
 341 100 l 1
 387 305 l 2
 388 310 387 316 387 321 c 0
 387 354 362 380 326 380 c 2
 311 380 l 2
 287 380 270 397 270 419 c 0
 270 423 270 426 271 430 c 0
 277 458 304 480 332 480 c 2
 347 480 l 2
 432 480 489 421 489 341 c 0
 489 330 488 317 485 305 c 2
 431 50 l 2
 425 22 398 0 370 0 c 2
 230 0 l 2
 206 0 190 16 190 39 c 0
 190 43 190 46 191 50 c 0
 197 78 223 100 251 100 c 2
EndSplineSet
Validated: 1
EndChar

StartChar: afii57681
Encoding: 1505 1505 164
Width: 600
Flags: W
HStem: -10 100<281.607 415.235> 380 100<164.73 191 291 493.817>
VStem: 149 102<122.314 284.297> 507 102<220.625 366.447>
AnchorPoint: "VR" 320 0 basechar 0
AnchorPoint: "H" 320 0 basechar 0
AnchorPoint: "W" 315 0 basechar 0
AnchorPoint: "Q" 299.787 -1 basechar 0
AnchorPoint: "N" 315 0 basechar 0
AnchorPoint: "Holam" 50 0 basechar 0
LayerCount: 2
Fore
SplineSet
291 380 m 1
 254 205 l 2
 252 197 251 188 251 181 c 0
 251 129 289 90 344 90 c 0
 407 90 470 142 484 205 c 2
 507 305 l 2
 508 310 507 316 507 321 c 0
 507 354 482 380 446 380 c 2
 291 380 l 1
191 380 m 1
 167 380 149 397 149 419 c 0
 149 423 148 426 149 430 c 0
 155 458 184 480 212 480 c 2
 467 480 l 2
 552 480 609 421 609 341 c 0
 609 330 608 317 605 305 c 2
 584 205 l 2
 558 86 442 -10 323 -10 c 0
 220 -10 149 62 149 159 c 0
 149 174 151 189 154 205 c 2
 191 380 l 1
EndSplineSet
Validated: 1
EndChar

StartChar: afii57682
Encoding: 1506 1506 165
Width: 600
Flags: W
HStem: 0 100<85.2473 151 251 366.908> 380 100<165.886 211 425.886 471>
AnchorPoint: "VR" 280 0 basechar 0
AnchorPoint: "H" 270 0 basechar 0
AnchorPoint: "W" 260 0 basechar 0
AnchorPoint: "Q" 270 0 basechar 0
AnchorPoint: "N" 250 0 basechar 0
AnchorPoint: "Holam" 50 0 basechar 0
LayerCount: 2
Fore
SplineSet
275 0 m 2
 110 0 l 2
 86 0 70 16 70 39 c 0
 70 43 70 46 71 50 c 0
 77 78 103 100 131 100 c 2
 151 100 l 1
 211 380 l 1
 191 380 l 2
 167 380 150 397 150 419 c 0
 150 423 150 426 151 430 c 0
 157 458 184 480 212 480 c 2
 282 480 l 2
 306 480 322 464 322 441 c 0
 322 437 322 434 321 430 c 2
 251 100 l 1
 296 100 l 2
 359 100 422 152 436 215 c 2
 471 380 l 1
 451 380 l 2
 427 380 410 397 410 419 c 0
 410 423 410 426 411 430 c 0
 417 458 444 480 472 480 c 2
 542 480 l 2
 566 480 582 464 582 441 c 0
 582 437 582 434 581 430 c 2
 536 215 l 2
 510 96 394 0 275 0 c 2
EndSplineSet
Validated: 1
Substitution2: "'salt' Stylistic Alternatives lookup-1" uniFB20
Substitution2: "Alternate Ayin Substitution-1" uniFB20
EndChar

StartChar: afii57683
Encoding: 1507 1507 166
Width: 600
Flags: W
HStem: 140 100<228.458 295.753> 380 100<241 443.817>
VStem: 122 101<243.514 340.278> 457 102<273.5 366.447>
AnchorPoint: "VR" 150 0 basechar 0
AnchorPoint: "H" 185 0 basechar 0
AnchorPoint: "W" 220 0 basechar 0
AnchorPoint: "Q" 200 0 basechar 0
AnchorPoint: "N" 300 0 basechar 0
AnchorPoint: "Holam" 50 0 basechar 0
LayerCount: 2
Fore
SplineSet
264 240 m 2
 271 240 l 2
 295 240 311 224 311 201 c 0
 311 197 311 194 310 190 c 0
 304 162 278 140 250 140 c 2
 243 140 l 2
 163 140 122 193 122 267 c 0
 122 282 123 298 127 315 c 2
 151 430 l 2
 157 458 184 480 212 480 c 2
 417 480 l 2
 502 480 559 421 559 341 c 0
 559 330 558 317 555 305 c 2
 469 -100 l 1
 493 -100 509 -116 509 -139 c 0
 509 -143 509 -146 508 -150 c 0
 502 -178 475 -200 447 -200 c 2
 397 -200 l 2
 373 -200 357 -184 357 -161 c 0
 357 -157 357 -154 358 -150 c 2
 457 305 l 2
 458 310 457 316 457 321 c 0
 457 354 432 380 396 380 c 2
 241 380 l 1
 227 315 l 2
 225 304 223 294 223 284 c 0
 223 258 234 240 264 240 c 2
EndSplineSet
Validated: 1
EndChar

StartChar: afii57684
Encoding: 1508 1508 167
Width: 600
Flags: W
HStem: 0 100<85.2473 390.505> 190 100<222 291.323> 380 100<241 443.817>
VStem: 457 102<221.719 366.447>
CounterMasks: 1 e0
AnchorPoint: "VR" 290 0 basechar 0
AnchorPoint: "H" 250 0 basechar 0
AnchorPoint: "W" 250 0 basechar 0
AnchorPoint: "Q" 300 0 basechar 0
AnchorPoint: "N" 270 0 basechar 0
AnchorPoint: "Holam" 50 0 basechar 0
LayerCount: 2
Fore
SplineSet
175 190 m 1
 140 191 114 215 114 249 c 0
 114 254 115 260 116 265 c 2
 151 430 l 2
 157 458 184 480 212 480 c 2
 417 480 l 2
 502 480 559 421 559 341 c 0
 559 330 558 317 555 305 c 2
 527 175 l 2
 507 78 412 0 315 0 c 2
 110 0 l 2
 86 0 70 16 70 39 c 0
 70 43 70 46 71 50 c 0
 77 78 103 100 131 100 c 2
 336 100 l 2
 377 100 418 134 427 175 c 2
 457 305 l 2
 458 310 457 316 457 321 c 0
 457 354 432 380 396 380 c 2
 241 380 l 1
 222 290 l 1
 265 288 l 1
 289 288 306 271 306 249 c 0
 306 245 306 242 305 238 c 0
 299 210 272 190 244 190 c 2
 175 190 l 1
EndSplineSet
Validated: 1
EndChar

StartChar: afii57685
Encoding: 1509 1509 168
Width: 600
Flags: W
HStem: -200 100<209 262.986> 100 100<273 418.718> 380 100<165.886 211 455.886 501>
AnchorPoint: "M1" 93 0 basechar 0
AnchorPoint: "H" 431.492 87 basechar 0
AnchorPoint: "W" 449.126 10 basechar 0
AnchorPoint: "Q" 431.502 40 basechar 0
AnchorPoint: "N" 370 0 basechar 0
AnchorPoint: "Holam" 50 0 basechar 0
LayerCount: 2
Fore
SplineSet
348 200 m 2
 411 200 474 252 487 315 c 2
 501 380 l 1
 481 380 l 2
 457 380 440 397 440 419 c 0
 440 423 440 426 441 430 c 0
 447 458 474 480 502 480 c 2
 572 480 l 2
 596 480 612 464 612 441 c 0
 612 437 612 434 611 430 c 2
 587 315 l 2
 562 196 445 100 326 100 c 2
 251 100 l 1
 209 -100 l 1
 239 -100 l 2
 263 -100 279 -116 279 -139 c 0
 279 -143 279 -146 278 -150 c 0
 272 -178 245 -200 217 -200 c 2
 137 -200 l 2
 113 -200 97 -184 97 -161 c 0
 97 -157 97 -154 98 -150 c 2
 211 380 l 1
 191 380 l 2
 167 380 150 397 150 419 c 0
 150 423 150 426 151 430 c 0
 157 458 184 480 212 480 c 2
 282 480 l 2
 306 480 322 464 322 441 c 0
 322 437 322 434 321 430 c 2
 273 200 l 1
 348 200 l 2
EndSplineSet
Validated: 1
EndChar

StartChar: afii57686
Encoding: 1510 1510 169
Width: 600
Flags: W
HStem: 0 100<85.2473 433> 380 100<165.886 211 455.886 501>
VStem: 207 102<319.427 380>
AnchorPoint: "VR" 280 0 basechar 0
AnchorPoint: "H" 290 0 basechar 0
AnchorPoint: "W" 270 0 basechar 0
AnchorPoint: "Q" 280 0 basechar 0
AnchorPoint: "N" 280 0 basechar 0
AnchorPoint: "Holam" 50 0 basechar 0
LayerCount: 2
Fore
SplineSet
487 214 m 1
 519 188 538 149 538 103 c 0
 538 92 537 81 535 69 c 2
 531 50 l 2
 525 22 498 0 470 0 c 2
 110 0 l 2
 86 0 70 16 70 39 c 0
 70 43 70 46 71 50 c 0
 77 78 103 100 131 100 c 2
 433 100 l 1
 431 111 425 121 416 129 c 1
 262 231 l 1
 228 256 207 296 207 343 c 0
 207 355 208 367 211 380 c 1
 191 380 l 2
 167 380 150 397 150 419 c 0
 150 423 150 426 151 430 c 0
 157 458 184 480 212 480 c 2
 282 480 l 2
 306 480 322 464 322 441 c 0
 322 437 322 434 321 430 c 2
 311 380 l 2
 310 374 309 369 309 364 c 0
 309 344 318 326 333 316 c 2
 401 271 l 1
 457 291 492 337 501 380 c 1
 481 380 l 2
 457 380 440 397 440 419 c 0
 440 423 440 426 441 430 c 0
 447 458 474 480 502 480 c 2
 572 480 l 2
 596 480 612 464 612 441 c 0
 612 437 612 434 611 430 c 2
 601 380 l 2
 587 313 543 253 487 214 c 1
EndSplineSet
Validated: 1
EndChar

StartChar: afii57687
Encoding: 1511 1511 170
Width: 600
Flags: W
HStem: -200 500<112 219> 0 100<396 440.114> 380 100<190.886 496>
AnchorPoint: "M1" 75 0 basechar 0
AnchorPoint: "H" 400 0 basechar 0
AnchorPoint: "W" 345 0 basechar 0
AnchorPoint: "Q" 380 0 basechar 0
AnchorPoint: "N" 325 0 basechar 0
AnchorPoint: "Holam" 75 0 basechar 0
LayerCount: 2
Fore
SplineSet
216 380 m 2x60
 192 380 175 397 175 419 c 0
 175 423 175 426 176 430 c 0
 182 458 209 480 237 480 c 2
 567 480 l 2
 591 480 607 464 607 441 c 0
 607 437 607 434 606 430 c 2
 574 276 l 2
 571 263 565 252 555 243 c 2
 399 114 l 1
 396 100 l 1
 415 100 l 2
 439 100 456 83 456 61 c 0
 456 57 456 54 455 50 c 0
 449 22 422 0 394 0 c 2
 325 0 l 2
 301 0 285 16 285 39 c 0
 285 43 285 46 286 50 c 2
 304 135 l 2
 307 149 315 162 326 171 c 2
 478 296 l 1
 496 380 l 1
 216 380 l 2x60
258 250 m 2
 173 -150 l 2
 167 -178 140 -200 112 -200 c 0
 88 -200 72 -184 72 -161 c 0
 72 -157 72 -154 73 -150 c 2
 158 250 l 2
 164 278 191 300 219 300 c 0xa0
 243 300 259 284 259 261 c 0
 259 257 259 254 258 250 c 2
EndSplineSet
Validated: 1
EndChar

StartChar: afii57688
Encoding: 1512 1512 171
Width: 600
Flags: W
HStem: 0 21G<448 474> 380 100<185.886 463.817>
VStem: 477 102<221.328 366.447>
AnchorPoint: "VR" 385 0 basechar 0
AnchorPoint: "H" 420 0 basechar 0
AnchorPoint: "W" 450 0 basechar 0
AnchorPoint: "Q" 440 0 basechar 0
AnchorPoint: "N" 450 0 basechar 0
AnchorPoint: "Holam" 60 0 basechar 0
LayerCount: 2
Fore
SplineSet
477 305 m 2
 478 310 477 316 477 321 c 0
 477 354 452 380 416 380 c 2
 211 380 l 2
 187 380 170 397 170 419 c 0
 170 423 170 426 171 430 c 0
 177 458 204 480 232 480 c 2
 437 480 l 2
 522 480 579 421 579 341 c 0
 579 330 578 317 575 305 c 2
 521 50 l 2
 515 22 488 0 460 0 c 0
 436 0 420 16 420 39 c 0
 420 43 420 46 421 50 c 2
 477 305 l 2
EndSplineSet
Validated: 1
Substitution2: "'jalt' Justification Alternatives lookup -1" uniFB27
EndChar

StartChar: afii57689
Encoding: 1513 1513 172
Width: 600
Flags: W
HStem: 0 100<208.183 271 371 440.505>
VStem: 93 102<113.553 205.776>
AnchorPoint: "VR" 300 0 basechar 0
AnchorPoint: "H" 300 0 basechar 0
AnchorPoint: "W" 300 0 basechar 0
AnchorPoint: "Q" 300 0 basechar 0
AnchorPoint: "N" 300 0 basechar 0
AnchorPoint: "Holam" 51.377 30 basechar 0
LayerCount: 2
Fore
SplineSet
271 100 m 1
 341 430 l 2
 347 458 374 480 402 480 c 0
 426 480 442 464 442 441 c 0
 442 437 442 434 441 430 c 2
 371 100 l 1
 386 100 l 2
 427 100 468 134 477 175 c 2
 531 430 l 2
 537 458 564 480 592 480 c 0
 616 480 632 464 632 441 c 0
 632 437 632 434 631 430 c 2
 577 175 l 2
 557 78 462 0 365 0 c 2
 235 0 l 2
 150 0 93 59 93 139 c 0
 93 150 94 163 97 175 c 2
 151 430 l 2
 157 458 184 480 212 480 c 0
 236 480 252 464 252 441 c 0
 252 437 252 434 251 430 c 2
 197 175 l 2
 196 170 195 164 195 159 c 0
 195 126 220 100 256 100 c 2
 271 100 l 1
EndSplineSet
Validated: 1
EndChar

StartChar: afii57690
Encoding: 1514 1514 173
Width: 600
Flags: W
HStem: 0 100<85.2473 141> 380 100<165.886 201 301 463.817>
VStem: 477 102<221.328 366.447>
AnchorPoint: "Holam" 45 0 basechar 0
AnchorPoint: "N" 300 0 basechar 0
AnchorPoint: "Q" 300 0 basechar 0
AnchorPoint: "W" 290 0 basechar 0
AnchorPoint: "H" 300 0 basechar 0
AnchorPoint: "VR" 300 0 basechar 0
LayerCount: 2
Fore
SplineSet
301 380 m 1
 231 50 l 2
 225 22 198 0 170 0 c 2
 110 0 l 2
 86 0 70 16 70 39 c 0
 70 43 70 46 71 50 c 0
 77 78 103 100 131 100 c 2
 141 100 l 1
 201 380 l 1
 191 380 l 2
 167 380 150 397 150 419 c 0
 150 423 150 426 151 430 c 0
 157 458 184 480 212 480 c 2
 437 480 l 2
 522 480 579 421 579 341 c 0
 579 330 578 317 575 305 c 2
 521 50 l 2
 515 22 488 0 460 0 c 0
 436 0 420 16 420 39 c 0
 420 43 420 46 421 50 c 2
 477 305 l 2
 478 310 477 316 477 321 c 0
 477 354 452 380 416 380 c 2
 301 380 l 1
EndSplineSet
Validated: 1
Substitution2: "'jalt' Justification Alternatives lookup -1" uniFB28
EndChar

StartChar: uni05F3
Encoding: 1523 1523 177
Width: 600
Flags: W
HStem: 315 289<276 307.139>
VStem: 250 120
LayerCount: 2
Fore
SplineSet
276 604 m 1
 370 604 l 1
 310 351 l 1
 307 326 298 315 280 315 c 0
 262 315 253 326 250 351 c 1
 276 604 l 1
EndSplineSet
Validated: 1
EndChar

StartChar: uni05F4
Encoding: 1524 1524 178
Width: 600
Flags: W
HStem: 315 289<184 215.139 364 395.139>
VStem: 158 300
LayerCount: 2
Fore
SplineSet
184 604 m 1
 278 604 l 1
 218 351 l 1
 215 326 206 315 188 315 c 0
 170 315 161 326 158 351 c 1
 184 604 l 1
364 604 m 1
 458 604 l 1
 398 351 l 1
 395 326 386 315 368 315 c 0
 350 315 341 326 338 351 c 1
 364 604 l 1
EndSplineSet
Validated: 1
EndChar

StartChar: endash
Encoding: 8211 8211 183
Width: 600
Flags: W
HStem: 229 100<134.514 583.576>
LayerCount: 2
Fore
SplineSet
541 229 m 2
 157 229 l 2
 132 229 121 231 114 238 c 0
 105 246 100 257 100 270 c 0
 100 273 100 276 101 279 c 0
 105 296 117 312 134 322 c 0
 145 328 153 329 178 329 c 2
 562 329 l 2
 588 329 598 327 606 320 c 0
 614 313 619 302 619 291 c 0
 619 287 618 283 617 279 c 0
 614 262 601 245 584 236 c 0
 575 231 563 229 541 229 c 2
EndSplineSet
Validated: 1
EndChar

StartChar: emdash
Encoding: 8212 8212 184
Width: 600
Flags: W
HStem: 229 100<63.5135 654.576>
LayerCount: 2
Fore
SplineSet
612 229 m 2
 86 229 l 2
 61 229 50 231 43 238 c 0
 34 246 29 258 29 270 c 0
 29 273 29 276 30 279 c 0
 34 296 47 313 63 322 c 0
 74 328 82 329 107 329 c 2
 633 329 l 2
 659 329 669 327 676 320 c 0
 685 312 690 302 690 291 c 0
 690 287 689 283 688 279 c 0
 685 262 672 245 655 236 c 0
 646 231 634 229 612 229 c 2
EndSplineSet
Validated: 1
EndChar

StartChar: afii00208
Encoding: 8213 8213 185
Width: 600
Flags: W
HStem: 229 100<63.5135 654.576>
LayerCount: 2
Fore
SplineSet
612 229 m 2
 86 229 l 2
 61 229 50 231 43 238 c 0
 34 246 29 258 29 270 c 0
 29 273 29 276 30 279 c 0
 34 296 47 313 63 322 c 0
 74 328 82 329 107 329 c 2
 633 329 l 2
 659 329 669 327 676 320 c 0
 685 312 690 302 690 291 c 0
 690 287 689 283 688 279 c 0
 685 262 672 245 655 236 c 0
 646 231 634 229 612 229 c 2
EndSplineSet
Validated: 1
EndChar

StartChar: quoteright
Encoding: 8217 8217 186
Width: 600
Flags: HW
LayerCount: 2
Fore
SplineSet
350 623 m 1
 483 623 l 1
 285 355 l 2
 273 339 260 331 248 331 c 0
 234 331 222 341 222 353 c 0
 222 360 223 364 230 378 c 2
 350 623 l 1
EndSplineSet
EndChar

StartChar: quotesinglbase
Encoding: 8218 8218 187
Width: 600
Flags: HW
LayerCount: 2
Fore
SplineSet
246 134 m 1
 379 134 l 1
 181 -134 l 2
 169 -150 156 -158 144 -158 c 0
 130 -158 118 -148 118 -136 c 0
 118 -129 119 -125 126 -111 c 2
 246 134 l 1
EndSplineSet
EndChar

StartChar: quotedblright
Encoding: 8221 8221 188
Width: 600
Flags: W
HStem: 582 20<286 419 419 419 487 619 619 619>
LayerCount: 2
Fore
SplineSet
286 602 m 1
 419 602 l 1
 229 372 l 2
 214 354 204 348 191 348 c 0
 178 348 166 358 166 370 c 0
 166 376 169 386 174 395 c 2
 286 602 l 1
487 602 m 1
 619 602 l 1
 429 372 l 2
 414 354 405 348 391 348 c 0
 378 348 366 358 366 370 c 0
 366 376 369 386 374 395 c 2
 487 602 l 1
EndSplineSet
EndChar

StartChar: quotedblbase
Encoding: 8222 8222 189
Width: 600
Flags: HW
LayerCount: 2
Fore
SplineSet
186 134 m 1
 319 134 l 1
 129 -96 l 2
 114 -114 104 -120 91 -120 c 0
 78 -120 66 -110 66 -98 c 0
 66 -92 69 -82 74 -73 c 2
 186 134 l 1
387 134 m 1
 519 134 l 1
 329 -96 l 2
 314 -114 305 -120 291 -120 c 0
 278 -120 266 -110 266 -98 c 0
 266 -92 269 -82 274 -73 c 2
 387 134 l 1
EndSplineSet
EndChar

StartChar: afii57636
Encoding: 8362 8362 190
Width: 600
Flags: W
HStem: 0 100<295 500.575> 380 100<203 383.223>
VStem: 395 102<230.126 367.481>
LayerCount: 2
Fore
SplineSet
509 145 m 1
 569 430 l 2
 575 458 602 480 630 480 c 0
 654 480 670 464 670 441 c 0
 670 437 670 434 669 430 c 2
 607 137 l 2
 601 106 580 62 539 35 c 1
 498 6 456 0 423 0 c 2
 174 0 l 1
 224 234 l 2
 230 262 256 284 284 284 c 0
 308 284 325 267 325 245 c 0
 325 241 325 238 324 234 c 2
 295 100 l 1
 435 100 l 1
 469 101 476 102 491 112 c 1
 507 126 501 116 509 145 c 1
492 312 m 2
 476 234 l 2
 470 206 443 184 415 184 c 0
 391 184 375 200 375 223 c 0
 375 227 375 230 376 234 c 2
 390 303 l 1
 393 320 395 330 395 336 c 0
 395 345 392 349 383 360 c 1
 363 378 352 379 305 380 c 1
 203 380 l 1
 133 50 l 2
 127 22 100 0 72 0 c 0
 48 0 32 16 32 39 c 0
 32 43 32 46 33 50 c 2
 124 480 l 1
 336 480 l 2
 382 480 429 473 463 437 c 1
 488 414 497 383 497 353 c 0
 497 339 495 325 492 312 c 2
EndSplineSet
Validated: 1
EndChar

StartChar: Euro
Encoding: 8364 8364 191
Width: 600
Flags: W
HStem: -14 100<267.072 441.645> 205 56<55.5133 106 224 416.131> 303 56<75.7852 123 249 464.416> 497 100<342.924 492.316> 563 20G<595 611>
VStem: 106 112<135.235 205> 523 93<384.32 465.667>
LayerCount: 2
Fore
SplineSet
432 597 m 0xf6
 479 597 517 587 560 559 c 1
 575 576 587 583 603 583 c 0xee
 619 583 631 574 637 559 c 0
 638 556 639 552 639 548 c 0
 639 542 637 533 634 517 c 2
 616 433 l 2
 611 408 606 397 598 388 c 0
 587 375 571 367 557 367 c 0
 533 367 523 380 523 411 c 0
 523 414 523 417 523 420 c 0
 523 423 523 425 523 427 c 0
 523 447 516 459 496 473 c 0
 475 488 444 497 415 497 c 0
 346 497 282 444 249 359 c 1
 444 359 l 2
 459 359 467 352 467 339 c 0
 467 337 467 334 466 331 c 0
 463 313 450 303 432 303 c 2
 233 303 l 1
 224 261 l 1
 396 261 l 2
 411 261 419 254 419 241 c 0
 419 238 418 236 418 233 c 0
 414 215 402 205 385 205 c 2
 218 205 l 1
 218 130 265 86 347 86 c 0
 385 86 424 95 449 109 c 0
 460 115 460 115 491 143 c 0
 504 154 515 159 526 159 c 0
 547 159 562 142 562 120 c 0
 562 117 562 113 561 109 c 0
 556 86 534 60 498 36 c 0
 452 5 386 -14 322 -14 c 0
 189 -14 106 66 106 190 c 0
 106 195 106 200 106 205 c 1
 75 205 l 2
 61 205 53 212 53 225 c 0
 53 227 53 230 54 233 c 0
 57 251 68 261 86 261 c 2
 114 261 l 1
 123 303 l 1
 95 303 l 2
 81 303 73 310 73 323 c 0
 73 326 74 328 74 331 c 0
 78 349 88 359 106 359 c 2
 138 359 l 1
 184 498 306 597 432 597 c 0xf6
EndSplineSet
Validated: 1
EndChar

StartChar: SF110000
Encoding: 9474 9474 192
Width: 600
Flags: W
VStem: 230 267
LayerCount: 2
Fore
SplineSet
497 833 m 2
 270 -233 l 2
 267 -251 258 -260 245 -260 c 0
 232 -260 227 -251 230 -233 c 2
 457 833 l 2
 461 851 470 860 483 860 c 0
 496 860 501 851 497 833 c 2
EndSplineSet
Validated: 1
EndChar

StartChar: uni25CC
Encoding: 9676 9676 193
Width: 600
Flags: W
HStem: 0 83<248.642 368.337> 41 122<166.237 204.469 453.969 475> 172 138<127.544 177.518 525.793 572.937> 322 121<230.318 249.969 495.141 547.294> 401 78<333.402 454.063>
VStem: 125 113<68.7835 124.652> 241 137<11.4302 74.5401> 464 114<355.904 410.7> 515 80<220.028 300.47>
LayerCount: 2
Fore
SplineSet
238 90 m 0x66
 238 63 210 41 189 41 c 0
 179 41 171 45 166 48 c 1
 150 62 135 84 129 95 c 0
 126 101 125 107 125 114 c 0
 125 140 151 163 175 163 c 0
 190 163 197 152 203 145 c 1
 208 132 219 121 228 113 c 0
 235 106 238 98 238 90 c 0x66
464 394 m 0x37
 464 421 492 442 515 442 c 0x3680
 524 442 529 439 535 434 c 0
 552 419 564 402 573 386 c 0
 576 380 578 374 578 368 c 0
 578 344 551 322 527 322 c 0
 514 322 504 329 499 338 c 1
 491 349 480 363 474 370 c 0
 467 377 464 385 464 394 c 0x37
110 242 m 2
 118 276 l 1
 121 278 l 1
 130 298 149 310 166 310 c 2
 172 310 l 1
 193 307 199 294 199 279 c 0
 199 275 198 270 197 265 c 0
 191 247 190 230 186 212 c 0
 181 190 162 175 144 172 c 1
 137 172 l 2
 112 172 106 189 106 208 c 0
 106 219 108 232 110 242 c 2
515 263 m 0
 520 289 539 308 558 310 c 1
 563 310 l 2
 584 310 595 294 595 279 c 2
 595 275 l 1
 592 250 587 226 581 208 c 0
 572 182 547 172 533 172 c 2
 529 172 l 1
 509 175 504 188 504 202 c 0
 504 208 503 214 504 220 c 2
 504 220 515 258 515 263 c 0
208 322 m 0
 187 322 175 333 175 351 c 0
 175 363 181 375 188 383 c 0
 208 403 227 420 247 434 c 0
 257 440 266 443 273 443 c 0
 293 443 307 427 307 409 c 0
 307 390 293 378 284 371 c 0
 267 359 252 346 241 335 c 0
 230 324 218 322 208 322 c 0
515 99 m 1
 497 79 456 41 426 41 c 0x6680
 412 41 396 56 396 74 c 0
 396 76 396 78 396 80 c 0
 399 94 410 108 420 114 c 0
 434 123 449 137 459 146 c 0
 470 156 483 161 496 161 c 0
 517 161 526 145 526 129 c 0
 526 118 523 106 515 99 c 1
325 430 m 0
 325 463 350 471 366 479 c 1
 368 479 l 1
 379 480 391 481 402 481 c 0
 416 481 427 480 435 479 c 0
 455 477 464 461 464 447 c 0
 464 442 461 438 460 434 c 0
 451 409 429 401 413 401 c 2
 408 401 l 1
 399 402 391 401 385 401 c 0
 377 401 367 402 360 401 c 0
 358 401 356 401 354 401 c 0x2f
 334 401 325 414 325 430 c 0
378 50 m 0
 378 8 337 0 300 0 c 0
 286 0 275 2 268 3 c 0
 246 5 241 21 241 36 c 0
 241 40 240 44 241 48 c 0
 251 74 275 83 291 83 c 2
 295 83 l 1
 303 82 311 81 317 81 c 0
 326 81 334 82 341 83 c 1
 346 83 l 2xa6
 369 83 378 67 378 50 c 0
EndSplineSet
EndChar

StartChar: uniE803
Encoding: 59395 59395 195
Width: 600
Flags: W
HStem: -200 100<389 462.986> 188 80<110.458 162 242 310.663> 380 100<135.886 391 491 586.753>
LayerCount: 2
Fore
SplineSet
277 -150 m 2
 391 380 l 1
 161 380 l 2
 137 380 120 397 120 419 c 0
 120 423 120 426 121 430 c 0
 127 458 154 480 182 480 c 2
 562 480 l 2
 586 480 602 464 602 441 c 0
 602 437 602 434 601 430 c 0
 595 402 569 380 541 380 c 2
 491 380 l 1
 389 -100 l 1
 439 -100 l 2
 463 -100 479 -116 479 -139 c 0
 479 -143 479 -146 478 -150 c 0
 472 -178 445 -200 417 -200 c 2
 317 -200 l 2
 293 -200 277 -184 277 -161 c 0
 277 -157 276 -154 277 -150 c 2
162 188 m 1
 129 188 l 2
 113 188 101 202 101 220 c 0
 101 223 102 225 102 228 c 0
 107 250 128 268 146 268 c 2
 292 268 l 2
 307 268 319 255 319 237 c 0
 319 234 319 231 318 228 c 0
 314 206 295 188 277 188 c 2
 242 188 l 1
 230 134 l 2
 226 112 204 94 182 94 c 0
 163 94 149 108 149 127 c 0
 149 129 150 131 150 134 c 2
 162 188 l 1
EndSplineSet
Validated: 1
LCarets2: 1 0 
MultipleSubs2: "Special Decomposition Table" afii57674 afii57797
Ligature2: "'ccmp' Final Kaf" afii57674 afii57797
EndChar

StartChar: uniFB1E
Encoding: 64286 64286 197
Width: 0
Flags: W
HStem: 540 100<95.8646 185.142>
VStem: -9 289<603.703 639.884>
LayerCount: 2
Fore
SplineSet
3 597 m 1
 -6 607 -9 617 -9 627 c 0
 -9 658 23 687 52 687 c 0
 63 687 72 684 80 677 c 0
 109 650 106 640 136 640 c 0
 166 640 167 650 208 677 c 0
 218 684 229 687 240 687 c 0
 263 687 280 670 280 647 c 0
 280 644 280 641 279 637 c 0
 276 622 268 612 251 597 c 0
 232 580 169 540 115 540 c 0
 65 540 22 572 3 597 c 1
EndSplineSet
Validated: 1
EndChar

StartChar: uniFB29
Encoding: 64297 64297 208
Width: 600
Flags: W
HStem: 230 100<116.664 320 420 583.576>
LayerCount: 2
Fore
SplineSet
157 230 m 2
 133 230 121 232 114 239 c 0
 106 247 101 257 101 269 c 0
 101 273 101 276 102 280 c 0
 105 297 118 314 135 323 c 0
 145 329 153 330 178 330 c 2
 320 330 l 1
 355 494 l 2
 361 520 365 530 375 539 c 1
 387 553 403 560 419 560 c 0
 436 560 451 551 457 536 c 0
 459 532 460 528 460 523 c 0
 460 517 458 508 455 494 c 2
 420 330 l 1
 561 330 l 2
 589 330 597 328 605 321 c 0
 614 313 619 302 619 289 c 0
 619 286 619 283 618 280 c 0
 614 263 601 246 584 237 c 0
 575 232 563 230 540 230 c 2
 157 230 l 2
EndSplineSet
Validated: 1
EndChar

StartChar: uniFB4F
Encoding: 64335 64335 246
Width: 600
Flags: W
HStem: 0 21G<483.5 496.5> 380 100<482.886 521>
VStem: 150 134<419 590>
AnchorPoint: "H" 300 0 basechar 0
AnchorPoint: "Q" 300 0 basechar 0
AnchorPoint: "W" 400 0 basechar 0
AnchorPoint: "N" 245.575 -2 basechar 0
AnchorPoint: "Holam" 0 0 basechar 0
LayerCount: 2
Fore
SplineSet
150 431 m 2
 183 579 l 2
 189 607 216 629 244 629 c 0
 268 629 284 613 284 590 c 0
 284 586 284 583 283 579 c 2
 256 451 l 1
 424 237 l 1
 476 259 499 276 504 303 c 2
 521 380 l 1
 508 380 l 2
 484 380 467 397 467 419 c 0
 467 423 467 426 468 430 c 0
 474 458 501 480 529 480 c 2
 642 480 l 1
 604 303 l 1
 587 230 535 190 482 162 c 1
 543 85 l 1
 549 78 552 70 552 61 c 0
 552 43 540 25 528 15 c 1
 517 5 503 0 490 0 c 0
 477 0 465 5 458 15 c 2
 159 395 l 2
 153 402 150 410 150 419 c 0
 150 423 149 427 150 431 c 2
EndSplineSet
Validated: 1
LCarets2: 2 0 0 
Ligature2: "'ccmp' Alef Lamed" afii57664 uni0000 afii57676
Ligature2: "'ccmp' Alef Lamed" afii57664 afii301 afii57676
EndChar

StartChar: uni05C5
Encoding: 1477 1477 247
Width: 0
Flags: W
HStem: -244 83<-76.3564 -10.3523>
VStem: -86 86<-233.496 -170.933>
LayerCount: 2
Fore
SplineSet
-34 -161 m 0
 -14 -161 0 -175 0 -194 c 0
 0 -196 1 -199 0 -202 c 0
 -5 -225 -29 -244 -52 -244 c 0
 -72 -244 -86 -230 -86 -211 c 0
 -86 -208 -87 -205 -86 -202 c 0
 -81 -179 -57 -161 -34 -161 c 0
EndSplineSet
Validated: 1
EndChar

StartChar: uni05C6
Encoding: 1478 1478 248
Width: 600
Flags: W
HStem: 0 100<281 396.114> 380 100<374.5 476.753>
VStem: 170 322
LayerCount: 2
Fore
SplineSet
371 100 m 2
 395 100 412 83 412 61 c 0
 412 57 412 54 411 50 c 0
 405 22 378 0 350 0 c 2
 210 0 l 2
 186 0 170 16 170 39 c 0
 170 43 169 46 170 50 c 2
 216 264 l 2
 237 361 340 480 437 480 c 2
 452 480 l 2
 476 480 492 464 492 441 c 0
 492 437 492 434 491 430 c 0
 485 402 459 380 431 380 c 2
 416 380 l 2
 375 380 325 305 316 264 c 2
 281 100 l 1
 371 100 l 2
EndSplineSet
Validated: 1
EndChar

StartChar: uni05C7
Encoding: 1479 1479 249
Width: 0
Flags: W
HStem: -140 80<-135.125 -70 10 92.0673>
AnchorPoint: "W" 0 0 mark 0
AnchorPoint: "M2V" -170 0 basemark 0
AnchorPoint: "VR" -40 0 mark 0
LayerCount: 2
Fore
SplineSet
-70 -140 m 1
 -112 -140 l 2
 -131 -140 -144 -127 -144 -109 c 0
 -144 -106 -144 -103 -143 -100 c 0
 -139 -78 -117 -60 -95 -60 c 2
 69 -60 l 2
 88 -60 102 -74 102 -93 c 0
 102 -95 101 -97 101 -100 c 0
 96 -122 74 -140 52 -140 c 2
 10 -140 l 1
 0 -194 l 2
 -5 -216 -28 -234 -50 -234 c 0
 -69 -234 -82 -223 -82 -205 c 0
 -82 -202 -82 -197 -81 -194 c 2
 -70 -140 l 1
EndSplineSet
Validated: 1
EndChar

StartChar: uni05BA
Encoding: 1466 1466 250
Width: 0
Flags: W
HStem: 540 84<90.6436 155.747>
VStem: 81 86<551.433 613.646>
AnchorPoint: "Holam_Haser_on Vav" 0 0 mark 0
LayerCount: 2
Fore
SplineSet
133 624 m 0
 153 624 167 610 167 592 c 0
 167 589 167 586 166 583 c 0
 161 560 138 540 115 540 c 0
 95 540 81 555 81 574 c 0
 81 577 80 580 81 583 c 0
 86 606 110 624 133 624 c 0
EndSplineSet
Validated: 1
EndChar

StartChar: uni05A2
Encoding: 1442 1442 251
Width: 0
Flags: W
HStem: -250 191
VStem: -133 82<-105.562 -67.8191>
LayerCount: 2
Fore
SplineSet
-78 -179 m 1
 -109 -168 -132 -144 -133 -108 c 1
 -133 -107 -133 -105 -133 -104 c 0
 -133 -81 -108 -59 -85 -59 c 0
 -66 -59 -52 -71 -51 -89 c 0
 -51 -93 -45 -106 -23 -106 c 0
 -2 -106 11 -94 13 -89 c 0
 22 -72 40 -60 57 -60 c 0
 61 -60 64 -61 68 -62 c 0
 83 -65 90 -77 90 -90 c 0
 90 -97 88 -104 85 -111 c 0
 69 -145 34 -169 0 -179 c 1
 -5 -210 l 2
 -9 -232 -31 -250 -53 -250 c 0
 -72 -250 -86 -236 -86 -217 c 0
 -86 -215 -85 -213 -85 -210 c 2
 -78 -179 l 1
EndSplineSet
Validated: 1
EndChar

StartChar: uni0000
Encoding: 0 0 252
Width: 600
Flags: W
HStem: -60 100<189 429> 440 100<274 514>
LayerCount: 2
Fore
SplineSet
189 40 m 1
 429 40 l 1
 514 440 l 1
 274 440 l 1
 189 40 l 1
195 540 m 1
 635 540 l 1
 507 -60 l 1
 67 -60 l 1
 195 540 l 1
EndSplineSet
Validated: 1
EndChar

StartChar: quoteleft
Encoding: 8216 8216 254
Width: 600
Flags: W
HStem: 348 254<489.5 506.5>
LayerCount: 2
Fore
SplineSet
509 602 m 1
 534 395 l 1
 534 387 l 2
 534 365 517 348 496 348 c 0
 483 348 477 354 469 372 c 2
 377 602 l 1
 509 602 l 1
EndSplineSet
EndChar

StartChar: quotedblleft
Encoding: 8220 8220 255
Width: 600
Flags: W
HStem: 348 254<338.5 355.5 538.5 555.5>
LayerCount: 2
Fore
SplineSet
558 602 m 1
 583 395 l 1
 583 387 l 2
 583 365 566 348 545 348 c 0
 532 348 526 354 518 372 c 2
 426 602 l 1
 558 602 l 1
358 602 m 1
 383 395 l 1
 383 387 l 2
 383 365 366 348 345 348 c 0
 332 348 326 354 318 372 c 2
 226 602 l 1
 358 602 l 1
EndSplineSet
EndChar
